<svg xmlns="http://www.w3.org/2000/svg" width="152.925" height="37.048" viewBox="0 0 152.925 37.048"><g fill="#DB5525"><path d="M37.873 12.397c.552 0 1.054.075 1.507.228.453.15.859.363 1.217.636.359.272.67.597.934.972.262.377.479.789.646 1.24.169.451.289.93.362 1.438.073.506.1 1.025.08 1.557h-7.817c.024.557.115 1.053.271 1.492s.372.812.644 1.119c.273.307.6.541.98.701a3.23 3.23 0 0 0 1.279.242c.303 0 .597-.039.881-.117a2.887 2.887 0 0 0 1.437-.896c.189-.217.344-.462.461-.735h1.74c-.404 1.023-.984 1.805-1.74 2.344s-1.717.809-2.882.809c-.774 0-1.472-.134-2.091-.398a4.504 4.504 0 0 1-1.583-1.123 4.923 4.923 0 0 1-1.003-1.74c-.23-.678-.347-1.432-.347-2.26 0-.805.122-1.544.365-2.219a5.125 5.125 0 0 1 1.028-1.74c.44-.486.969-.865 1.586-1.139a4.99 4.99 0 0 1 2.045-.411zm2.845 4.9a5.435 5.435 0 0 0-.252-1.375c-.139-.424-.33-.791-.574-1.104s-.541-.557-.893-.735a2.644 2.644 0 0 0-1.207-.267c-.491 0-.92.1-1.286.296a2.812 2.812 0 0 0-.917.783 3.492 3.492 0 0 0-.564 1.114c-.128.42-.203.85-.223 1.287h5.916zM44.88 20.42c.639-.922 1.284-1.846 1.938-2.771l-3.525-4.98h2.348l2.406 3.613 2.377-3.613h2.245l-3.554 4.959a2702.154 2702.154 0 0 0 4.007 5.564h-2.369l-2.765-4.125c-.141.211-.311.461-.504.75-.195.291-.411.61-.648.961-.236.352-.489.73-.76 1.139-.271.406-.55.832-.837 1.275H42.95c.648-.926 1.291-1.85 1.93-2.772zM55.835 14.232c.398-.633.889-1.092 1.466-1.378a4.31 4.31 0 0 1 1.927-.428c.741 0 1.408.128 2 .384a4.162 4.162 0 0 1 1.511 1.105c.413.479.731 1.063.954 1.75.222.688.333 1.461.333 2.318 0 .854-.11 1.619-.331 2.297-.219.678-.535 1.252-.949 1.723a4.17 4.17 0 0 1-1.507 1.082c-.59.25-1.253.376-1.989.376-.326 0-.654-.038-.982-.113a3.892 3.892 0 0 1-.934-.341c-.293-.15-.559-.338-.8-.563s-.435-.482-.581-.775v5.258h-1.924V12.676h1.807v1.556zm.021 3.694c0 .317.025.639.077.965.051.327.13.644.237.948s.242.591.406.858c.163.269.359.502.589.703.229.199.489.357.781.475.293.117.622.176.988.176.39 0 .737-.056 1.045-.164.308-.111.577-.262.812-.453a2.77 2.77 0 0 0 .597-.686c.163-.263.296-.546.399-.851.102-.305.176-.624.221-.954.048-.332.071-.666.071-1.002 0-.488-.061-.976-.18-1.463a4.26 4.26 0 0 0-.56-1.316c-.254-.391-.58-.707-.977-.951s-.873-.365-1.429-.365c-.376 0-.713.058-1.009.172a2.714 2.714 0 0 0-1.375 1.156 4.213 4.213 0 0 0-.395.852 5.42 5.42 0 0 0-.229.938 7.005 7.005 0 0 0-.069.962zM70.132 12.397c.551 0 1.053.075 1.506.228.453.15.859.363 1.218.636s.669.597.933.972c.263.377.479.789.646 1.24.169.451.289.93.362 1.438.073.506.1 1.025.079 1.557H67.06c.024.557.115 1.053.271 1.492.155.439.37.812.643 1.119.273.307.6.541.98.701.38.162.807.242 1.279.242.303 0 .597-.039.882-.117s.548-.193.79-.344c.241-.151.455-.335.646-.552.19-.217.344-.462.461-.735h1.74c-.404 1.023-.984 1.805-1.74 2.344s-1.717.809-2.881.809c-.775 0-1.473-.134-2.092-.398a4.526 4.526 0 0 1-1.584-1.123c-.436-.482-.77-1.063-1.001-1.74s-.348-1.432-.348-2.26c0-.805.122-1.544.366-2.219a5.123 5.123 0 0 1 1.027-1.74 4.67 4.67 0 0 1 1.587-1.139 4.992 4.992 0 0 1 2.046-.411zm2.844 4.9a5.391 5.391 0 0 0-.252-1.375c-.139-.424-.33-.791-.574-1.104s-.541-.557-.893-.735a2.643 2.643 0 0 0-1.206-.267c-.493 0-.921.1-1.287.296-.365.198-.671.459-.917.783s-.436.695-.563 1.114c-.129.42-.204.85-.224 1.287h5.916zM76.465 12.668h1.777v2.26c.005 0 .007.002.007.002s.003.006.008.006c.18-.443.404-.825.672-1.145.269-.319.566-.582.893-.791.326-.206.674-.359 1.042-.459a4.318 4.318 0 0 1 1.409-.14c.087.009.168.017.241.026v1.901a3.13 3.13 0 0 1-.15-.021c-.057-.01-.113-.02-.172-.025a2.347 2.347 0 0 0-.33-.027c-.428 0-.813.056-1.15.169-.34.111-.637.264-.893.457a2.852 2.852 0 0 0-.654.688c-.18.266-.328.553-.442.863a4.902 4.902 0 0 0-.249.969 6.754 6.754 0 0 0-.076 1.016v4.775h-1.931V12.668zM85.563 10.576h-1.931v-1.93h1.931v1.93zm-1.931 2.092h1.931v10.523h-1.931V12.668zM92.269 12.397c.551 0 1.053.075 1.506.228.453.15.86.363 1.219.636.357.272.668.597.932.972.264.377.479.789.647 1.24s.288.93.361 1.438c.073.506.101 1.025.081 1.557h-7.817c.024.557.114 1.053.271 1.492s.37.812.643 1.119c.273.307.601.541.98.701.381.162.807.242 1.28.242.302 0 .596-.039.882-.117a2.882 2.882 0 0 0 1.435-.896c.19-.217.344-.462.461-.735h1.74c-.404 1.023-.984 1.805-1.74 2.344s-1.716.809-2.881.809c-.775 0-1.473-.134-2.092-.398a4.5 4.5 0 0 1-1.582-1.123 4.92 4.92 0 0 1-1.002-1.74c-.232-.678-.348-1.432-.348-2.26 0-.805.121-1.544.365-2.219a5.139 5.139 0 0 1 1.027-1.74 4.689 4.689 0 0 1 1.587-1.139 4.98 4.98 0 0 1 2.045-.411zm2.844 4.9a5.391 5.391 0 0 0-.253-1.375 3.599 3.599 0 0 0-.574-1.104 2.602 2.602 0 0 0-.893-.735 2.636 2.636 0 0 0-1.205-.267c-.494 0-.922.1-1.287.296-.366.198-.672.459-.918.783s-.434.695-.563 1.114c-.13.42-.204.85-.224 1.287h5.917zM98.603 12.668h1.813v1.814a3.52 3.52 0 0 1 .648-.867c.26-.256.551-.473.873-.65s.666-.313 1.034-.406a4.636 4.636 0 0 1 1.138-.139c.551 0 1.05.079 1.495.238.446.158.828.393 1.145.701.317.311.562.691.731 1.145.171.453.256.975.256 1.564v7.123h-1.931v-6.729c0-.447-.045-.832-.135-1.151a2.045 2.045 0 0 0-.398-.782 1.583 1.583 0 0 0-.647-.446 2.524 2.524 0 0 0-.881-.142c-.527 0-.992.104-1.393.313-.403.21-.74.491-1.01.845a3.735 3.735 0 0 0-.611 1.221 5.052 5.052 0 0 0-.204 1.445v5.426h-1.923V12.668zM114.296 23.426c-.746 0-1.424-.13-2.033-.389a4.414 4.414 0 0 1-1.564-1.101 4.957 4.957 0 0 1-1.006-1.711c-.236-.665-.354-1.407-.354-2.227 0-.829.114-1.587.344-2.274s.559-1.277.99-1.77.958-.875 1.579-1.148c.622-.272 1.326-.409 2.109-.409.553 0 1.086.073 1.603.216.517.145.981.363 1.393.658a3.79 3.79 0 0 1 1.031 1.119c.274.451.45.98.523 1.59h-1.88a3.045 3.045 0 0 0-.328-.855 2.659 2.659 0 0 0-.567-.688 2.564 2.564 0 0 0-.79-.457 2.906 2.906 0 0 0-.998-.164c-.385 0-.728.061-1.027.179-.3.12-.563.282-.79.487a2.923 2.923 0 0 0-.577.716c-.16.272-.286.565-.383.874-.099.311-.17.629-.213.959a7.221 7.221 0 0 0-.066.961c0 .292.022.594.066.906.043.313.115.619.215.918.1.301.229.584.388.848.158.267.351.5.574.702.224.203.483.362.778.479s.633.176 1.014.176c.409 0 .773-.066 1.093-.201a2.51 2.51 0 0 0 .825-.549c.232-.23.423-.498.571-.801.149-.303.255-.621.318-.958h1.836a5.447 5.447 0 0 1-.57 1.689 4.179 4.179 0 0 1-1.006 1.226 4.229 4.229 0 0 1-1.39.746 5.579 5.579 0 0 1-1.708.253zM125.009 12.397c.552 0 1.054.075 1.508.228.453.15.858.363 1.217.636s.67.597.933.972c.264.377.478.789.646 1.24s.29.93.362 1.438c.073.506.1 1.025.08 1.557h-7.816c.024.557.113 1.053.27 1.492s.371.812.644 1.119c.272.307.6.541.979.701.381.162.809.242 1.281.242.302 0 .596-.039.881-.117s.547-.193.789-.344c.242-.151.457-.335.647-.552s.345-.462.46-.735h1.742c-.406 1.023-.985 1.805-1.742 2.344-.755.539-1.715.809-2.881.809-.774 0-1.473-.134-2.091-.398a4.504 4.504 0 0 1-1.583-1.123c-.437-.482-.771-1.063-1.002-1.74s-.348-1.432-.348-2.26c0-.805.121-1.544.365-2.219a5.155 5.155 0 0 1 1.027-1.74 4.683 4.683 0 0 1 1.588-1.139 4.983 4.983 0 0 1 2.044-.411zm2.845 4.9a5.435 5.435 0 0 0-.252-1.375 3.619 3.619 0 0 0-.573-1.104 2.621 2.621 0 0 0-.893-.735 2.647 2.647 0 0 0-1.207-.267c-.492 0-.922.1-1.287.296-.365.198-.672.459-.918.783s-.434.695-.563 1.114c-.129.42-.205.85-.223 1.287h5.916z"/></g><path fill="#DB5525" d="M8.676 8.719c-4.656 0-8.441 3.789-8.441 8.443s3.785 8.442 8.441 8.442c4.655 0 8.441-3.788 8.441-8.442s-3.786-8.443-8.441-8.443zm5.501 7.672c.098.262.004.447-.268.504a.99.99 0 0 1-.723-.139c-.313-.182-.551-.447-.775-.723-.197-.246-.375-.508-.584-.743a2.247 2.247 0 0 0-.516-.446 6.534 6.534 0 0 0-1.65-.711.763.763 0 0 0-.589.056c-.186.095-.376.181-.562.267-.135-.236-.131-.439.047-.613.139-.131.302-.252.474-.328.336-.154.686-.279 1.038-.404.152-.057.199-.156.17-.301-.026-.128-.068-.252-.104-.377-.037-.125-.007-.234.098-.307.351-.24.692-.484 1.055-.705.215-.134.405-.046.503.188.117.279.141.285.418.154.227-.107.457-.207.689-.299a.42.42 0 0 1 .419.061c.265.199.546.395.776.633.405.412.805.84 1.156 1.299.206.273.33.615.463.938.279.672.438 1.375.492 2.1a1.82 1.82 0 0 1-.074.613c-.067.242-.217.286-.415.13-.397-.315-.781-.646-1.176-.967-.048-.039-.1-.093-.155-.099a.352.352 0 0 0-.219.041c-.023.014-.008.121.012.178zm-6.44-5.743c-.084.028-.176.043-.256.084-.584.301-1.169.605-1.752.91-.068.037-.127.089-.192.133-.172.113-.278.267-.282.479a2.06 2.06 0 0 1-.008.078c-.063.363-.288.51-.646.422a.86.86 0 0 1-.118-.04.855.855 0 0 0-.803.019c-.219.117-.43.088-.623.05l-.229-.431c.043-.054.099-.122.155-.188 1.312-1.465 2.943-2.322 4.899-2.522.25-.026.521.122.775.206.172.059.325.144.274.383-.015.072.031.161.058.24.035.114.098.177.242.16.277-.029.471.151.443.396a.212.212 0 0 1-.104.148c-.911.368-1.823.73-2.738 1.092a1.036 1.036 0 0 1-.36.082.348.348 0 0 1-.248-.119c-.07-.096-.019-.201.068-.277.258-.213.516-.428.773-.645.188-.156.377-.313.563-.473.049-.044.088-.101.129-.148a.16.16 0 0 0-.02-.039zm-5.15 10.075c-.012.008-.021.02-.035.031-.112-.068-.233-.124-.337-.204a1.953 1.953 0 0 1-.694-.948c-.293-.881-.46-1.78-.394-2.713.044-.607.155-1.201.438-1.75.043-.084.1-.158.148-.24.014-.021.024-.047.05-.061-.12.608.103 1.135.329 1.659.049.114.115.224.167.339.198.422.456.798.864 1.048.014.009.023.021.035.03.418.301.478.471.29 1.063-.086.267-.296.497-.465.733-.105.148-.242.275-.355.418-.144.185-.209.38-.041.595zM8.74 23.24c.87-.045 1.512.355 2.03 1.057-.095.049-.174.105-.265.133-1.104.343-2.212.422-3.322.027a1.791 1.791 0 0 1-.823-.545c.801-.266 1.545-.627 2.38-.672zm1.926-1.265a1.12 1.12 0 0 1-.233.157c-.337.185-.6.104-.721-.261a3.582 3.582 0 0 1-.162-.843c-.066-.728-.127-1.458-.316-2.169-.012-.039-.025-.08-.035-.121-.078-.297-.251-.477-.567-.554a8.364 8.364 0 0 1-1.146-.37 2.674 2.674 0 0 1-.676-.412c-.269-.226-.333-.534-.171-.84.438-.835 1.074-1.43 2.059-1.529.436-.043.832.117 1.225.305-.065.177.044.282.177.33a14.8 14.8 0 0 0 1.036.346c.188.055.381.064.569.109.081.02.177.057.228.115.129.157.242.326.35.498.077.125.135.26.196.392.13.269.319.474.594.603.179.086.346.197.516.298.087.054.103.125.103.235 0 .433-.23.684-.596.852-.268.125-.453.334-.623.578a40.64 40.64 0 0 1-1.242 1.717c-.162.208-.372.381-.565.564z"/><path fill="none" d="M0 0h152.925v37.048H0z"/></svg>