<svg xmlns="http://www.w3.org/2000/svg" width="320" height="180.771" viewBox="0 0 320 180.771"><linearGradient id="a" gradientUnits="userSpaceOnUse" y1="149.68" x2="258.727" y2="149.68"><stop offset="0" stop-color="#71bd9b"/><stop offset=".268" stop-color="#6ebb9a"/><stop offset=".476" stop-color="#64b695"/><stop offset=".664" stop-color="#54ad8e"/><stop offset=".839" stop-color="#3ca083"/><stop offset="1" stop-color="#209076"/></linearGradient><path fill="url(#a)" d="M92.152 136.19c-.029-.089-.163-.498-.469-.424-.297.073-.223.654-.2.78-.037-.134-.186-.632-.327-.558-.141.074-.044.572-.015.736-.06-.164-.261-.67-.55-.647-.335.023-.447.862-.447.862s0-.839-.223-.839-.395 1.799-.395 1.799-.162-1.204-.305-1.182c-.141.028-.363 1.182-.363 1.182s-.142-.93-.364-.93c-.224 0-.313 1.093-.313 1.093s-.134-1.145-.446-1.093c-.305.06-.253 1.376-.253 1.376s-.142-1.063-.364-1.094c-.224-.029-.476 1.257-.476 1.257s-.053-1.257-.365-1.257c-.304 0-.476 1.257-.476 1.257s-.111-1.146-.394-1.174c-.275-.03-.365 1.174-.365 1.174s.03-1.093-.363-1.004c-.388.081-.335 1.004-.335 1.004s-.111-.892-.364-.892-.446 1.093-.446 1.093-.059-1.063-.335-1.124c-.282-.051-.282 1.124-.282 1.124s-.052-1.124-.416-1.152c-.364-.022-.342 1.152-.342 1.152s-.112-1.347-.417-1.264c-.208.059-.29.698-.319 1.107.015-.438-.008-1.138-.297-1.138-.395 0-.275.989-.261 1.138-.03-.111-.32-1.019-.64-1.019-.334 0-.223 1.033-.223 1.033s-2.098.082-3.25.11c-1.145.031-4.565.76-7.145 2.299 0 0-1.763.335-3.078.476-1.316.142-2.045 1.234-2.692 1.315-.64.083-4.313.678-5.688 1.063-1.368.395-5.012 3.086-5.911 3.25-.893.17-3.584-.557-7.279 4.371 0 0 0-.557-.253-.475-.253.081-.253.951-.253.951s-.111-.446-.394-.364c-.283.081-.446 1.123-.446 1.123s0-1.042-.224-1.042c-.223 0-.453 1.042-.453 1.042s-.111-1.042-.417-1.042c-.312 0-.393 1.184-.393 1.184s-.143-.931-.396-.931c-.245 0-.334 1.205-.334 1.205s-.081-1.205-.417-1.175c-.245.021-.281.521-.281.811-.016-.268-.061-.698-.254-.698-.282 0-.252.728-.252.728s-.053-.84-.305-.78c-.217.045-.35.535-.387.684.029-.133.096-.542-.23-.542-.395 0-.395.974-.395.974s-2.438 2.692-3.867 3.421c-.535.274-.817 1.197-1.166 2.319-.641.29-1.205.661-1.666 1.174C28.834 163.738 0 180.765 0 180.765h258.727l-22.448-9.963s-84.762-44.612-91.825-45.356c-.335-.037-.654-.073-.975-.111l-4.729.855-3.346.609s-.989.878-1.859 1.695c-.862.825-1.605.282-1.605.282l-3.302 4.09c.111-.334 2.052-5.985 1.814-7.791-.253-1.86-4.818-6.104-4.818-6.104-.61-.283-1.189-.433-1.718-.357-3.77.543-10.09 5.316-14.283 8.193-4.416.313-7.992 2.142-10.506 4.126 0 0-.237-.289-.379-.208-.141.082-.224.669-.224.669s-.171-.304-.424-.252c-.252.06-.223.848-.223.848s-.193-.535-.506-.424c-.305.111-.364 1.093-.364 1.093s-.111-.535-.305-.424c-.201.11-.335.84-.335.84s-.029-.274-.312-.245c-.275.022-.275.498-.275.498s-.364-.134-.506 0c-.141.142-.171.729-.171.729s-.142-.276-.477-.165c-.333.112-.252.506-.252.506s-.192-.059-.446 0c-.252.053-.201.67-.201.67s-.305-.424-.557-.364c-.254.06-.223.699-.223.699s-.365-.275-.647 0c-.237.244-.169.683-.148.787z"/><path fill="#96D1B6" d="M125.634 118.971s4.565 4.244 4.818 6.104c.237 1.806-1.703 7.457-1.814 7.791l3.302-4.09s.743.543 1.605-.282c.87-.817 1.859-1.695 1.859-1.695l3.346-.609 4.729-.855c-6.416-.803-9.74-2.528-12.224-3.233-1.919-.545-3.903-2.344-5.621-3.131zM109.887 128.496c-.455 1.505-1.883 4.3-2.058 4.616-.283.512-.485 1.036-.759 1.554-.294.557-.447 1.188-.783 1.717-.207.328-.688 1.006-.647 1.418.424.092.876.026 1.302.106-.102.432-.664.822-.906 1.206-.352.558-.791 1.072-1.143 1.628-.223.35-.424.723-.647 1.066-.135.208-.547.573-.481.797.097-.007.243.061.34.052.143.456-.977 1.052-1.289 1.299-.467.369-.721.863-.922 1.411.233-.132.74-.58.805-.829-.357.369-.618.401-1.151.357-.683-.055-.993.188-1.305.731-.347.605-.964 1.021-1.355 1.6-.214.315-.326.695-.555.997-.485.647-1.133 1.004-1.771 1.467-.291-.339.467-1.244.66-1.561.348-.573.434-1.165.692-1.771.124-.292.231-.57.329-.862.089-.261.27-.493.259-.779-.188.169-.396.314-.593.474-.177-.723 1.4-1.522 1.791-2.011.521-.649 1.203-1.376 1.559-2.114.363-.749.76-1.4 1.24-2.068.273-.376.551-.73.846-1.085.21-.255.367-.57.658-.746.004.524.281.574.769.364.472-.203.543-.396.582-.833.038-.447.046-.735.275-1.131.323-.555.664-1.089 1.022-1.616.604-.886.813-2.039 1.52-2.843.121-.138.28-.202.375-.367.14-.239 1.005-2.135 1.341-2.244zM99.128 139.294c.2-.381 1.228-2.061 1.451-2.43.372-.618.765-1.229 1.148-1.845.411-.659.841-1.31 1.232-1.983.284-.489.642-1.097 1.044-1.489a.516.516 0 0 1-.01.302c.291-.082.708-.621.923-.849.162-.17.211-.375.353-.546.119-.141.323-.236.453-.395.26-.32.551-.582.84-.88.125-.128.254-.358.435-.405.151.393-.097 1.051-.122 1.472-.01.154-.038.32.002.456a2.05 2.05 0 0 0 .377-.155c-.118.151-.136.384-.195.566-.09.264-.211.532-.37.759-.193.274-.46.506-.696.743-.337.34-.637.654-.948 1.005-.401.452-.877.93-1.18 1.426-.111.182-.326.42-.486.56-.136.118-.315.181-.452.303-.103.094-.19.209-.303.306.136-.278-.051-.612-.189-.86-.207.012-.303.357-.395.511-.172.283-.405.515-.587.785-.274.407-.53.787-.86 1.16-.215.244-.444.446-.654.694-.234.269-.636.465-.811.789zM78.778 139.842c-.946.944-2.637 3.666-2.678 4.241-.071 1.02.186 1.867.347 2.854.138.847.517 2.177.272 3.024-.343 1.188-1.229.346-1.932-.189-1.126-.854-2.191-.97-3.552-.782-2.038.278-4.372.011-6.421-.052-1.748-.051-3.403.361-5.128.666-1.103.192-3.112.588-4.658 1.229 1.057-.833 2.184-1.118 2.788-1.371 1.008-.42 1.935-1.002 2.913-1.485 1.15-.568 2.936-1.116 3.864-1.984-.065.033-.127.022-.183-.033.24-.734 1.971-.849 2.648-1.138.708-.302 1.507-.895 2.254-.965-.047.309-.17.594-.266.899.402.061.79-.31 1.117-.55.73-.536 1.455-.801 2.244-1.229.88-.477 1.627-.682 2.577-1.003.45-.15 2.912-1.676 3.794-2.132zM124.49 119.843c-.217 1.147-.905 1.65-.748 2.361.065.306.315.333.259.743-.038.287-.223.647-.281.956-.133.714-.198 1.535-.348 2.301-.094.477-.583.677-.74 1.137-.079.23-.837 1.203-.837 1.394.244.049 1.094-.187 1.189-.198.218.521-.998 1.079-1.344 1.374-.425.364-.699.893-.898 1.416a15.132 15.132 0 0 1-1.091 2.306c-.232.4-.426 1.164-.709 1.443.007-.105-.052-.242-.053-.348-.235.113-.475.617-.626.85-.394.606-.575 1.253-.967 1.869-.463.729-.282 1.203-1.211 1.231-.671.021-.54.231-.921.71-.551.691-1.023 1.212-1.734 1.724-.694.5-1.112.913-1.236 1.749-.155 1.06-.513 1.813-.994 2.745-.405.784-.709 2.022-1.313 2.62-.002-.79.146-2.252.43-2.979.373-.947.511-1.667.744-2.648.352-1.477.912-2.755.781-4.283-.448.032-.617.618-1.068.611-.13-.292.048-.685.086-.989.047-.389.164-.738.22-1.122.138-.957.239-1.891.403-2.85.143-.833.313-1.595.463-2.409.127-.698.406-1.359.501-2.068.069-.532-.05-1.095.021-1.627.149-1.104 1.117-1.562 1.962-2.066.429-.257.901-.609 1.36-.901.463-.294.998-.59 1.297-1.071.787-1.263 1.728-2.153 2.986-2.996.548-.367.342-.071.818.111.523.201.681-.433 1.104-.335-.018.094.053.244.036.337.446.118 1.151-.248 1.505-.452.267-.158-.001-.003.954-.646z"/><path fill="#DEC07F" d="M153.137 94.245v86.526h56.395v-86.05l-.581-.476z"/><path fill="#D0D1D1" d="M153.137 94.245h55.594v4.596h-55.594z"/><path fill="#2E5D50" d="M149.136 94.245h79.663l23.805-38.368h-67.671z"/><path fill="#E8D5A5" d="M256.566 56.214L208.73 95.859v84.912h95.672V95.859z"/><path fill="#D0D1D1" d="M232.83 74.341h47.818v1.381H232.83z"/><path fill="#CBAC6E" d="M209.542 159.432h94.86v1.974h-94.86zM209.542 162.056h94.86v1.975h-94.86zM209.542 164.68h94.86v1.974h-94.86zM209.542 167.305h94.86v1.974h-94.86zM209.542 169.928h94.86v1.976h-94.86zM209.542 172.552h94.86v1.975h-94.86zM209.542 175.176h94.86v1.975h-94.86zM209.542 177.801h94.86v1.974h-94.86z"/><path fill="#2E5D50" d="M257.094 55.88l-22.033 18.461 44.064-.002z"/><path fill="#D0D1D1" d="M208.73 95.072l48.364-42.351 47.308 42.555v3.307l-47.308-39.48-48.364 39.738z"/><path fill="#63A98A" d="M194.186 95.854l62.908-52.711L320 95.852l-9.307.002-53.599-44.913-53.604 44.914z"/><path fill="#458A77" d="M197.648 95.854l59.446-49.811 59.443 49.809-8.793.002-50.65-42.441-50.654 42.442z"/><path fill="#2E5D50" d="M201.98 95.854l55.114-46.181 55.111 46.179-8.152.002-46.959-39.348-47.562 39.349z"/><path fill="#726658" d="M187.904 108.297h9.569v16.784h-9.569z"/><path fill="#595045" d="M187.708 108.302h9.962v.688h-9.962zM187.708 117.061h9.962v.689h-9.962z"/><path fill="#BB7652" d="M199.548 127.155h-13.719v-20.934h13.719v20.934zm-11.644-2.074h9.569v-16.784h-9.569v16.784z"/><path fill="#FFF3DC" d="M198.402 126.118h-11.427V107.26h11.427v18.858zm-10.498-1.037h9.569v-16.784h-9.569v16.784z"/><path fill="#FFF3DC" d="M192.352 107.26h.674v18.858h-.674z"/><path fill="#FFF3DC" d="M186.976 116.316h11.427v.744h-11.427z"/><path fill="#E96C49" d="M180.786 106.222h5.043v20.934h-5.043z"/><path fill="#CD5436" d="M181.362 107.465h3.89v18.446h-3.89z"/><path fill="#E96C49" d="M185.308 108.834h-3.999c-.201 0-.363-.112-.363-.251s.162-.251.363-.251h3.999c.2 0 .364.112.364.251s-.164.251-.364.251zM185.308 109.995h-3.999c-.201 0-.363-.113-.363-.252 0-.138.162-.25.363-.25h3.999c.2 0 .364.112.364.25 0 .139-.164.252-.364.252zM185.308 111.155h-3.999c-.201 0-.363-.112-.363-.25s.162-.251.363-.251h3.999c.2 0 .364.113.364.251s-.164.25-.364.25zM185.308 112.317h-3.999c-.201 0-.363-.113-.363-.251 0-.139.162-.251.363-.251h3.999c.2 0 .364.112.364.251 0 .138-.164.251-.364.251zM185.308 113.479h-3.999c-.201 0-.363-.113-.363-.251 0-.139.162-.251.363-.251h3.999c.2 0 .364.112.364.251 0 .137-.164.251-.364.251zM185.308 114.639h-3.999c-.201 0-.363-.112-.363-.251 0-.138.162-.251.363-.251h3.999c.2 0 .364.113.364.251s-.164.251-.364.251zM185.308 115.8h-3.999c-.201 0-.363-.112-.363-.25 0-.139.162-.251.363-.251h3.999c.2 0 .364.112.364.251 0 .138-.164.25-.364.25zM185.308 116.962h-3.999c-.201 0-.363-.113-.363-.251 0-.139.162-.251.363-.251h3.999c.2 0 .364.112.364.251 0 .138-.164.251-.364.251zM185.308 118.123h-3.999c-.201 0-.363-.113-.363-.251 0-.139.162-.251.363-.251h3.999c.2 0 .364.112.364.251 0 .138-.164.251-.364.251zM185.308 119.284h-3.999c-.201 0-.363-.113-.363-.252 0-.138.162-.251.363-.251h3.999c.2 0 .364.113.364.251 0 .139-.164.252-.364.252zM185.308 120.444h-3.999c-.201 0-.363-.112-.363-.25 0-.139.162-.251.363-.251h3.999c.2 0 .364.112.364.251 0 .138-.164.25-.364.25zM185.308 121.606h-3.999c-.201 0-.363-.112-.363-.251s.162-.251.363-.251h3.999c.2 0 .364.112.364.251s-.164.251-.364.251zM185.308 122.768h-3.999c-.201 0-.363-.113-.363-.251 0-.139.162-.251.363-.251h3.999c.2 0 .364.112.364.251 0 .137-.164.251-.364.251zM185.308 123.928h-3.999c-.201 0-.363-.112-.363-.251 0-.138.162-.251.363-.251h3.999c.2 0 .364.113.364.251s-.164.251-.364.251zM185.308 125.089h-3.999c-.201 0-.363-.112-.363-.25 0-.139.162-.251.363-.251h3.999c.2 0 .364.112.364.251 0 .138-.164.25-.364.25z"/><path fill="#AB3D28" d="M181.362 107.465h.626v18.446h-.626z" opacity=".4"/><path fill="#E96C49" d="M199.548 106.222h5.043v20.934h-5.043z"/><path fill="#CD5436" d="M200.125 107.465h3.89v18.446h-3.89z"/><path fill="#E96C49" d="M204.069 108.834h-3.999c-.201 0-.363-.112-.363-.251s.162-.251.363-.251h3.999c.2 0 .363.112.363.251s-.162.251-.363.251zM204.069 109.995h-3.999c-.201 0-.363-.113-.363-.252 0-.138.162-.25.363-.25h3.999c.2 0 .363.112.363.25.001.139-.162.252-.363.252zM204.069 111.155h-3.999c-.201 0-.363-.112-.363-.25s.162-.251.363-.251h3.999c.2 0 .363.113.363.251s-.162.25-.363.25zM204.069 112.317h-3.999c-.201 0-.363-.113-.363-.251 0-.139.162-.251.363-.251h3.999c.2 0 .363.112.363.251.001.138-.162.251-.363.251zM204.069 113.479h-3.999c-.201 0-.363-.113-.363-.251 0-.139.162-.251.363-.251h3.999c.2 0 .363.112.363.251.001.137-.162.251-.363.251zM204.069 114.639h-3.999c-.201 0-.363-.112-.363-.251 0-.138.162-.251.363-.251h3.999c.2 0 .363.113.363.251.001.138-.162.251-.363.251zM204.069 115.8h-3.999c-.201 0-.363-.112-.363-.25 0-.139.162-.251.363-.251h3.999c.2 0 .363.112.363.251.001.138-.162.25-.363.25zM204.069 116.962h-3.999c-.201 0-.363-.113-.363-.251 0-.139.162-.251.363-.251h3.999c.2 0 .363.112.363.251.001.138-.162.251-.363.251zM204.069 118.123h-3.999c-.201 0-.363-.113-.363-.251 0-.139.162-.251.363-.251h3.999c.2 0 .363.112.363.251.001.138-.162.251-.363.251zM204.069 119.284h-3.999c-.201 0-.363-.113-.363-.252 0-.138.162-.251.363-.251h3.999c.2 0 .363.113.363.251.001.139-.162.252-.363.252zM204.069 120.444h-3.999c-.201 0-.363-.112-.363-.25 0-.139.162-.251.363-.251h3.999c.2 0 .363.112.363.251.001.138-.162.25-.363.25zM204.069 121.606h-3.999c-.201 0-.363-.112-.363-.251s.162-.251.363-.251h3.999c.2 0 .363.112.363.251s-.162.251-.363.251zM204.069 122.768h-3.999c-.201 0-.363-.113-.363-.251 0-.139.162-.251.363-.251h3.999c.2 0 .363.112.363.251.001.137-.162.251-.363.251zM204.069 123.928h-3.999c-.201 0-.363-.112-.363-.251 0-.138.162-.251.363-.251h3.999c.2 0 .363.113.363.251.001.138-.162.251-.363.251zM204.069 125.089h-3.999c-.201 0-.363-.112-.363-.25 0-.139.162-.251.363-.251h3.999c.2 0 .363.112.363.251.001.138-.162.25-.363.25z"/><path fill="#AB3D28" d="M200.125 107.465h.624v18.446h-.624z" opacity=".4"/><g opacity=".3"><path fill="#88603D" d="M200.125 106.222a6.86 6.86 0 0 0-13.718 0"/></g><g><path fill="#F2DFC1" d="M199.548 106.222a6.86 6.86 0 0 0-13.717 0"/></g><g><path fill="#FFF3DC" d="M185.829 127.152h14.581v.916h-14.581z"/><path fill="#F2DFC1" d="M185.829 128.068h14.581v.507h-14.581z"/><path fill="#88603D" d="M199.539 127.152h.871v1.423h-.871z" opacity=".3"/></g><g><path fill="#E3E4E5" d="M185.829 128.578h14.581v1.021h-14.581z"/></g><g><path fill="#E3E4E5" d="M204.591 106.222h1.02v20.934h-1.02z"/></g><g opacity=".3"><circle fill="#88603D" cx="192.689" cy="103.071" r="2.26"/></g><g><circle fill="#FFF3DC" cx="192.959" cy="103.342" r="1.99"/></g><g><path fill="#BB7652" d="M174.498 133.817h-13.719v-27.596h13.719v27.596zm-11.644-8.736h9.57v-16.784h-9.57v16.784z"/><path fill="#FFF3DC" d="M173.352 133.817h-11.428V107.26h11.428v26.557zm-10.498-1.094h9.57v-24.368h-9.57v24.368z"/><path fill="#726658" d="M162.854 108.297h9.57v25.521h-9.57z"/><path fill="#595045" d="M162.854 108.302h9.57v.688h-9.57z"/><path fill="#E3E4E5" d="M175.074 106.222a6.86 6.86 0 1 0-13.718 0"/><path fill="#F2DFC1" d="M174.498 106.222a6.86 6.86 0 0 0-13.718 0"/><path fill="#E3E4E5" d="M174.511 106.222h.551v27.596h-.551z"/><circle fill="#88603D" cx="167.639" cy="103.071" r="2.26" opacity=".3"/><circle fill="#FFF3DC" cx="167.909" cy="103.342" r="1.989"/></g><g><path fill="#034037" d="M174.621 122.498c.015 3.063.053 12.228-.005 12.163-.069-.078 1.604.704 1.604.704v1.018h-2.93l-.219-13.293-.906-.157.219 6.408-2.023 5.79 1.465 1.252h-2.79l-.978-1.173 3.069-6.418s-.61-4.42-.594-6.874"/></g><g><path fill="#BA9D63" d="M153.134 159.432h56.419v1.974h-56.419zM153.134 162.056h56.419v1.975h-56.419zM153.134 164.68h56.419v1.974h-56.419zM153.134 167.305h56.419v1.974h-56.419zM153.134 169.928h56.419v1.976h-56.419zM153.134 172.552h56.419v1.975h-56.419zM153.134 175.176h56.419v1.975h-56.419zM153.134 177.801h56.419v1.974h-56.419z"/></g><g><path fill="#F2DFC1" d="M154.16 131.728h55.638v.426H154.16z"/></g><g><path fill="#F2DFC1" d="M154.16 130.824h55.638v.426H154.16z"/></g><g><path fill="#FFF" d="M155.548 133.817v-6.8c-.639-.901 0-2.23 0-2.23v-2.866h-1.388v2.866s.637 1.329 0 2.23v6.8h1.388z"/></g><g><path fill="#FFF" d="M158.401 133.817v-6.8c-.637-.901 0-2.23 0-2.23v-2.866h-1.386v2.866s.637 1.329 0 2.23v6.8h1.386z"/></g><g><path fill="#FFF" d="M161.258 133.817v-6.8c-.638-.901 0-2.23 0-2.23v-2.866h-1.387v2.866s.637 1.329 0 2.23v6.8h1.387z"/></g><g><path fill="#FFF" d="M164.112 133.817v-6.8c-.638-.901 0-2.23 0-2.23v-2.866h-1.386v2.866s.636 1.329 0 2.23v6.8h1.386z"/></g><g><path fill="#FFF" d="M166.968 133.817v-6.8c-.638-.901 0-2.23 0-2.23v-2.866h-1.386v2.866s.637 1.329 0 2.23v6.8h1.386z"/></g><g><path fill="#FFF" d="M169.823 133.817v-6.8c-.638-.901 0-2.23 0-2.23v-2.866h-1.388v2.866s.639 1.329 0 2.23v6.8h1.388z"/></g><g><path fill="#FFF" d="M172.678 133.817v-6.8c-.637-.901 0-2.23 0-2.23v-2.866h-1.387v2.866s.639 1.329 0 2.23v6.8h1.387z"/></g><g><path fill="#FFF" d="M175.533 133.817v-6.8c-.637-.901 0-2.23 0-2.23v-2.866h-1.387v2.866s.639 1.329 0 2.23v6.8h1.387z"/></g><g><path fill="#FFF" d="M178.389 133.817v-6.8c-.639-.901 0-2.23 0-2.23v-2.866h-1.387v2.866s.637 1.329 0 2.23v6.8h1.387z"/></g><g><path fill="#FFF" d="M181.243 133.817v-6.8c-.638-.901 0-2.23 0-2.23v-2.866h-1.386v2.866s.637 1.329 0 2.23v6.8h1.386z"/></g><g><path fill="#FFF" d="M184.1 133.817v-6.8c-.639-.901 0-2.23 0-2.23v-2.866h-1.388v2.866s.638 1.329 0 2.23v6.8h1.388z"/></g><g><path fill="#FFF" d="M186.954 133.817v-6.8c-.638-.901 0-2.23 0-2.23v-2.866h-1.387v2.866s.638 1.329 0 2.23v6.8h1.387z"/></g><g><path fill="#FFF" d="M189.809 133.817v-6.8c-.637-.901 0-2.23 0-2.23v-2.866h-1.387v2.866s.638 1.329 0 2.23v6.8h1.387z"/></g><g><path fill="#FFF" d="M192.664 133.817v-6.8c-.637-.901 0-2.23 0-2.23v-2.866h-1.387v2.866s.637 1.329 0 2.23v6.8h1.387z"/></g><g><path fill="#FFF" d="M195.52 133.817v-6.8c-.638-.901 0-2.23 0-2.23v-2.866h-1.387v2.866s.637 1.329 0 2.23v6.8h1.387z"/></g><g><path fill="#FFF" d="M198.375 133.817v-6.8c-.638-.901 0-2.23 0-2.23v-2.866h-1.387v2.866s.638 1.329 0 2.23v6.8h1.387z"/></g><g><path fill="#FFF" d="M201.229 133.817v-6.8c-.637-.901 0-2.23 0-2.23v-2.866h-1.387v2.866s.638 1.329 0 2.23v6.8h1.387z"/></g><g><path fill="#FFF" d="M204.084 133.817v-6.8c-.636-.901 0-2.23 0-2.23v-2.866h-1.386v2.866s.637 1.329 0 2.23v6.8h1.386z"/></g><g><path fill="#FFF" d="M206.939 133.817v-6.8c-.637-.901 0-2.23 0-2.23v-2.866h-1.386v2.866s.637 1.329 0 2.23v6.8h1.386z"/></g><g><path fill="#FFF" d="M209.795 133.817v-6.8c-.637-.901 0-2.23 0-2.23v-2.866h-1.387v2.866s.638 1.329 0 2.23v6.8h1.387z"/></g><g><path fill="#BB7652" d="M209.729 122.626H153.47a.77.77 0 0 1 0-1.54h56.259a.77.77 0 0 1 0 1.54z"/></g><g><path fill="#BB7652" d="M153.134 133.817h56.664v2.763h-56.664z"/></g><g><path fill="#726658" d="M223.516 108.297h9.57v16.784h-9.57z"/><path fill="#595045" d="M223.319 108.302h9.962v.688h-9.962zM223.319 117.061h9.962v.689h-9.962z"/><path fill="#BB7652" d="M235.16 127.155h-13.72v-20.934h13.72v20.934zm-11.644-2.074h9.57v-16.784h-9.57v16.784z"/><path fill="#FFF3DC" d="M234.014 126.118h-11.427V107.26h11.427v18.858zm-10.498-1.037h9.57v-16.784h-9.57v16.784z"/><path fill="#FFF3DC" d="M227.963 107.26h.676v18.858h-.676z"/><path fill="#FFF3DC" d="M222.587 116.316h11.427v.744h-11.427z"/><path fill="#E96C49" d="M216.398 106.222h5.042v20.934h-5.042z"/><path fill="#CD5436" d="M216.974 107.465h3.892v18.446h-3.892z"/><path fill="#E96C49" d="M220.92 108.834h-4c-.201 0-.363-.112-.363-.251s.162-.251.363-.251h4c.199 0 .363.112.363.251s-.164.251-.363.251zM220.92 109.995h-4c-.201 0-.363-.113-.363-.252 0-.138.162-.25.363-.25h4c.199 0 .363.112.363.25 0 .139-.164.252-.363.252zM220.92 111.155h-4c-.201 0-.363-.112-.363-.25s.162-.251.363-.251h4c.199 0 .363.113.363.251s-.164.25-.363.25zM220.92 112.317h-4c-.201 0-.363-.113-.363-.251 0-.139.162-.251.363-.251h4c.199 0 .363.112.363.251 0 .138-.164.251-.363.251zM220.92 113.479h-4c-.201 0-.363-.113-.363-.251 0-.139.162-.251.363-.251h4c.199 0 .363.112.363.251 0 .137-.164.251-.363.251zM220.92 114.639h-4c-.201 0-.363-.112-.363-.251 0-.138.162-.251.363-.251h4c.199 0 .363.113.363.251s-.164.251-.363.251zM220.92 115.8h-4c-.201 0-.363-.112-.363-.25 0-.139.162-.251.363-.251h4c.199 0 .363.112.363.251 0 .138-.164.25-.363.25zM220.92 116.962h-4c-.201 0-.363-.113-.363-.251 0-.139.162-.251.363-.251h4c.199 0 .363.112.363.251 0 .138-.164.251-.363.251zM220.92 118.123h-4c-.201 0-.363-.113-.363-.251 0-.139.162-.251.363-.251h4c.199 0 .363.112.363.251 0 .138-.164.251-.363.251zM220.92 119.284h-4c-.201 0-.363-.113-.363-.252 0-.138.162-.251.363-.251h4c.199 0 .363.113.363.251 0 .139-.164.252-.363.252zM220.92 120.444h-4c-.201 0-.363-.112-.363-.25 0-.139.162-.251.363-.251h4c.199 0 .363.112.363.251 0 .138-.164.25-.363.25zM220.92 121.606h-4c-.201 0-.363-.112-.363-.251s.162-.251.363-.251h4c.199 0 .363.112.363.251s-.164.251-.363.251zM220.92 122.768h-4c-.201 0-.363-.113-.363-.251 0-.139.162-.251.363-.251h4c.199 0 .363.112.363.251 0 .137-.164.251-.363.251zM220.92 123.928h-4c-.201 0-.363-.112-.363-.251 0-.138.162-.251.363-.251h4c.199 0 .363.113.363.251s-.164.251-.363.251zM220.92 125.089h-4c-.201 0-.363-.112-.363-.25 0-.139.162-.251.363-.251h4c.199 0 .363.112.363.251 0 .138-.164.25-.363.25z"/><path fill="#AB3D28" d="M216.974 107.465h.626v18.446h-.626z" opacity=".4"/><g><path fill="#E96C49" d="M235.16 106.222h5.043v20.934h-5.043z"/><path fill="#CD5436" d="M235.736 107.465h3.891v18.446h-3.891z"/><path fill="#E96C49" d="M239.682 108.834h-4c-.201 0-.363-.112-.363-.251s.162-.251.363-.251h4c.199 0 .363.112.363.251s-.164.251-.363.251zM239.682 109.995h-4c-.201 0-.363-.113-.363-.252 0-.138.162-.25.363-.25h4c.199 0 .363.112.363.25 0 .139-.164.252-.363.252zM239.682 111.155h-4c-.201 0-.363-.112-.363-.25s.162-.251.363-.251h4c.199 0 .363.113.363.251s-.164.25-.363.25zM239.682 112.317h-4c-.201 0-.363-.113-.363-.251 0-.139.162-.251.363-.251h4c.199 0 .363.112.363.251 0 .138-.164.251-.363.251zM239.682 113.479h-4c-.201 0-.363-.113-.363-.251 0-.139.162-.251.363-.251h4c.199 0 .363.112.363.251 0 .137-.164.251-.363.251zM239.682 114.639h-4c-.201 0-.363-.112-.363-.251 0-.138.162-.251.363-.251h4c.199 0 .363.113.363.251s-.164.251-.363.251zM239.682 115.8h-4c-.201 0-.363-.112-.363-.25 0-.139.162-.251.363-.251h4c.199 0 .363.112.363.251 0 .138-.164.25-.363.25zM239.682 116.962h-4c-.201 0-.363-.113-.363-.251 0-.139.162-.251.363-.251h4c.199 0 .363.112.363.251 0 .138-.164.251-.363.251zM239.682 118.123h-4c-.201 0-.363-.113-.363-.251 0-.139.162-.251.363-.251h4c.199 0 .363.112.363.251 0 .138-.164.251-.363.251zM239.682 119.284h-4c-.201 0-.363-.113-.363-.252 0-.138.162-.251.363-.251h4c.199 0 .363.113.363.251 0 .139-.164.252-.363.252zM239.682 120.444h-4c-.201 0-.363-.112-.363-.25 0-.139.162-.251.363-.251h4c.199 0 .363.112.363.251 0 .138-.164.25-.363.25zM239.682 121.606h-4c-.201 0-.363-.112-.363-.251s.162-.251.363-.251h4c.199 0 .363.112.363.251s-.164.251-.363.251zM239.682 122.768h-4c-.201 0-.363-.113-.363-.251 0-.139.162-.251.363-.251h4c.199 0 .363.112.363.251 0 .137-.164.251-.363.251zM239.682 123.928h-4c-.201 0-.363-.112-.363-.251 0-.138.162-.251.363-.251h4c.199 0 .363.113.363.251s-.164.251-.363.251zM239.682 125.089h-4c-.201 0-.363-.112-.363-.25 0-.139.162-.251.363-.251h4c.199 0 .363.112.363.251 0 .138-.164.25-.363.25z"/><path fill="#AB3D28" d="M235.736 107.465h.625v18.446h-.625z" opacity=".4"/></g><g opacity=".3"><path fill="#88603D" d="M235.736 106.222a6.86 6.86 0 0 0-13.718 0"/></g><g><path fill="#F2DFC1" d="M235.16 106.222a6.86 6.86 0 0 0-13.718 0"/></g><g><path fill="#FFF3DC" d="M221.44 127.152h14.581v.916H221.44z"/><path fill="#F2DFC1" d="M221.44 128.068h14.581v.507H221.44z"/><path fill="#88603D" d="M235.151 127.152h.87v1.423h-.87z" opacity=".3"/></g><g><path fill="#E3E4E5" d="M221.44 128.578h14.581v1.021H221.44z"/></g><g><path fill="#E3E4E5" d="M240.203 106.222h1.02v20.934h-1.02z"/></g><g opacity=".3"><circle fill="#88603D" cx="228.3" cy="103.071" r="2.26"/></g><g><circle fill="#FFF3DC" cx="228.571" cy="103.342" r="1.989"/></g></g><g><path fill="#726658" d="M252.37 108.297h9.57v16.784h-9.57z"/><path fill="#595045" d="M252.174 117.061h9.962v.689h-9.962zM252.174 108.302h9.962v.688h-9.962z"/><path fill="#BB7652" d="M264.014 127.155h-13.719v-20.934h13.719v20.934zm-11.644-2.074h9.57v-16.784h-9.57v16.784z"/><path fill="#FFF3DC" d="M262.868 126.118h-11.427V107.26h11.427v18.858zm-10.498-1.037h9.57v-16.784h-9.57v16.784z"/><path fill="#E96C49" d="M245.253 106.222h5.042v20.934h-5.042z"/><path fill="#CD5436" d="M245.829 107.465h3.89v18.446h-3.89z"/><path fill="#E96C49" d="M249.773 108.834h-3.998c-.202 0-.363-.112-.363-.251s.161-.251.363-.251h3.998c.201 0 .365.112.365.251s-.163.251-.365.251zM249.773 109.995h-3.998c-.202 0-.363-.113-.363-.252 0-.138.161-.25.363-.25h3.998c.201 0 .365.112.365.25.001.139-.163.252-.365.252zM249.773 111.155h-3.998c-.202 0-.363-.112-.363-.25s.161-.251.363-.251h3.998c.201 0 .365.113.365.251s-.163.25-.365.25zM249.773 112.317h-3.998c-.202 0-.363-.113-.363-.251 0-.139.161-.251.363-.251h3.998c.201 0 .365.112.365.251.001.138-.163.251-.365.251zM249.773 113.479h-3.998c-.202 0-.363-.113-.363-.251 0-.139.161-.251.363-.251h3.998c.201 0 .365.112.365.251.001.137-.163.251-.365.251zM249.773 114.639h-3.998c-.202 0-.363-.112-.363-.251 0-.138.161-.251.363-.251h3.998c.201 0 .365.113.365.251.001.138-.163.251-.365.251zM249.773 115.8h-3.998c-.202 0-.363-.112-.363-.25 0-.139.161-.251.363-.251h3.998c.201 0 .365.112.365.251.001.138-.163.25-.365.25zM249.773 116.962h-3.998c-.202 0-.363-.113-.363-.251 0-.139.161-.251.363-.251h3.998c.201 0 .365.112.365.251.001.138-.163.251-.365.251zM249.773 118.123h-3.998c-.202 0-.363-.113-.363-.251 0-.139.161-.251.363-.251h3.998c.201 0 .365.112.365.251.001.138-.163.251-.365.251zM249.773 119.284h-3.998c-.202 0-.363-.113-.363-.252 0-.138.161-.251.363-.251h3.998c.201 0 .365.113.365.251.001.139-.163.252-.365.252zM249.773 120.444h-3.998c-.202 0-.363-.112-.363-.25 0-.139.161-.251.363-.251h3.998c.201 0 .365.112.365.251.001.138-.163.25-.365.25zM249.773 121.606h-3.998c-.202 0-.363-.112-.363-.251s.161-.251.363-.251h3.998c.201 0 .365.112.365.251s-.163.251-.365.251zM249.773 122.768h-3.998c-.202 0-.363-.113-.363-.251 0-.139.161-.251.363-.251h3.998c.201 0 .365.112.365.251.001.137-.163.251-.365.251zM249.773 123.928h-3.998c-.202 0-.363-.112-.363-.251 0-.138.161-.251.363-.251h3.998c.201 0 .365.113.365.251.001.138-.163.251-.365.251zM249.773 125.089h-3.998c-.202 0-.363-.112-.363-.25 0-.139.161-.251.363-.251h3.998c.201 0 .365.112.365.251.001.138-.163.25-.365.25z"/><path fill="#AB3D28" d="M245.829 107.465h.626v18.446h-.626z" opacity=".4"/><g><path fill="#E96C49" d="M264.014 106.222h5.044v20.934h-5.044z"/><path fill="#CD5436" d="M264.591 107.465h3.89v18.446h-3.89z"/><path fill="#E96C49" d="M268.535 108.834h-3.998c-.202 0-.363-.112-.363-.251s.161-.251.363-.251h3.998c.201 0 .363.112.363.251s-.162.251-.363.251zM268.535 109.995h-3.998c-.202 0-.363-.113-.363-.252 0-.138.161-.25.363-.25h3.998c.201 0 .363.112.363.25 0 .139-.162.252-.363.252zM268.535 111.155h-3.998c-.202 0-.363-.112-.363-.25s.161-.251.363-.251h3.998c.201 0 .363.113.363.251s-.162.25-.363.25zM268.535 112.317h-3.998c-.202 0-.363-.113-.363-.251 0-.139.161-.251.363-.251h3.998c.201 0 .363.112.363.251 0 .138-.162.251-.363.251zM268.535 113.479h-3.998c-.202 0-.363-.113-.363-.251 0-.139.161-.251.363-.251h3.998c.201 0 .363.112.363.251 0 .137-.162.251-.363.251zM268.535 114.639h-3.998c-.202 0-.363-.112-.363-.251 0-.138.161-.251.363-.251h3.998c.201 0 .363.113.363.251s-.162.251-.363.251zM268.535 115.8h-3.998c-.202 0-.363-.112-.363-.25 0-.139.161-.251.363-.251h3.998c.201 0 .363.112.363.251 0 .138-.162.25-.363.25zM268.535 116.962h-3.998c-.202 0-.363-.113-.363-.251 0-.139.161-.251.363-.251h3.998c.201 0 .363.112.363.251 0 .138-.162.251-.363.251zM268.535 118.123h-3.998c-.202 0-.363-.113-.363-.251 0-.139.161-.251.363-.251h3.998c.201 0 .363.112.363.251 0 .138-.162.251-.363.251zM268.535 119.284h-3.998c-.202 0-.363-.113-.363-.252 0-.138.161-.251.363-.251h3.998c.201 0 .363.113.363.251 0 .139-.162.252-.363.252zM268.535 120.444h-3.998c-.202 0-.363-.112-.363-.25 0-.139.161-.251.363-.251h3.998c.201 0 .363.112.363.251 0 .138-.162.25-.363.25zM268.535 121.606h-3.998c-.202 0-.363-.112-.363-.251s.161-.251.363-.251h3.998c.201 0 .363.112.363.251s-.162.251-.363.251zM268.535 122.768h-3.998c-.202 0-.363-.113-.363-.251 0-.139.161-.251.363-.251h3.998c.201 0 .363.112.363.251 0 .137-.162.251-.363.251zM268.535 123.928h-3.998c-.202 0-.363-.112-.363-.251 0-.138.161-.251.363-.251h3.998c.201 0 .363.113.363.251s-.162.251-.363.251zM268.535 125.089h-3.998c-.202 0-.363-.112-.363-.25 0-.139.161-.251.363-.251h3.998c.201 0 .363.112.363.251 0 .138-.162.25-.363.25z"/><path fill="#AB3D28" d="M264.591 107.465h.624v18.446h-.624z" opacity=".4"/></g><g opacity=".3"><path fill="#88603D" d="M264.591 106.222a6.86 6.86 0 0 0-13.718 0"/></g><g><path fill="#F2DFC1" d="M264.014 106.222a6.86 6.86 0 1 0-13.718 0"/></g><g><path fill="#FFF3DC" d="M250.295 127.152h14.581v.916h-14.581z"/><path fill="#F2DFC1" d="M250.295 128.068h14.581v.507h-14.581z"/><path fill="#88603D" d="M264.006 127.152h.87v1.423h-.87z" opacity=".3"/></g><g><path fill="#E3E4E5" d="M250.295 128.578h14.581v1.021h-14.581z"/></g><g><path fill="#E3E4E5" d="M269.057 106.222h1.02v20.934h-1.02z"/></g><g opacity=".3"><circle fill="#88603D" cx="257.155" cy="103.071" r="2.26"/></g><g><circle fill="#FFF3DC" cx="257.425" cy="103.342" r="1.99"/></g><g><path fill="#FFF3DC" d="M256.818 107.26h.674v18.858h-.674z"/></g><g><path fill="#FFF3DC" d="M251.441 116.316h11.427v.744h-11.427z"/></g></g><g><path fill="#726658" d="M281.226 108.297h9.569v16.784h-9.569z"/><path fill="#595045" d="M281.029 117.061h9.962v.689h-9.962zM281.029 108.302h9.961v.688h-9.961z"/><path fill="#BB7652" d="M292.868 127.155H279.15v-20.934h13.718v20.934zm-11.642-2.074h9.569v-16.784h-9.569v16.784z"/><path fill="#FFF3DC" d="M291.724 126.118h-11.428V107.26h11.428v18.858zm-10.498-1.037h9.569v-16.784h-9.569v16.784z"/><path fill="#E96C49" d="M274.108 106.222h5.042v20.934h-5.042z"/><path fill="#CD5436" d="M274.684 107.465h3.891v18.446h-3.891z"/><path fill="#E96C49" d="M278.629 108.834h-4c-.201 0-.363-.112-.363-.251s.162-.251.363-.251h4c.2 0 .364.112.364.251s-.164.251-.364.251zM278.629 109.995h-4c-.201 0-.363-.113-.363-.252 0-.138.162-.25.363-.25h4c.2 0 .364.112.364.25 0 .139-.164.252-.364.252zM278.629 111.155h-4c-.201 0-.363-.112-.363-.25s.162-.251.363-.251h4c.2 0 .364.113.364.251s-.164.25-.364.25zM278.629 112.317h-4c-.201 0-.363-.113-.363-.251 0-.139.162-.251.363-.251h4c.2 0 .364.112.364.251 0 .138-.164.251-.364.251zM278.629 113.479h-4c-.201 0-.363-.113-.363-.251 0-.139.162-.251.363-.251h4c.2 0 .364.112.364.251 0 .137-.164.251-.364.251zM278.629 114.639h-4c-.201 0-.363-.112-.363-.251 0-.138.162-.251.363-.251h4c.2 0 .364.113.364.251s-.164.251-.364.251zM278.629 115.8h-4c-.201 0-.363-.112-.363-.25 0-.139.162-.251.363-.251h4c.2 0 .364.112.364.251 0 .138-.164.25-.364.25zM278.629 116.962h-4c-.201 0-.363-.113-.363-.251 0-.139.162-.251.363-.251h4c.2 0 .364.112.364.251 0 .138-.164.251-.364.251zM278.629 118.123h-4c-.201 0-.363-.113-.363-.251 0-.139.162-.251.363-.251h4c.2 0 .364.112.364.251 0 .138-.164.251-.364.251zM278.629 119.284h-4c-.201 0-.363-.113-.363-.252 0-.138.162-.251.363-.251h4c.2 0 .364.113.364.251 0 .139-.164.252-.364.252zM278.629 120.444h-4c-.201 0-.363-.112-.363-.25 0-.139.162-.251.363-.251h4c.2 0 .364.112.364.251 0 .138-.164.25-.364.25zM278.629 121.606h-4c-.201 0-.363-.112-.363-.251s.162-.251.363-.251h4c.2 0 .364.112.364.251s-.164.251-.364.251zM278.629 122.768h-4c-.201 0-.363-.113-.363-.251 0-.139.162-.251.363-.251h4c.2 0 .364.112.364.251 0 .137-.164.251-.364.251zM278.629 123.928h-4c-.201 0-.363-.112-.363-.251 0-.138.162-.251.363-.251h4c.2 0 .364.113.364.251s-.164.251-.364.251zM278.629 125.089h-4c-.201 0-.363-.112-.363-.25 0-.139.162-.251.363-.251h4c.2 0 .364.112.364.251 0 .138-.164.25-.364.25z"/><path fill="#AB3D28" d="M274.684 107.465h.625v18.446h-.625z" opacity=".4"/><g><path fill="#E96C49" d="M292.868 106.222h5.044v20.934h-5.044z"/><path fill="#CD5436" d="M293.445 107.465h3.891v18.446h-3.891z"/><path fill="#E96C49" d="M297.391 108.834h-3.999c-.202 0-.363-.112-.363-.251s.161-.251.363-.251h3.999c.199 0 .363.112.363.251s-.164.251-.363.251zM297.391 109.995h-3.999c-.202 0-.363-.113-.363-.252 0-.138.161-.25.363-.25h3.999c.199 0 .363.112.363.25 0 .139-.164.252-.363.252zM297.391 111.155h-3.999c-.202 0-.363-.112-.363-.25s.161-.251.363-.251h3.999c.199 0 .363.113.363.251s-.164.25-.363.25zM297.391 112.317h-3.999c-.202 0-.363-.113-.363-.251 0-.139.161-.251.363-.251h3.999c.199 0 .363.112.363.251 0 .138-.164.251-.363.251zM297.391 113.479h-3.999c-.202 0-.363-.113-.363-.251 0-.139.161-.251.363-.251h3.999c.199 0 .363.112.363.251 0 .137-.164.251-.363.251zM297.391 114.639h-3.999c-.202 0-.363-.112-.363-.251 0-.138.161-.251.363-.251h3.999c.199 0 .363.113.363.251s-.164.251-.363.251zM297.391 115.8h-3.999c-.202 0-.363-.112-.363-.25 0-.139.161-.251.363-.251h3.999c.199 0 .363.112.363.251 0 .138-.164.25-.363.25zM297.391 116.962h-3.999c-.202 0-.363-.113-.363-.251 0-.139.161-.251.363-.251h3.999c.199 0 .363.112.363.251 0 .138-.164.251-.363.251zM297.391 118.123h-3.999c-.202 0-.363-.113-.363-.251 0-.139.161-.251.363-.251h3.999c.199 0 .363.112.363.251 0 .138-.164.251-.363.251zM297.391 119.284h-3.999c-.202 0-.363-.113-.363-.252 0-.138.161-.251.363-.251h3.999c.199 0 .363.113.363.251 0 .139-.164.252-.363.252zM297.391 120.444h-3.999c-.202 0-.363-.112-.363-.25 0-.139.161-.251.363-.251h3.999c.199 0 .363.112.363.251 0 .138-.164.25-.363.25zM297.391 121.606h-3.999c-.202 0-.363-.112-.363-.251s.161-.251.363-.251h3.999c.199 0 .363.112.363.251s-.164.251-.363.251zM297.391 122.768h-3.999c-.202 0-.363-.113-.363-.251 0-.139.161-.251.363-.251h3.999c.199 0 .363.112.363.251 0 .137-.164.251-.363.251zM297.391 123.928h-3.999c-.202 0-.363-.112-.363-.251 0-.138.161-.251.363-.251h3.999c.199 0 .363.113.363.251s-.164.251-.363.251zM297.391 125.089h-3.999c-.202 0-.363-.112-.363-.25 0-.139.161-.251.363-.251h3.999c.199 0 .363.112.363.251 0 .138-.164.25-.363.25z"/><path fill="#AB3D28" d="M293.445 107.465h.625v18.446h-.625z" opacity=".4"/></g><g opacity=".3"><path fill="#88603D" d="M293.445 106.222a6.86 6.86 0 0 0-13.717 0"/></g><g><path fill="#F2DFC1" d="M292.868 106.222a6.858 6.858 0 1 0-13.717 0"/></g><g><path fill="#FFF3DC" d="M279.15 127.152h14.58v.916h-14.58z"/><path fill="#F2DFC1" d="M279.15 128.068h14.58v.507h-14.58z"/><path fill="#88603D" d="M292.859 127.152h.871v1.423h-.871z" opacity=".3"/></g><g><path fill="#E3E4E5" d="M279.15 128.578h14.58v1.021h-14.58z"/></g><g><path fill="#E3E4E5" d="M297.912 106.222h1.02v20.934h-1.02z"/></g><g opacity=".3"><circle fill="#88603D" cx="286.01" cy="103.071" r="2.26"/></g><g><circle fill="#FFF3DC" cx="286.281" cy="103.342" r="1.99"/></g><g><path fill="#FFF3DC" d="M285.673 107.26h.675v18.858h-.675z"/></g><g><path fill="#FFF3DC" d="M280.296 116.316h11.428v.744h-11.428z"/></g></g><g><path fill="#726658" d="M223.516 148.986h9.57v16.784h-9.57z"/><path fill="#595045" d="M223.319 157.751h9.962v.688h-9.962zM223.319 148.991h9.962v.688h-9.962z"/><path fill="#BB7652" d="M235.16 167.845h-13.72v-20.934h13.72v20.934zm-11.644-2.074h9.57v-16.784h-9.57v16.784z"/><path fill="#FFF3DC" d="M234.014 166.807h-11.427v-18.858h11.427v18.858zm-10.498-1.036h9.57v-16.784h-9.57v16.784z"/><path fill="#E96C49" d="M216.398 146.911h5.042v20.934h-5.042z"/><path fill="#CD5436" d="M216.974 148.155h3.892v18.446h-3.892z"/><path fill="#E96C49" d="M220.92 149.522h-4c-.201 0-.363-.112-.363-.25 0-.139.162-.252.363-.252h4c.199 0 .363.113.363.252 0 .138-.164.25-.363.25zM220.92 150.685h-4c-.201 0-.363-.113-.363-.251s.162-.251.363-.251h4c.199 0 .363.113.363.251s-.164.251-.363.251zM220.92 151.846h-4c-.201 0-.363-.112-.363-.252 0-.138.162-.25.363-.25h4c.199 0 .363.112.363.25 0 .139-.164.252-.363.252zM220.92 153.007h-4c-.201 0-.363-.113-.363-.251 0-.14.162-.252.363-.252h4c.199 0 .363.112.363.252 0 .138-.164.251-.363.251zM220.92 154.168h-4c-.201 0-.363-.112-.363-.252 0-.137.162-.249.363-.249h4c.199 0 .363.112.363.249 0 .14-.164.252-.363.252zM220.92 155.33h-4c-.201 0-.363-.114-.363-.251 0-.14.162-.252.363-.252h4c.199 0 .363.112.363.252 0 .137-.164.251-.363.251zM220.92 156.49h-4c-.201 0-.363-.113-.363-.251s.162-.252.363-.252h4c.199 0 .363.114.363.252s-.164.251-.363.251zM220.92 157.651h-4c-.201 0-.363-.112-.363-.252 0-.138.162-.25.363-.25h4c.199 0 .363.112.363.25 0 .14-.164.252-.363.252zM220.92 158.813h-4c-.201 0-.363-.113-.363-.251 0-.139.162-.252.363-.252h4c.199 0 .363.113.363.252 0 .137-.164.251-.363.251zM220.92 159.974h-4c-.201 0-.363-.113-.363-.251s.162-.252.363-.252h4c.199 0 .363.114.363.252s-.164.251-.363.251zM220.92 161.135h-4c-.201 0-.363-.112-.363-.251s.162-.251.363-.251h4c.199 0 .363.112.363.251s-.164.251-.363.251zM220.92 162.296h-4c-.201 0-.363-.112-.363-.251 0-.14.162-.252.363-.252h4c.199 0 .363.112.363.252 0 .139-.164.251-.363.251zM220.92 163.457h-4c-.201 0-.363-.112-.363-.251 0-.138.162-.25.363-.25h4c.199 0 .363.112.363.25 0 .139-.164.251-.363.251zM220.92 164.619h-4c-.201 0-.363-.114-.363-.252 0-.139.162-.251.363-.251h4c.199 0 .363.112.363.251 0 .138-.164.252-.363.252zM220.92 165.779h-4c-.201 0-.363-.112-.363-.251 0-.138.162-.252.363-.252h4c.199 0 .363.114.363.252 0 .139-.164.251-.363.251z"/><path fill="#AB3D28" d="M216.974 148.155h.626v18.446h-.626z" opacity=".4"/><g><path fill="#E96C49" d="M235.16 146.911h5.043v20.934h-5.043z"/><path fill="#CD5436" d="M235.736 148.155h3.891v18.446h-3.891z"/><path fill="#E96C49" d="M239.682 149.522h-4c-.201 0-.363-.112-.363-.25 0-.139.162-.252.363-.252h4c.199 0 .363.113.363.252 0 .138-.164.25-.363.25zM239.682 150.685h-4c-.201 0-.363-.113-.363-.251s.162-.251.363-.251h4c.199 0 .363.113.363.251s-.164.251-.363.251zM239.682 151.846h-4c-.201 0-.363-.112-.363-.252 0-.138.162-.25.363-.25h4c.199 0 .363.112.363.25 0 .139-.164.252-.363.252zM239.682 153.007h-4c-.201 0-.363-.113-.363-.251 0-.14.162-.252.363-.252h4c.199 0 .363.112.363.252 0 .138-.164.251-.363.251zM239.682 154.168h-4c-.201 0-.363-.112-.363-.252 0-.137.162-.249.363-.249h4c.199 0 .363.112.363.249 0 .14-.164.252-.363.252zM239.682 155.33h-4c-.201 0-.363-.114-.363-.251 0-.14.162-.252.363-.252h4c.199 0 .363.112.363.252 0 .137-.164.251-.363.251zM239.682 156.49h-4c-.201 0-.363-.113-.363-.251s.162-.252.363-.252h4c.199 0 .363.114.363.252s-.164.251-.363.251zM239.682 157.651h-4c-.201 0-.363-.112-.363-.252 0-.138.162-.25.363-.25h4c.199 0 .363.112.363.25 0 .14-.164.252-.363.252zM239.682 158.813h-4c-.201 0-.363-.113-.363-.251 0-.139.162-.252.363-.252h4c.199 0 .363.113.363.252 0 .137-.164.251-.363.251zM239.682 159.974h-4c-.201 0-.363-.113-.363-.251s.162-.252.363-.252h4c.199 0 .363.114.363.252s-.164.251-.363.251zM239.682 161.135h-4c-.201 0-.363-.112-.363-.251s.162-.251.363-.251h4c.199 0 .363.112.363.251s-.164.251-.363.251zM239.682 162.296h-4c-.201 0-.363-.112-.363-.251 0-.14.162-.252.363-.252h4c.199 0 .363.112.363.252 0 .139-.164.251-.363.251zM239.682 163.457h-4c-.201 0-.363-.112-.363-.251 0-.138.162-.25.363-.25h4c.199 0 .363.112.363.25 0 .139-.164.251-.363.251zM239.682 164.619h-4c-.201 0-.363-.114-.363-.252 0-.139.162-.251.363-.251h4c.199 0 .363.112.363.251 0 .138-.164.252-.363.252zM239.682 165.779h-4c-.201 0-.363-.112-.363-.251 0-.138.162-.252.363-.252h4c.199 0 .363.114.363.252 0 .139-.164.251-.363.251z"/><path fill="#AB3D28" d="M235.736 148.155h.625v18.446h-.625z" opacity=".4"/></g><g opacity=".3"><path fill="#88603D" d="M235.736 146.911a6.859 6.859 0 0 0-13.718 0"/></g><g><path fill="#F2DFC1" d="M235.16 146.911c0-3.788-3.071-6.858-6.859-6.858s-6.859 3.07-6.859 6.858"/></g><g><path fill="#FFF3DC" d="M221.44 167.841h14.581v.918H221.44z"/><path fill="#F2DFC1" d="M221.44 168.759h14.581v.507H221.44z"/><path fill="#88603D" d="M235.151 167.841h.87v1.425h-.87z" opacity=".3"/></g><g><path fill="#E3E4E5" d="M221.44 169.268h14.581v1.021H221.44z"/></g><g><path fill="#E3E4E5" d="M240.203 146.911h1.02v20.934h-1.02z"/></g><g opacity=".3"><circle fill="#88603D" cx="228.3" cy="143.761" r="2.26"/></g><g><circle fill="#FFF3DC" cx="228.571" cy="144.031" r="1.989"/></g><g><path fill="#FFF3DC" d="M227.963 147.948h.674v18.858h-.674z"/></g><g><path fill="#FFF3DC" d="M222.587 157.007h11.427v.744h-11.427z"/></g></g><g><path fill="#726658" d="M163.142 148.986h9.57v16.784h-9.57z"/><path fill="#595045" d="M162.945 157.751h9.961v.688h-9.961zM162.945 148.991h9.962v.688h-9.962z"/><path fill="#BB7652" d="M174.785 167.845h-13.719v-20.934h13.719v20.934zm-11.643-2.074h9.57v-16.784h-9.57v16.784z"/><path fill="#FFF3DC" d="M173.64 166.807h-11.427v-18.858h11.427v18.858zm-10.498-1.036h9.57v-16.784h-9.57v16.784z"/><path fill="#E96C49" d="M156.024 146.911h5.042v20.934h-5.042z"/><path fill="#CD5436" d="M156.6 148.155h3.891v18.446H156.6z"/><path fill="#E96C49" d="M160.546 149.522h-3.999c-.203 0-.363-.112-.363-.25 0-.139.16-.252.363-.252h3.999c.2 0 .363.113.363.252 0 .138-.163.25-.363.25zM160.546 150.685h-3.999c-.203 0-.363-.113-.363-.251s.16-.251.363-.251h3.999c.2 0 .363.113.363.251s-.163.251-.363.251zM160.546 151.846h-3.999c-.203 0-.363-.112-.363-.252 0-.138.16-.25.363-.25h3.999c.2 0 .363.112.363.25 0 .139-.163.252-.363.252zM160.546 153.007h-3.999c-.203 0-.363-.113-.363-.251 0-.14.16-.252.363-.252h3.999c.2 0 .363.112.363.252 0 .138-.163.251-.363.251zM160.546 154.168h-3.999c-.203 0-.363-.112-.363-.252 0-.137.16-.249.363-.249h3.999c.2 0 .363.112.363.249 0 .14-.163.252-.363.252zM160.546 155.33h-3.999c-.203 0-.363-.114-.363-.251 0-.14.16-.252.363-.252h3.999c.2 0 .363.112.363.252 0 .137-.163.251-.363.251zM160.546 156.49h-3.999c-.203 0-.363-.113-.363-.251s.16-.252.363-.252h3.999c.2 0 .363.114.363.252s-.163.251-.363.251zM160.546 157.651h-3.999c-.203 0-.363-.112-.363-.252 0-.138.16-.25.363-.25h3.999c.2 0 .363.112.363.25 0 .14-.163.252-.363.252zM160.546 158.813h-3.999c-.203 0-.363-.113-.363-.251 0-.139.16-.252.363-.252h3.999c.2 0 .363.113.363.252 0 .137-.163.251-.363.251zM160.546 159.974h-3.999c-.203 0-.363-.113-.363-.251s.16-.252.363-.252h3.999c.2 0 .363.114.363.252s-.163.251-.363.251zM160.546 161.135h-3.999c-.203 0-.363-.112-.363-.251s.16-.251.363-.251h3.999c.2 0 .363.112.363.251s-.163.251-.363.251zM160.546 162.296h-3.999c-.203 0-.363-.112-.363-.251 0-.14.16-.252.363-.252h3.999c.2 0 .363.112.363.252 0 .139-.163.251-.363.251zM160.546 163.457h-3.999c-.203 0-.363-.112-.363-.251 0-.138.16-.25.363-.25h3.999c.2 0 .363.112.363.25 0 .139-.163.251-.363.251zM160.546 164.619h-3.999c-.203 0-.363-.114-.363-.252 0-.139.16-.251.363-.251h3.999c.2 0 .363.112.363.251 0 .138-.163.252-.363.252zM160.546 165.779h-3.999c-.203 0-.363-.112-.363-.251 0-.138.16-.252.363-.252h3.999c.2 0 .363.114.363.252 0 .139-.163.251-.363.251z"/><path fill="#AB3D28" d="M156.6 148.155h.626v18.446h-.626z" opacity=".4"/><g><path fill="#E96C49" d="M174.785 146.911h5.043v20.934h-5.043z"/><path fill="#CD5436" d="M175.361 148.155h3.892v18.446h-3.892z"/><path fill="#E96C49" d="M179.307 149.522h-3.999c-.201 0-.363-.112-.363-.25 0-.139.162-.252.363-.252h3.999c.201 0 .363.113.363.252 0 .138-.162.25-.363.25zM179.307 150.685h-3.999c-.201 0-.363-.113-.363-.251s.162-.251.363-.251h3.999c.201 0 .363.113.363.251s-.162.251-.363.251zM179.307 151.846h-3.999c-.201 0-.363-.112-.363-.252 0-.138.162-.25.363-.25h3.999c.201 0 .363.112.363.25 0 .139-.162.252-.363.252zM179.307 153.007h-3.999c-.201 0-.363-.113-.363-.251 0-.14.162-.252.363-.252h3.999c.201 0 .363.112.363.252 0 .138-.162.251-.363.251zM179.307 154.168h-3.999c-.201 0-.363-.112-.363-.252 0-.137.162-.249.363-.249h3.999c.201 0 .363.112.363.249 0 .14-.162.252-.363.252zM179.307 155.33h-3.999c-.201 0-.363-.114-.363-.251 0-.14.162-.252.363-.252h3.999c.201 0 .363.112.363.252 0 .137-.162.251-.363.251zM179.307 156.49h-3.999c-.201 0-.363-.113-.363-.251s.162-.252.363-.252h3.999c.201 0 .363.114.363.252s-.162.251-.363.251zM179.307 157.651h-3.999c-.201 0-.363-.112-.363-.252 0-.138.162-.25.363-.25h3.999c.201 0 .363.112.363.25 0 .14-.162.252-.363.252zM179.307 158.813h-3.999c-.201 0-.363-.113-.363-.251 0-.139.162-.252.363-.252h3.999c.201 0 .363.113.363.252 0 .137-.162.251-.363.251zM179.307 159.974h-3.999c-.201 0-.363-.113-.363-.251s.162-.252.363-.252h3.999c.201 0 .363.114.363.252s-.162.251-.363.251zM179.307 161.135h-3.999c-.201 0-.363-.112-.363-.251s.162-.251.363-.251h3.999c.201 0 .363.112.363.251s-.162.251-.363.251zM179.307 162.296h-3.999c-.201 0-.363-.112-.363-.251 0-.14.162-.252.363-.252h3.999c.201 0 .363.112.363.252 0 .139-.162.251-.363.251zM179.307 163.457h-3.999c-.201 0-.363-.112-.363-.251 0-.138.162-.25.363-.25h3.999c.201 0 .363.112.363.25 0 .139-.162.251-.363.251zM179.307 164.619h-3.999c-.201 0-.363-.114-.363-.252 0-.139.162-.251.363-.251h3.999c.201 0 .363.112.363.251 0 .138-.162.252-.363.252zM179.307 165.779h-3.999c-.201 0-.363-.112-.363-.251 0-.138.162-.252.363-.252h3.999c.201 0 .363.114.363.252 0 .139-.162.251-.363.251z"/><path fill="#AB3D28" d="M175.361 148.155h.625v18.446h-.625z" opacity=".4"/></g><g opacity=".3"><path fill="#88603D" d="M175.361 146.911a6.858 6.858 0 0 0-6.859-6.858 6.857 6.857 0 0 0-6.857 6.858"/></g><g><path fill="#F2DFC1" d="M174.785 146.911a6.86 6.86 0 0 0-13.718 0"/></g><g><path fill="#FFF3DC" d="M161.066 167.841h14.58v.918h-14.58z"/><path fill="#F2DFC1" d="M161.066 168.759h14.58v.507h-14.58z"/><path fill="#88603D" d="M174.777 167.841h.869v1.425h-.869z" opacity=".3"/></g><g><path fill="#E3E4E5" d="M161.066 169.268h14.58v1.021h-14.58z"/></g><g><path fill="#E3E4E5" d="M179.828 146.911h1.02v20.934h-1.02z"/></g><g opacity=".3"><circle fill="#88603D" cx="167.927" cy="143.761" r="2.26"/></g><g><circle fill="#FFF3DC" cx="168.197" cy="144.031" r="1.99"/></g><g><path fill="#FFF3DC" d="M167.59 147.948h.673v18.858h-.673z"/></g><g><path fill="#FFF3DC" d="M162.213 157.007h11.427v.744h-11.427z"/></g></g><g><path fill="#726658" d="M252.37 148.986h9.57v16.784h-9.57z"/><path fill="#595045" d="M252.174 157.751h9.962v.688h-9.962zM252.174 148.991h9.962v.688h-9.962z"/><path fill="#BB7652" d="M264.014 167.845h-13.719v-20.934h13.719v20.934zm-11.644-2.074h9.57v-16.784h-9.57v16.784z"/><path fill="#FFF3DC" d="M262.868 166.807h-11.427v-18.858h11.427v18.858zm-10.498-1.036h9.57v-16.784h-9.57v16.784z"/><path fill="#E96C49" d="M245.253 146.911h5.042v20.934h-5.042z"/><path fill="#CD5436" d="M245.829 148.155h3.89v18.446h-3.89z"/><path fill="#E96C49" d="M249.773 149.522h-3.998c-.202 0-.363-.112-.363-.25 0-.139.161-.252.363-.252h3.998c.201 0 .365.113.365.252.001.138-.163.25-.365.25zM249.773 150.685h-3.998c-.202 0-.363-.113-.363-.251s.161-.251.363-.251h3.998c.201 0 .365.113.365.251s-.163.251-.365.251zM249.773 151.846h-3.998c-.202 0-.363-.112-.363-.252 0-.138.161-.25.363-.25h3.998c.201 0 .365.112.365.25.001.139-.163.252-.365.252zM249.773 153.007h-3.998c-.202 0-.363-.113-.363-.251 0-.14.161-.252.363-.252h3.998c.201 0 .365.112.365.252.001.138-.163.251-.365.251zM249.773 154.168h-3.998c-.202 0-.363-.112-.363-.252 0-.137.161-.249.363-.249h3.998c.201 0 .365.112.365.249.001.14-.163.252-.365.252zM249.773 155.33h-3.998c-.202 0-.363-.114-.363-.251 0-.14.161-.252.363-.252h3.998c.201 0 .365.112.365.252.001.137-.163.251-.365.251zM249.773 156.49h-3.998c-.202 0-.363-.113-.363-.251s.161-.252.363-.252h3.998c.201 0 .365.114.365.252s-.163.251-.365.251zM249.773 157.651h-3.998c-.202 0-.363-.112-.363-.252 0-.138.161-.25.363-.25h3.998c.201 0 .365.112.365.25.001.14-.163.252-.365.252zM249.773 158.813h-3.998c-.202 0-.363-.113-.363-.251 0-.139.161-.252.363-.252h3.998c.201 0 .365.113.365.252.001.137-.163.251-.365.251zM249.773 159.974h-3.998c-.202 0-.363-.113-.363-.251s.161-.252.363-.252h3.998c.201 0 .365.114.365.252s-.163.251-.365.251zM249.773 161.135h-3.998c-.202 0-.363-.112-.363-.251s.161-.251.363-.251h3.998c.201 0 .365.112.365.251s-.163.251-.365.251zM249.773 162.296h-3.998c-.202 0-.363-.112-.363-.251 0-.14.161-.252.363-.252h3.998c.201 0 .365.112.365.252.001.139-.163.251-.365.251zM249.773 163.457h-3.998c-.202 0-.363-.112-.363-.251 0-.138.161-.25.363-.25h3.998c.201 0 .365.112.365.25.001.139-.163.251-.365.251zM249.773 164.619h-3.998c-.202 0-.363-.114-.363-.252 0-.139.161-.251.363-.251h3.998c.201 0 .365.112.365.251.001.138-.163.252-.365.252zM249.773 165.779h-3.998c-.202 0-.363-.112-.363-.251 0-.138.161-.252.363-.252h3.998c.201 0 .365.114.365.252.001.139-.163.251-.365.251z"/><path fill="#AB3D28" d="M245.829 148.155h.626v18.446h-.626z" opacity=".4"/><g><path fill="#E96C49" d="M264.014 146.911h5.044v20.934h-5.044z"/><path fill="#CD5436" d="M264.591 148.155h3.89v18.446h-3.89z"/><path fill="#E96C49" d="M268.535 149.522h-3.998c-.202 0-.363-.112-.363-.25 0-.139.161-.252.363-.252h3.998c.201 0 .363.113.363.252 0 .138-.162.25-.363.25zM268.535 150.685h-3.998c-.202 0-.363-.113-.363-.251s.161-.251.363-.251h3.998c.201 0 .363.113.363.251s-.162.251-.363.251zM268.535 151.846h-3.998c-.202 0-.363-.112-.363-.252 0-.138.161-.25.363-.25h3.998c.201 0 .363.112.363.25 0 .139-.162.252-.363.252zM268.535 153.007h-3.998c-.202 0-.363-.113-.363-.251 0-.14.161-.252.363-.252h3.998c.201 0 .363.112.363.252 0 .138-.162.251-.363.251zM268.535 154.168h-3.998c-.202 0-.363-.112-.363-.252 0-.137.161-.249.363-.249h3.998c.201 0 .363.112.363.249 0 .14-.162.252-.363.252zM268.535 155.33h-3.998c-.202 0-.363-.114-.363-.251 0-.14.161-.252.363-.252h3.998c.201 0 .363.112.363.252 0 .137-.162.251-.363.251zM268.535 156.49h-3.998c-.202 0-.363-.113-.363-.251s.161-.252.363-.252h3.998c.201 0 .363.114.363.252s-.162.251-.363.251zM268.535 157.651h-3.998c-.202 0-.363-.112-.363-.252 0-.138.161-.25.363-.25h3.998c.201 0 .363.112.363.25 0 .14-.162.252-.363.252zM268.535 158.813h-3.998c-.202 0-.363-.113-.363-.251 0-.139.161-.252.363-.252h3.998c.201 0 .363.113.363.252 0 .137-.162.251-.363.251zM268.535 159.974h-3.998c-.202 0-.363-.113-.363-.251s.161-.252.363-.252h3.998c.201 0 .363.114.363.252s-.162.251-.363.251zM268.535 161.135h-3.998c-.202 0-.363-.112-.363-.251s.161-.251.363-.251h3.998c.201 0 .363.112.363.251s-.162.251-.363.251zM268.535 162.296h-3.998c-.202 0-.363-.112-.363-.251 0-.14.161-.252.363-.252h3.998c.201 0 .363.112.363.252 0 .139-.162.251-.363.251zM268.535 163.457h-3.998c-.202 0-.363-.112-.363-.251 0-.138.161-.25.363-.25h3.998c.201 0 .363.112.363.25 0 .139-.162.251-.363.251zM268.535 164.619h-3.998c-.202 0-.363-.114-.363-.252 0-.139.161-.251.363-.251h3.998c.201 0 .363.112.363.251 0 .138-.162.252-.363.252zM268.535 165.779h-3.998c-.202 0-.363-.112-.363-.251 0-.138.161-.252.363-.252h3.998c.201 0 .363.114.363.252 0 .139-.162.251-.363.251z"/><path fill="#AB3D28" d="M264.591 148.155h.624v18.446h-.624z" opacity=".4"/></g><g opacity=".3"><path fill="#88603D" d="M264.591 146.911c0-3.788-3.071-6.858-6.859-6.858s-6.859 3.07-6.859 6.858"/></g><g><path fill="#F2DFC1" d="M264.014 146.911a6.86 6.86 0 0 0-13.718 0"/></g><g><path fill="#FFF3DC" d="M250.295 167.841h14.581v.918h-14.581z"/><path fill="#F2DFC1" d="M250.295 168.759h14.581v.507h-14.581z"/><path fill="#88603D" d="M264.006 167.841h.87v1.425h-.87z" opacity=".3"/></g><g><path fill="#E3E4E5" d="M250.295 169.268h14.581v1.021h-14.581z"/></g><g><path fill="#E3E4E5" d="M269.057 146.911h1.02v20.934h-1.02z"/></g><g opacity=".3"><circle fill="#88603D" cx="257.155" cy="143.761" r="2.26"/></g><g><circle fill="#FFF3DC" cx="257.425" cy="144.031" r="1.99"/></g><g><path fill="#FFF3DC" d="M256.818 147.948h.674v18.858h-.674z"/></g><g><path fill="#FFF3DC" d="M251.441 157.007h11.427v.744h-11.427z"/></g></g><g><path fill="#726658" d="M281.226 148.986h9.569v16.784h-9.569z"/><path fill="#595045" d="M281.029 157.751h9.962v.688h-9.962zM281.029 148.991h9.961v.688h-9.961z"/><path fill="#BB7652" d="M292.868 167.845H279.15v-20.934h13.718v20.934zm-11.642-2.074h9.569v-16.784h-9.569v16.784z"/><path fill="#FFF3DC" d="M291.724 166.807h-11.428v-18.858h11.428v18.858zm-10.498-1.036h9.569v-16.784h-9.569v16.784z"/><path fill="#E96C49" d="M274.108 146.911h5.042v20.934h-5.042z"/><path fill="#CD5436" d="M274.684 148.155h3.891v18.446h-3.891z"/><path fill="#E96C49" d="M278.629 149.522h-4c-.201 0-.363-.112-.363-.25 0-.139.162-.252.363-.252h4c.2 0 .364.113.364.252 0 .138-.164.25-.364.25zM278.629 150.685h-4c-.201 0-.363-.113-.363-.251s.162-.251.363-.251h4c.2 0 .364.113.364.251s-.164.251-.364.251zM278.629 151.846h-4c-.201 0-.363-.112-.363-.252 0-.138.162-.25.363-.25h4c.2 0 .364.112.364.25 0 .139-.164.252-.364.252zM278.629 153.007h-4c-.201 0-.363-.113-.363-.251 0-.14.162-.252.363-.252h4c.2 0 .364.112.364.252 0 .138-.164.251-.364.251zM278.629 154.168h-4c-.201 0-.363-.112-.363-.252 0-.137.162-.249.363-.249h4c.2 0 .364.112.364.249 0 .14-.164.252-.364.252zM278.629 155.33h-4c-.201 0-.363-.114-.363-.251 0-.14.162-.252.363-.252h4c.2 0 .364.112.364.252 0 .137-.164.251-.364.251zM278.629 156.49h-4c-.201 0-.363-.113-.363-.251s.162-.252.363-.252h4c.2 0 .364.114.364.252s-.164.251-.364.251zM278.629 157.651h-4c-.201 0-.363-.112-.363-.252 0-.138.162-.25.363-.25h4c.2 0 .364.112.364.25 0 .14-.164.252-.364.252zM278.629 158.813h-4c-.201 0-.363-.113-.363-.251 0-.139.162-.252.363-.252h4c.2 0 .364.113.364.252 0 .137-.164.251-.364.251zM278.629 159.974h-4c-.201 0-.363-.113-.363-.251s.162-.252.363-.252h4c.2 0 .364.114.364.252s-.164.251-.364.251zM278.629 161.135h-4c-.201 0-.363-.112-.363-.251s.162-.251.363-.251h4c.2 0 .364.112.364.251s-.164.251-.364.251zM278.629 162.296h-4c-.201 0-.363-.112-.363-.251 0-.14.162-.252.363-.252h4c.2 0 .364.112.364.252 0 .139-.164.251-.364.251zM278.629 163.457h-4c-.201 0-.363-.112-.363-.251 0-.138.162-.25.363-.25h4c.2 0 .364.112.364.25 0 .139-.164.251-.364.251zM278.629 164.619h-4c-.201 0-.363-.114-.363-.252 0-.139.162-.251.363-.251h4c.2 0 .364.112.364.251 0 .138-.164.252-.364.252zM278.629 165.779h-4c-.201 0-.363-.112-.363-.251 0-.138.162-.252.363-.252h4c.2 0 .364.114.364.252 0 .139-.164.251-.364.251z"/><path fill="#AB3D28" d="M274.684 148.155h.625v18.446h-.625z" opacity=".4"/><g><path fill="#E96C49" d="M292.868 146.911h5.044v20.934h-5.044z"/><path fill="#CD5436" d="M293.445 148.155h3.891v18.446h-3.891z"/><path fill="#E96C49" d="M297.391 149.522h-3.999c-.202 0-.363-.112-.363-.25 0-.139.161-.252.363-.252h3.999c.199 0 .363.113.363.252 0 .138-.164.25-.363.25zM297.391 150.685h-3.999c-.202 0-.363-.113-.363-.251s.161-.251.363-.251h3.999c.199 0 .363.113.363.251s-.164.251-.363.251zM297.391 151.846h-3.999c-.202 0-.363-.112-.363-.252 0-.138.161-.25.363-.25h3.999c.199 0 .363.112.363.25 0 .139-.164.252-.363.252zM297.391 153.007h-3.999c-.202 0-.363-.113-.363-.251 0-.14.161-.252.363-.252h3.999c.199 0 .363.112.363.252 0 .138-.164.251-.363.251zM297.391 154.168h-3.999c-.202 0-.363-.112-.363-.252 0-.137.161-.249.363-.249h3.999c.199 0 .363.112.363.249 0 .14-.164.252-.363.252zM297.391 155.33h-3.999c-.202 0-.363-.114-.363-.251 0-.14.161-.252.363-.252h3.999c.199 0 .363.112.363.252 0 .137-.164.251-.363.251zM297.391 156.49h-3.999c-.202 0-.363-.113-.363-.251s.161-.252.363-.252h3.999c.199 0 .363.114.363.252s-.164.251-.363.251zM297.391 157.651h-3.999c-.202 0-.363-.112-.363-.252 0-.138.161-.25.363-.25h3.999c.199 0 .363.112.363.25 0 .14-.164.252-.363.252zM297.391 158.813h-3.999c-.202 0-.363-.113-.363-.251 0-.139.161-.252.363-.252h3.999c.199 0 .363.113.363.252 0 .137-.164.251-.363.251zM297.391 159.974h-3.999c-.202 0-.363-.113-.363-.251s.161-.252.363-.252h3.999c.199 0 .363.114.363.252s-.164.251-.363.251zM297.391 161.135h-3.999c-.202 0-.363-.112-.363-.251s.161-.251.363-.251h3.999c.199 0 .363.112.363.251s-.164.251-.363.251zM297.391 162.296h-3.999c-.202 0-.363-.112-.363-.251 0-.14.161-.252.363-.252h3.999c.199 0 .363.112.363.252 0 .139-.164.251-.363.251zM297.391 163.457h-3.999c-.202 0-.363-.112-.363-.251 0-.138.161-.25.363-.25h3.999c.199 0 .363.112.363.25 0 .139-.164.251-.363.251zM297.391 164.619h-3.999c-.202 0-.363-.114-.363-.252 0-.139.161-.251.363-.251h3.999c.199 0 .363.112.363.251 0 .138-.164.252-.363.252zM297.391 165.779h-3.999c-.202 0-.363-.112-.363-.251 0-.138.161-.252.363-.252h3.999c.199 0 .363.114.363.252 0 .139-.164.251-.363.251z"/><path fill="#AB3D28" d="M293.445 148.155h.625v18.446h-.625z" opacity=".4"/></g><g opacity=".3"><path fill="#88603D" d="M293.445 146.911a6.858 6.858 0 0 0-13.717 0"/></g><g><path fill="#F2DFC1" d="M292.868 146.911a6.857 6.857 0 0 0-6.857-6.858c-3.79 0-6.86 3.07-6.86 6.858"/></g><g><path fill="#FFF3DC" d="M279.15 167.841h14.58v.918h-14.58z"/><path fill="#F2DFC1" d="M279.15 168.759h14.58v.507h-14.58z"/><path fill="#88603D" d="M292.859 167.841h.871v1.425h-.871z" opacity=".3"/></g><g><path fill="#E3E4E5" d="M279.15 169.268h14.58v1.021h-14.58z"/></g><g><path fill="#E3E4E5" d="M297.912 146.911h1.02v20.934h-1.02z"/></g><g opacity=".3"><circle fill="#88603D" cx="286.01" cy="143.761" r="2.26"/></g><g><circle fill="#FFF3DC" cx="286.281" cy="144.031" r="1.99"/></g><g><path fill="#FFF3DC" d="M285.673 147.948h.675v18.858h-.675z"/></g><g><path fill="#FFF3DC" d="M280.296 157.007h11.428v.744h-11.428z"/></g></g><g><path fill="#BB7652" d="M248.679 91.126h-8.71V80.372h8.71v10.754z"/><path fill="#FFF3DC" d="M247.693 90.15h-6.738v-8.802h6.738v8.802z"/><path fill="#726658" d="M241.98 82.375h4.688v6.749h-4.688z"/><path fill="#FFF3DC" d="M241.47 85.526h5.71v.447h-5.71z"/><path fill="#595045" d="M241.98 82.375h4.688v.71h-4.688zM241.98 85.974h4.688v.71h-4.688z"/><g><path fill="#E3E4E5" d="M248.679 80.372h.728v10.754h-.728z"/></g><g><path fill="#E3E4E5" d="M239.969 91.126h9.438v.727h-9.438z"/></g></g><g><path fill="#BB7652" d="M261.417 91.126h-8.71V80.372h8.71v10.754z"/><path fill="#FFF3DC" d="M260.432 90.15h-6.738v-8.802h6.738v8.802z"/><path fill="#726658" d="M254.719 82.375h4.688v6.749h-4.688z"/><path fill="#FFF3DC" d="M254.208 85.526h5.71v.447h-5.71z"/><path fill="#595045" d="M254.719 82.375h4.688v.71h-4.688zM254.719 85.974h4.688v.71h-4.688z"/><g><path fill="#E3E4E5" d="M261.417 80.372h.728v10.754h-.728z"/></g><g><path fill="#E3E4E5" d="M252.707 91.126h9.438v.727h-9.438z"/></g></g><g><path fill="#BB7652" d="M274.156 91.126h-8.711V80.372h8.711v10.754z"/><path fill="#FFF3DC" d="M273.17 90.15h-6.738v-8.802h6.738v8.802z"/><path fill="#726658" d="M267.457 82.375h4.688v6.749h-4.688z"/><path fill="#FFF3DC" d="M266.946 85.526h5.71v.447h-5.71z"/><path fill="#595045" d="M267.457 82.375h4.688v.71h-4.688zM267.457 85.974h4.688v.71h-4.688z"/><g><path fill="#E3E4E5" d="M274.156 80.372h.726v10.754h-.726z"/></g><g><path fill="#E3E4E5" d="M265.445 91.126h9.437v.727h-9.437z"/></g></g><g><path fill="#D0D1D1" d="M153.137 122.547h56.661v.879h-56.661z"/></g><g><path fill="#D0D1D1" d="M153.137 136.58h56.396v.88h-56.396z"/></g><g><path fill="#9C6049" d="M182.201 140.646h23.108v6.266h-23.108z"/><path fill="#BB7652" d="M182.994 141.335h21.523v4.887h-21.523z"/><path fill="#5B4A42" d="M183.836 142.047h19.84v3.464h-19.84z"/><path fill="#726658" d="M184.227 142.411h19.449v3.1h-19.449z"/><path fill="#BB7652" d="M201.772 146.894h3.537v33.877h-3.537z"/><path fill="#9C6049" d="M202.543 147.982h1.996v27.13h-1.996z"/><path fill="#D49780" d="M203.038 148.269h1.501v26.844h-1.501zM201.772 175.988h4.34v4.782h-4.34z"/><path fill="#BB7652" d="M202.44 176.789h2.843v.11h-2.843z"/><path fill="#BB7652" d="M202.746 176.606h.175v3.644h-.175z"/><path fill="#E3AD9A" d="M205.283 180.141h-2.843v-3.533h2.843v3.533zm-2.551-.184h2.259v-3.167h-2.259v3.167z"/><path fill="#BB7652" d="M202.44 180.141h2.843v.109h-2.843z"/><path fill="#BB7652" d="M205.281 176.606h.176v3.644h-.176z"/><g><path fill="#BB7652" d="M182.201 146.894h3.537v33.877h-3.537z"/><path fill="#9C6049" d="M182.972 147.982h1.997v27.13h-1.997z"/><path fill="#D49780" d="M183.469 148.269h1.5v26.844h-1.5zM181.398 175.988h4.34v4.782h-4.34z"/><path fill="#BB7652" d="M182.066 176.789h2.842v.11h-2.842z"/><path fill="#BB7652" d="M182.373 176.606h.174v3.644h-.174z"/><path fill="#E3AD9A" d="M184.908 180.141h-2.842v-3.533h2.842v3.533zm-2.55-.184h2.259v-3.167h-2.259v3.167z"/><path fill="#BB7652" d="M182.066 180.141h2.842v.109h-2.842z"/><path fill="#BB7652" d="M184.908 176.606h.176v3.644h-.176z"/></g><g><path fill="#DAC098" d="M185.738 146.911h16.05v.403h-16.05z"/><path fill="#DAC098" d="M193.48 147.246h.564v33.524h-.564z"/><path fill="#FFF3DC" d="M185.738 147.246h7.904v33.524h-7.904z"/><path fill="#5B4A42" d="M187.482 148.957h4.416v17.081h-4.416z"/><path fill="#726658" d="M187.867 149.368h4.031v16.67h-4.031z"/><path fill="#FFF3DC" d="M193.884 147.246h7.904v33.524h-7.904z"/><path fill="#5B4A42" d="M195.627 148.957h4.418v17.081h-4.418z"/><path fill="#726658" d="M196.012 149.368h4.033v16.67h-4.033z"/><ellipse fill="#D0D1D1" cx="192.77" cy="167.841" rx=".279" ry="1.029"/><ellipse fill="#D0D1D1" cx="194.756" cy="167.841" rx=".279" ry="1.029"/><path fill="#DAC098" d="M187.482 169.793h4.416v.321h-4.416z"/><path fill="#E6D3B9" d="M187.482 170.114h4.416v.32h-4.416z"/><path fill="#DAC098" d="M187.482 170.435h4.416v.32h-4.416z"/><path fill="#E6D3B9" d="M187.482 170.755h4.416v.32h-4.416z"/><path fill="#DAC098" d="M187.482 171.075h4.416v.321h-4.416z"/><path fill="#E6D3B9" d="M187.482 171.396h4.416v.319h-4.416z"/><path fill="#DAC098" d="M187.482 171.716h4.416v.321h-4.416z"/><path fill="#E6D3B9" d="M187.482 172.037h4.416v.32h-4.416z"/><path fill="#DAC098" d="M187.482 172.357h4.416v.321h-4.416z"/><path fill="#E6D3B9" d="M187.482 172.679h4.416v.32h-4.416z"/><path fill="#DAC098" d="M187.482 172.999h4.416v.32h-4.416z"/><path fill="#E6D3B9" d="M187.482 173.319h4.416v.32h-4.416z"/><path fill="#DAC098" d="M187.482 173.64h4.416v.321h-4.416z"/><path fill="#E6D3B9" d="M187.482 173.961h4.416v.319h-4.416z"/><path fill="#DAC098" d="M187.482 174.28h4.416v.322h-4.416z"/><path fill="#E6D3B9" d="M187.482 174.603h4.416v.319h-4.416z"/><path fill="#DAC098" d="M187.482 174.922h4.416v.32h-4.416z"/><path fill="#E6D3B9" d="M187.482 175.242h4.416v.321h-4.416z"/><path fill="#DAC098" d="M187.482 175.563h4.416v.32h-4.416z"/><path fill="#E6D3B9" d="M187.482 175.884h4.416v.32h-4.416z"/><path fill="#DAC098" d="M187.482 176.204h4.416v.322h-4.416z"/><path fill="#E6D3B9" d="M187.482 176.526h4.416v.319h-4.416z"/><path fill="#DAC098" d="M187.482 176.846h4.416v.32h-4.416z"/><path fill="#E6D3B9" d="M187.482 177.166h4.416v.321h-4.416z"/><path fill="#DAC098" d="M187.482 177.487h4.416v.32h-4.416z"/><path fill="#E6D3B9" d="M187.482 177.808h4.416v.32h-4.416z"/><path fill="#DAC098" d="M187.482 178.128h4.416v.32h-4.416z"/><path fill="#E6D3B9" d="M187.482 178.448h4.416v.321h-4.416z"/><path fill="#DAC098" d="M187.482 178.77h4.416v.319h-4.416z"/><path fill="#E6D3B9" d="M187.482 179.089h4.416v.321h-4.416z"/><path fill="#A77D50" d="M187.482 169.793h.385v9.627h-.385z" opacity=".3"/><g><path fill="#DAC098" d="M195.627 169.793h4.418v.321h-4.418z"/><path fill="#E6D3B9" d="M195.627 170.114h4.418v.32h-4.418z"/><path fill="#DAC098" d="M195.627 170.435h4.418v.32h-4.418z"/><path fill="#E6D3B9" d="M195.627 170.755h4.418v.32h-4.418z"/><path fill="#DAC098" d="M195.627 171.075h4.418v.321h-4.418z"/><path fill="#E6D3B9" d="M195.627 171.396h4.418v.319h-4.418z"/><path fill="#DAC098" d="M195.627 171.716h4.418v.321h-4.418z"/><path fill="#E6D3B9" d="M195.627 172.037h4.418v.32h-4.418z"/><path fill="#DAC098" d="M195.627 172.357h4.418v.321h-4.418z"/><path fill="#E6D3B9" d="M195.627 172.679h4.418v.32h-4.418z"/><path fill="#DAC098" d="M195.627 172.999h4.418v.32h-4.418z"/><path fill="#E6D3B9" d="M195.627 173.319h4.418v.32h-4.418z"/><path fill="#DAC098" d="M195.627 173.64h4.418v.321h-4.418z"/><path fill="#E6D3B9" d="M195.627 173.961h4.418v.319h-4.418z"/><path fill="#DAC098" d="M195.627 174.28h4.418v.322h-4.418z"/><path fill="#E6D3B9" d="M195.627 174.603h4.418v.319h-4.418z"/><path fill="#DAC098" d="M195.627 174.922h4.418v.32h-4.418z"/><path fill="#E6D3B9" d="M195.627 175.242h4.418v.321h-4.418z"/><path fill="#DAC098" d="M195.627 175.563h4.418v.32h-4.418z"/><path fill="#E6D3B9" d="M195.627 175.884h4.418v.32h-4.418z"/><path fill="#DAC098" d="M195.627 176.204h4.418v.322h-4.418z"/><path fill="#E6D3B9" d="M195.627 176.526h4.418v.319h-4.418z"/><path fill="#DAC098" d="M195.627 176.846h4.418v.32h-4.418z"/><path fill="#E6D3B9" d="M195.627 177.166h4.418v.321h-4.418z"/><path fill="#DAC098" d="M195.627 177.487h4.418v.32h-4.418z"/><path fill="#E6D3B9" d="M195.627 177.808h4.418v.32h-4.418z"/><path fill="#DAC098" d="M195.627 178.128h4.418v.32h-4.418z"/><path fill="#E6D3B9" d="M195.627 178.448h4.418v.321h-4.418z"/><path fill="#DAC098" d="M195.627 178.77h4.418v.319h-4.418z"/><path fill="#E6D3B9" d="M195.627 179.089h4.418v.321h-4.418z"/><path fill="#A77D50" d="M195.627 169.793h.385v9.627h-.385z" opacity=".3"/></g></g><g><path fill="#E3E4E5" d="M205.309 140.646h1.021v35.343h-1.021z"/></g><g><path fill="#E3E4E5" d="M206.112 175.988h1.021v4.782h-1.021z"/></g></g><g><path fill="#FFF" d="M192.662 79.904l-.748.693-1.32-1.116s.653.15 1.062-.313l1.006.736z"/><path fill="#B9BBBD" d="M191.614 77.999l.041 1.17c-.408.463-1.062.313-1.062.313s-.014-.53-.055-1.319c.001-.001.75.313 1.076-.164z"/><path fill="#E3E4E5" d="M191.438 71.904l.177 6.095c-.326.477-1.075.163-1.075.163-.095-2.3-.34-6.803-.693-6.68-.477.163-1.592 1.592-1.592 1.592.3.803-.082 3.891-.313 5.523-.639.585-.898.395-.898.395v-2.844s-2.707.204-3.455-.326c0 0 1.605-2.095 3.184-3.646.271-.272.531-.518.789-.734.503-.423.966-.749 1.333-.857 0 0 .693-.477 1.646-.382.951.11.897 1.701.897 1.701z"/><path fill="#FFF" d="M188.947 80.434l-.747.694-1.157-.803c.572.027.734-.68.734-.68l1.17.789z"/><path fill="#209076" d="M183.274 69.307c0-.245.015-.477.028-.682 0 0 1.945.871 4.761-.421l.04 1.523.79.857c-.367.108-.83.435-1.333.857l-.518-.654-1.197.939.721.64.205-.19c-1.578 1.551-3.184 3.646-3.184 3.646-.489-.353-.421-4.053-.313-6.515z"/><path fill="#209076" d="M188.05 67.469l.014.735c-2.815 1.292-4.761.421-4.761.421.014-.313.026-.585.04-.815 0 0 1.809.734 4.707-.341z"/><path fill="#209076" d="M183.384 67.088s-2.067 2.586-2.381 2.857c-.204.163-1.401-.612-2.272-1.197.423-.326.504-.816.504-.816.626.313 1.334.667 1.442.64.218-.055 2.652-3.184 3.074-3.66.421-.477 1.741-.925 1.741-.925s.177 2.027.545 1.633c.354-.381.367-1.659.367-1.659l1.592 1.156.054 2.353c-2.897 1.075-4.707.341-4.707.341.028-.451.041-.723.041-.723z"/><path fill="#B9BBBD" d="M187.941 78.598c-.096.625-.164 1.048-.164 1.048s-.162.707-.734.68v-1.333c0-.001.26.19.898-.395z"/><path fill="#FFF" d="M187.561 71.442c-.258.217-.518.462-.789.734l-.205.19-.721-.64 1.197-.939.518.655zM186.092 61.415c.856 0 .313 2.545.313 2.545s-.014 1.278-.367 1.659c-.368.395-.545-1.633-.545-1.633s-.627-2.585.599-2.571zM179.234 67.932s-.081.49-.504.816c-.516-.354-.911-.652-.911-.652l.423-.694c0-.001.461.257.992.53z"/><g><path fill="#5F3B18" d="M185.331 62.793s-.774-.763-.099-1.374c.675-.609 1.156.054 1.609.006.455-.049.143.66-.34.688-.48.029-.925-.257-1.17.68z"/></g></g><g><ellipse transform="rotate(-35.561 179.442 73.848)" fill="#A77D50" cx="179.424" cy="73.853" rx=".583" ry="1.174"/><ellipse transform="rotate(-35.462 179.139 73.46)" fill="#764E2A" cx="179.135" cy="73.466" rx=".311" ry=".477"/><g><ellipse transform="rotate(-35.537 180.918 73.728)" fill="#A77D50" cx="180.906" cy="73.724" rx=".584" ry="1.172"/><ellipse transform="rotate(-35.462 180.62 73.33)" fill="#764E2A" cx="180.616" cy="73.337" rx=".311" ry=".477"/></g></g><g><ellipse transform="scale(-1) rotate(35.459 233.062 -660.088)" fill="#E3E4E5" cx="211.029" cy="74.508" rx=".583" ry="1.172"/><ellipse transform="scale(-1) rotate(35.488 233.254 -653.501)" fill="#E3E4E5" cx="209.1" cy="74.634" rx=".583" ry="1.172"/><path fill="#6D6E71" d="M209.65 74.855l-1.224-.222-.14.414s.668-.065.939.31l.425-.502zM210.355 74.508l-.126.354s.613.056.928.368l.239-.246c0-.001-.446-.632-1.041-.476z"/></g><g><path fill="#FFF" d="M211.318 71.819l-.463.449s-1.429-1.511-1.864-2.082c-.204-.245-1.51-1.81-2.095-2.518l.707-.721c.735.993 1.511 2.041 1.592 2.123.45.451 2.123 2.749 2.123 2.749z"/><path fill="#034037" d="M207.604 66.948l-.707.721c-.19-.217-.299-.354-.299-.354s.299 4.708.136 7.225c-.856.83-2.571-.272-3.251-.979-.681-.707-2.395-2.734-2.395-2.734l.803-.857.055-2.802c-.191.135-.422.299-.722.448l-.517-.857a7.374 7.374 0 0 0 1.278-1.4l1.592-1.157s.381.599.911.027c0 0 1.32.449 1.742.926.191.216.776.991 1.374 1.793z"/><path fill="#E07C46" d="M206.733 74.54c-.055.816-.163 1.388-.341 1.523-.748.531-3.455.326-3.455.326v4.177c-.871.027-.734-.68-.734-.68s-.897-5.455-.477-6.571c0 0-1.115-1.429-1.592-1.592s-.748 7.999-.748 7.999c-.952.109-1.047-.313-1.047-.313l.204-7.265s-.055-1.592.897-1.7c.953-.096 1.646.381 1.646.381s1.714 2.027 2.395 2.734c.681.709 2.396 1.811 3.252.981z"/><path fill="#FFF" d="M203.903 61.657c1.211-.014.585 2.57.585 2.57-.53.571-.911-.027-.911-.027s-.544-2.543.326-2.543zM202.938 80.566l-1.156.803-.748-.694 1.17-.788c-.001 0-.138.707.734.679zM200.707 66.758l.517.857c-.326.19-.708.368-1.184.53-1.605.545-3.85-.938-3.85-.938l.34-.666s.503.027 2.081.748c.721.326 1.47-.041 2.096-.531zM199.387 79.723l-1.319 1.116-.748-.693 1.021-.735c-.001-.001.094.421 1.046.312z"/><g><ellipse fill="#FAAC21" cx="204.029" cy="67.948" rx="1.414" ry="2.221"/></g><g><ellipse fill="#034037" cx="204.028" cy="67.948" rx="1.073" ry="1.688"/></g><g><ellipse fill="#F89A34" cx="204.028" cy="67.948" rx=".699" ry="1.1"/></g><g><path fill="#3C2418" d="M204.358 61.329s-.573-.206-1.604.459c-1.032.666.34.219.34.219s-.665.574.373.233c0 0-.245.534.578.108 0 0-.154.48.462.166 0 0 .04.619.36.428s.535-1.314-.509-1.613z"/></g><g><path fill="#3C2418" d="M210.58 70.836s-.41.227-.516.588l.386.425s.214-.376.509-.507l-.379-.506z"/></g></g><g><path fill="#5F3B18" d="M174.799 112.732s-.823-1.718.271-2.671c1.094-.951 1.802 1.436 2.662 1.408.86-.029 1.527-.697 1.527-.882 0 0 .128.582.128.796l-.299.255.299.113s-.028.597-.184.896l-.583-.1.511.305s-.099.747-.582 1.145l-.412-.214.241.44s-.795.725-1.647.752c0 0-1.093.483-1.335.299 0 0-.184-1.861-.597-2.542z"/><path fill="#F69668" d="M177.734 121.408l-1.29.337-.399.672h-.01l-1.117-.208.09-.537-2.809.073s.255.254.537.636l-.764.327c-.164-.236-.418-.509-.791-.809-1.817-1.481-1.481-2.309-1.481-2.309l3.6-6.672.182-.063s1.19.899 3.544.418a.844.844 0 0 1 .137.182c.381.646.571 7.953.571 7.953z"/><path fill="#FFF" d="M175.535 112.464s1.01.282 1.49.81c-2.354.481-3.544-.418-3.544-.418l1.481-.572c-.463-1.364.172-1.8.572-1.8.856-.001.001 1.98.001 1.98zM176.035 122.417l-.39.654.227 1.1-.827.337-.309-1.209.182-1.09zM173.036 122.844c.336.609.036 1.664.036 1.664l-1.063-.455s.628-.427-.036-1.345l.764-.327c.099.137.208.301.299.463z"/></g><g><path fill="#FFF" d="M125.559 180.666l3.967-102.66 3.968 102.66z"/><path fill="#FFF" d="M81.882 80.282s2.966-.46 7.418-1.043c2.226-.301 4.822-.658 7.606-.992 2.784-.359 5.757-.67 8.729-1.005 2.973-.308 5.931-.892 8.724-1.078 2.795-.153 5.417-.031 7.671.173 1.127.104 2.162.24 3.08.373a38.29 38.29 0 0 1 2.383.432c1.324.281 2.085.527 2.085.527l.027.495s-.729.327-2.015.752c-.643.217-1.424.447-2.321.689-.898.231-1.913.48-3.021.707-2.218.448-4.812.856-7.606 1.01-2.796.12-5.801-.138-8.789-.118-2.99-.008-5.979.009-8.785-.047-2.805-.026-5.425-.098-7.67-.154a359.42 359.42 0 0 1-7.487-.226l-.029-.495z"/><path fill="#FFF" d="M149.214 121.468c.001 0-1.51-2.592-3.679-6.525-1.094-1.962-2.375-4.248-3.701-6.72-1.353-2.458-2.727-5.113-4.123-7.758-1.372-2.655-2.996-5.195-4.189-7.728-1.163-2.547-2.008-5.032-2.641-7.205a62.51 62.51 0 0 1-.777-3.003 40.575 40.575 0 0 1-.469-2.376c-.221-1.336-.27-2.135-.27-2.135l.451-.205s.57.561 1.436 1.601c.437.519.936 1.162 1.489 1.91a60.143 60.143 0 0 1 1.762 2.553c1.228 1.901 2.554 4.167 3.718 6.713 1.132 2.56 1.989 5.451 3.099 8.227 1.085 2.786 2.192 5.563 3.165 8.195 1 2.621 1.89 5.087 2.657 7.197a354.03 354.03 0 0 1 2.523 7.054l-.451.205z"/><path fill="#FFF" d="M154.516 37.166s-1.291 2.709-3.317 6.717c-1.005 2.009-2.173 4.354-3.467 6.844-1.27 2.503-2.688 5.134-4.087 7.776-1.421 2.63-2.604 5.403-4.023 7.816-1.449 2.395-3.027 4.493-4.465 6.24a62.877 62.877 0 0 1-2.044 2.335 40.958 40.958 0 0 1-1.698 1.726 23.315 23.315 0 0 1-1.611 1.424l-.424-.256s.141-.787.513-2.088a40.35 40.35 0 0 1 .739-2.307c.314-.872.68-1.851 1.117-2.895.879-2.085 2.004-4.458 3.451-6.854 1.477-2.378 3.382-4.714 5.051-7.193 1.691-2.467 3.361-4.946 4.988-7.233 1.602-2.302 3.137-4.427 4.448-6.25a353.79 353.79 0 0 1 4.405-6.058l.424.256z"/><g><circle fill="#E6E6E6" cx="129.527" cy="78.006" r="2.443"/></g><g><circle fill="#FFF" cx="129.796" cy="77.736" r="2.06"/></g></g><g><path fill="#FFF" d="M89.941 180.666L93.1 92.688l3.158 87.978z"/><path fill="#FFF" d="M52.27 94.654s2.541-.376 6.359-.855c1.908-.247 4.134-.54 6.521-.814 2.386-.297 4.934-.552 7.482-.829 2.548-.255 5.084-.73 7.478-.889 2.395-.131 4.642-.042 6.571.112.966.08 1.853.186 2.639.287.786.109 1.474.222 2.041.335a21.11 21.11 0 0 1 1.783.413l.022.395s-.627.263-1.729.605a38.06 38.06 0 0 1-1.992.557c-.771.187-1.641.389-2.59.573-1.902.364-4.126.697-6.521.829-2.396.104-4.97-.09-7.529-.065-2.563.003-5.123.027-7.529-.008-2.401-.012-4.646-.06-6.569-.098-3.848-.059-6.415-.154-6.415-.154l-.022-.394z"/><path fill="#FFF" d="M109.984 129.928s-1.277-2.229-3.117-5.607c-.927-1.687-2.012-3.651-3.14-5.773-1.147-2.113-2.317-4.392-3.504-6.663-1.168-2.279-2.536-4.467-3.558-6.637-.996-2.183-1.733-4.307-2.295-6.159a56.13 56.13 0 0 1-.697-2.562 37.28 37.28 0 0 1-.432-2.021c-.209-1.135-.267-1.812-.267-1.812l.358-.164s.474.487 1.195 1.388c.364.448.781 1.006 1.244 1.65.456.65.961 1.387 1.48 2.204 1.033 1.637 2.155 3.586 3.153 5.767.972 2.193 1.729 4.659 2.688 7.034.938 2.385 1.896 4.76 2.742 7.01.866 2.241 1.641 4.349 2.309 6.154a318.102 318.102 0 0 1 2.197 6.027l-.356.164z"/><path fill="#FFF" d="M114.502 57.682s-1.122 2.312-2.877 5.735c-.87 1.716-1.883 3.721-3 5.847-1.1 2.139-2.323 4.389-3.529 6.648-1.226 2.249-2.262 4.612-3.48 6.679-1.241 2.053-2.58 3.859-3.795 5.366a53.631 53.631 0 0 1-1.724 2.019 35.348 35.348 0 0 1-1.427 1.497 20.66 20.66 0 0 1-1.347 1.24l-.338-.203s.136-.667.473-1.77a38.68 38.68 0 0 1 .663-1.959c.279-.742.604-1.574.986-2.463.771-1.776 1.748-3.802 2.988-5.854 1.264-2.04 2.875-4.056 4.298-6.185 1.44-2.118 2.863-4.248 4.245-6.216 1.364-1.978 2.669-3.805 3.784-5.374 2.216-3.144 3.741-5.212 3.741-5.212l.339.205z"/><g><circle fill="#E6E6E6" cx="93.1" cy="92.688" r="2.094"/></g><g><circle fill="#FFF" cx="93.33" cy="92.457" r="1.765"/></g></g><g><path fill="#FFF" d="M53.238 180.666l2.533-70.585 2.534 70.585z"/><path fill="#FFF" d="M23.014 111.659s2.039-.301 5.102-.685c1.531-.198 3.316-.435 5.232-.654 1.914-.239 3.957-.443 6.001-.666 2.045-.203 4.08-.585 6-.711a39.158 39.158 0 0 1 5.272.089c.774.064 1.486.148 2.117.229.631.089 1.182.179 1.637.27a17.06 17.06 0 0 1 1.431.332l.018.315s-.502.211-1.386.486c-.442.14-.979.289-1.599.446-.618.149-1.315.312-2.079.46-1.525.292-3.31.56-5.23.665-1.922.084-3.987-.073-6.042-.052-2.056.002-4.11.021-6.038-.006-1.929-.01-3.729-.049-5.272-.078-3.086-.048-5.146-.125-5.146-.125l-.018-.315z"/><path fill="#FFF" d="M69.318 139.959s-1.025-1.788-2.502-4.499c-.743-1.352-1.615-2.929-2.519-4.632-.921-1.694-1.858-3.522-2.812-5.345-.937-1.829-2.035-3.584-2.854-5.325a39.207 39.207 0 0 1-1.842-4.942 44.09 44.09 0 0 1-.559-2.055 29.839 29.839 0 0 1-.348-1.621c-.167-.91-.214-1.454-.214-1.454l.288-.132s.379.392.959 1.114c.291.36.627.807.998 1.324.365.521.771 1.111 1.188 1.768a39.223 39.223 0 0 1 2.529 4.627c.781 1.759 1.389 3.738 2.158 5.645.753 1.912 1.52 3.818 2.199 5.624.696 1.798 1.316 3.488 1.853 4.936a265.263 265.263 0 0 1 1.763 4.837l-.285.13z"/><path fill="#FFF" d="M72.941 81.997s-.899 1.855-2.307 4.602c-.699 1.377-1.512 2.984-2.408 4.69-.883 1.716-1.863 3.521-2.832 5.335-.982 1.804-1.814 3.7-2.792 5.357a39.322 39.322 0 0 1-3.044 4.306c-.489.604-.96 1.145-1.384 1.62-.428.471-.813.875-1.145 1.199a16.88 16.88 0 0 1-1.08.996l-.271-.163s.108-.534.379-1.421c.134-.443.314-.972.531-1.57.225-.595.484-1.263.792-1.977a39.339 39.339 0 0 1 2.398-4.697c1.013-1.636 2.306-3.253 3.447-4.962 1.155-1.699 2.298-3.407 3.406-4.986 1.094-1.587 2.141-3.053 3.035-4.312a279.211 279.211 0 0 1 3.001-4.182l.274.165z"/><g><circle fill="#E6E6E6" cx="55.77" cy="110.081" r="1.68"/></g><g><circle fill="#FFF" cx="55.956" cy="109.897" r="1.416"/></g></g><g><path fill="#034037" d="M75.555 164.55l2.82 1.529.24 9.932 1.536-.646v-.887l-.808-9.206-2.796-2.042-.992 1.32z"/><path fill="#B9BBBD" d="M78.615 176.011l2.572-.885-.192-1.407-2.404 1.24z"/><path fill="#E3E4E5" d="M87.364 168.888h.129v11.279h-.129z"/><path fill="#E3E4E5" d="M81.789 174.464h11.279v.127H81.789z"/><path fill="#E3E4E5" d="M91.402 170.518l.092.093-8.019 7.935-.092-.093z"/><path fill="#E3E4E5" d="M83.487 170.49l7.976 7.977-.092.093-7.977-7.977z"/><path fill="#E3E4E5" d="M89.54 169.295l.12.05-4.352 10.406-.119-.05z"/><path fill="#E3E4E5" d="M82.246 172.311l10.417 4.328-.05.12-10.417-4.328z"/><path fill="#E3E4E5" d="M92.626 172.344l.047.118-10.456 4.234-.048-.118z"/><path fill="#E3E4E5" d="M85.336 169.292l4.306 10.427-.12.05-4.306-10.427zM68.334 168.888h.129v11.279h-.129z"/><path fill="#E3E4E5" d="M62.76 174.464h11.278v.127H62.76z"/><path fill="#E3E4E5" d="M72.341 170.49l.093.093-7.977 7.977-.093-.093z"/><path fill="#E3E4E5" d="M64.458 170.49l7.977 7.977-.093.093-7.976-7.977z"/><path fill="#E3E4E5" d="M70.499 169.284l.12.05-4.32 10.42-.12-.05z"/><path fill="#E3E4E5" d="M63.214 172.311l10.418 4.328-.05.12-10.417-4.329z"/><path fill="#E3E4E5" d="M73.545 172.238l.051.119-10.365 4.454-.051-.118z"/><path fill="#E3E4E5" d="M66.306 169.293l4.306 10.427-.119.05-4.306-10.428z"/><g><path fill="#3C2418" d="M68.398 180.771a6.25 6.25 0 0 1-6.243-6.243 6.25 6.25 0 0 1 6.243-6.243 6.25 6.25 0 0 1 6.243 6.243 6.249 6.249 0 0 1-6.243 6.243zm0-11.712c-3.014 0-5.468 2.454-5.468 5.469s2.454 5.466 5.468 5.466c3.016 0 5.469-2.451 5.469-5.466s-2.453-5.469-5.469-5.469z"/></g><g><path fill="#3C2418" d="M87.43 180.771a6.25 6.25 0 0 1-6.243-6.243 6.25 6.25 0 0 1 6.243-6.243 6.25 6.25 0 0 1 6.242 6.243 6.25 6.25 0 0 1-6.242 6.243zm0-11.712c-3.016 0-5.469 2.454-5.469 5.469s2.453 5.466 5.469 5.466c3.014 0 5.467-2.451 5.467-5.466s-2.454-5.469-5.467-5.469z"/></g><g><path fill="#22937A" d="M73.596 164.745l2.777 9.88-.499.14-2.777-9.88z"/></g><g><path fill="#B9BBBD" d="M72.682 168.053h-6.934a.258.258 0 0 1-.258-.259c0-.143.115-.259.258-.259h6.934a.259.259 0 0 1 0 .518z"/></g><g><path fill="#1A8068" d="M83.55 163.396c-.422 0-.849-.085-.976-.11a.258.258 0 0 1-.198-.308.257.257 0 0 1 .306-.198c.667.142 1.295.119 1.37.008a.254.254 0 0 0-.073-.205c-.211-.235-.783-.39-1.458-.39a.257.257 0 0 1-.258-.258c0-.144.115-.259.258-.259.853 0 1.524.205 1.843.563a.767.767 0 0 1 .201.608.52.52 0 0 1-.225.37c-.188.136-.487.179-.79.179z"/></g><g><path fill="#22937A" d="M68.398 174.959a.259.259 0 0 1-.219-.397l5.408-8.644h10.354a.258.258 0 1 1 0 .516H73.875l-5.258 8.403a.258.258 0 0 1-.219.122z"/></g><g><path fill="#22937A" d="M87.43 174.785a.256.256 0 0 1-.238-.158l-4.927-11.796.321-.054c.05-.009 1.23-.218 1.248-1.108.003-.118-.045-.171-.092-.207-.366-.285-1.561-.092-2.227.096a.26.26 0 0 1-.32-.178.257.257 0 0 1 .18-.318c.201-.058 1.993-.541 2.684-.008a.74.74 0 0 1 .291.627c-.017.885-.782 1.349-1.367 1.529l4.686 11.218a.258.258 0 0 1-.239.357z"/></g><g><path fill="#22937A" d="M84.218 167.177l.38.352-6.834 7.365-.379-.352z"/></g><g><path fill="#F0EFEF" d="M71.171 164.661s1.792.356 3.083.261c1.293-.099 2.229-1.146 1.324-1.163-.903-.017-2.906.321-3.439 0-.532-.322-1.986.096-.968.902z"/></g><g><path fill="#FFF" d="M85.213 165.311c.708.3.181 1.033.181 1.033-.812-.547-.295-.956-.196-1.027.01-.001.015-.006.015-.006z"/><path fill="#D0D1D1" d="M85.394 166.344s-1.565.119-1.446-.341c.113-.424 1.127-.662 1.25-.687-.099.072-.616.481.196 1.028z"/></g><g><circle fill="#909294" cx="76.515" cy="176.185" r="1.776"/></g><g><circle fill="#808083" cx="76.514" cy="176.185" r=".707"/></g><g><path fill="#2CAD8E" d="M72.06 173.967l4.649.167s1.529.065 1.776 1.292c.049.256.306 1.324.306 1.324s-.565.791-1 0c0 0 .031-1.679-1.114-1.776-1.147-.096-1.614 1.502-1.614 1.502l-.791-.065s.064-1.451-.34-1.55c-.405-.097-1.713-.156-1.872-.894z"/></g><g><path fill="#B9BBBD" d="M73.758 178.28a.233.233 0 0 1-.052-.052l-.671-.869a.258.258 0 0 1 .049-.361.253.253 0 0 1 .361.046l.512.666 5.062-3.892a.257.257 0 0 1 .362.048l.624.811a.257.257 0 0 1-.048.361.257.257 0 0 1-.361-.047l-.466-.605-5.062 3.892a.257.257 0 0 1-.31.002z"/></g><g><path fill="#764E2A" d="M69.535 153.396s-.961.31-2.213 1.415c-1.252 1.104-3.876 1.226-3.876 1.226s0 .584.201 1.291h.404l-.383.162s.161.544.342.867l.667-.343-.604.525s.14.847.928 1.312c0 0 4.952-.056 5.816-3.228.866-3.172-1.282-3.227-1.282-3.227z"/><path fill="#A77D50" d="M64.949 178.244l-.175.318 1.565 2.104.874-.516-.082-.29z"/><path fill="#FFF" d="M78.043 152.67l6.705 11.143-.727.484-6.627-10.183-.988 3.788 5.59 5.484-1.007.9-5.281-5.164-.571 3.071-2.045.059s-.61.959-1.25.572l-.58-1.28-.641.572-.969 2.616 1.124 5.939-.34 5.465s1.212 1.696 1.212 2.103c0 .397-.649 1.046-.649 1.046l-1.772-1.859-.146-6.754-.427-2.461-.746.049.688 3.382-2.52 6.355 1.046 1.852-.639.571-1.541-2.181 2.044-7.082-.697-2.811-.475.029-.882-3.479c-.659-.387-1.608-.988-1.666-1.085-.078-.164 1.938-5.493 2.268-6.056.319-.571 3.468-.969 3.468-.969s0-4.051 1.134-3.479c1.58.805 0 3.721 0 3.721s.397-.329 1.211.242c.805.563.882 2.258.882 2.258s-.155-3.392.892-5.648c1.047-2.268 3.924-2.723 3.924-2.723s.563-4.235 1.967-3.092c1.435 1.163-.969 3.392-.969 3.392v1.213z"/><path fill="#034037" d="M77.666 164.036l-1.357.91-2.703-1.463 3.314 2.752-2.994 9.844 1.375 1.057-.804 1.608-1.541-2.665 2.423-9.602c-2.094-.648-2.665-1.744-2.665-1.744l-.872-1.908c.64.387 1.25-.572 1.25-.572l2.045-.059 2.529 1.842z"/><path fill="#FFF" d="M63.271 163.823l2.905 4.309.795-.335-3-4.928-.41-.02z"/><path fill="#F89A34" d="M68.141 156.926s-.191 2.016 0 2.198c.19.182 2.395.964 2.455-2.173 0 0 .251.018.503.171 0 0 1.085 3.478.168 4.436-.917.957-1.614 3.184-1.577 3.38l.607 3.181s-2.081 1.236-4.473.269l-.891-3.477s-.443-1.274.225-2.819c.665-1.544 1.962-2.929 2.01-4.977 0-.001.58-.221.973-.189z"/><path fill="#A77D50" d="M66.62 178.956s-.341-.082-.82.495l.298.423s.357-.518.78-.462l-.258-.456zM70.14 178.388s.21-1.079.974-1.241l.308.522s-.744.315-.841 1.18l-.441-.461z"/><path fill="#A77D50" d="M69.23 177.438l1.776 1.856.3-.343-2.105-2.2zM64.999 177.61s.224.545 1.082.392l.155-.28s-.813-.069-1.002-.481l-.235.369zM70.441 176.146s-.704.383-1.24.038l.014-.611s.769.175 1.259 0l-.033.573z"/><path fill="#764E2A" d="M69.198 154.57s.829.435 2 .133c0 0-.274-1.643-1.349-1.416-1.074.225-.651 1.283-.651 1.283z"/><path fill="#C0B298" d="M77.052 151.171l.999.294v1.211l-1.307-1.44z"/><path fill="#988279" d="M78.043 152.593l5.281 8.855c-.824 1.299-1.957.63-1.957.63l-3.963-7.393-.649 3.149 4.099 4.311c-.543 1.115-1.793.941-1.793.941l-3.353-3.964-.494 3.13h-2.122l-.891-3.053c-.717-7.771 4.844-8.041 4.844-8.041l.998 1.435z"/><path fill="#C0B298" d="M78.99 163.281s1.184.188 2.005-1.006l-.411-.6s-1.23 1.084-1.877 1.163l.283.443zM81.423 162.374s1.159.307 2.097-.799l-.348-.639s-1.336.957-1.985.971l.236.467z"/><path fill="#FFF" d="M71.848 162.205l-3.89 3.108.376.775 4.768-3.249v-.579z"/><g><path fill="#FFF" d="M80.995 163.263h2.307v1.031h-2.307z"/></g><g><path fill="#B9BBBD" d="M73.931 176.09h-.97l1.522 2.716.941-1.651z"/></g><g><path fill="#3C2418" d="M77.397 149.55s1.148-.579 1.532-1.023c0 0 .197.681.543.511 0 0 .113-.436-.205-.814-.317-.378-1.02-.727-1.532.228-.511.951-.338 1.098-.338 1.098z"/></g></g></g><g><path fill="#D0D1D2" d="M31.776 50.734l.34 8.405-.99.04-.34-8.405zM37.818 53.154l.83.544-3.838 5.856-.83-.543z"/><path fill="#D0D1D2" d="M30.992 52.623l-17.65-30.29.857-.5L30.542 49.88l7.205-35.133.972.199zM38.425 54.364l13.043-38.22.938.319-12.295 36.028L72.393 37.57l.416.901z"/><path fill="#D0D1D2" d="M54.424 37.67l5.299-19.945.959.253-4.859 18.288 16.825-4.532.259.957z"/><path fill="#D0D1D2" d="M66.077 24.863l.715.688L39.64 53.785l-.715-.688zM28.12 34.257L17.234 18.508l.816-.564 9.405 13.607 2.418-19.566.984.122z"/><path fill="#D0D1D2" d="M25.296 14.476l5.96 36.697-.98.16-5.96-36.698z"/><path fill="#E9642A" d="M29.563 51.903c.313.613 1.074.886 4.215.904 3.141.018 3.301.412 3.883 1.215.58.802 5.439 1.342 4.468-.388-1.417-2.521-3.14-5.356-8.728-4.689-5.588.665-4.354 1.952-3.838 2.958z"/><path fill="#F08354" d="M18.563 6.097s-4.162-1.151-6.072 2.902c0 0-5.305 1.263-4.204 6.175 1.103 4.914 4.678 8.014 4.678 8.014s3.126 2.462 5.263-1.448c0 0 3.876.905 5.617-2.145 0 0 3.688 1.644 5.986-2.224 0 0 2.964 2.418 6.264-.231 0 0 4.214 2.651 7.559-.512 0 0 2.117 2.989 6.154.877 0 0 2.15 4.221 5.797 2.271 0 0-.621 4.472 5.335 4.075 0 0 .421 3.817 5.464 3.908 0 0-.13 3.923 3.064 5.44 0 0-2.317 3.251.913 5.65 3.229 2.4 5.63-.829 5.771-4.114 0 0 3.293-1.255 2.284-4.483 0 0 3.393-4.374-.724-6.388 0 0 1.271-3.258-3.016-3.919 0 0 .477-4.595-3.998-4.519 0 0-.841-3.885-5.771-3.051 0 0-.9-4.336-5.422-3.398 0 0-1.992-3.48-5.946-1.348 0 0-1.601-3.643-5.366-2.247 0 0-2.015-3.049-5.783-.957 0 0-2.98-3.035-6.668-.92 0 0-3.147-2.38-5.115.524 0 0-3.602-1.971-5.302.915-.002.001-4.75-2.613-6.762 1.153z"/><path fill="#E9642A" d="M76.15 34.735c-3.424 2.231-4.708-2.841-4.708-2.841-3.559-.306-4.017-6.05-4.017-6.05-3.66.306-5.701-3.863-5.701-3.863-4.43.56-5.381-4.524-5.381-4.524-3.354 1.373-5.693-2.085-5.693-2.085-3.304 1.729-6.708-.354-6.708-.354-3.2 1.982-9.051-.171-9.051-.171-1.88 2.271-5.998.984-5.998.984-2.033 2.286-6.405.473-6.405.473-2.39 3.42-6.253 2.831-6.253 2.831-5.693-.508-3.745-10.136-3.745-10.136s-5.305 1.263-4.204 6.175c1.103 4.914 4.678 8.014 4.678 8.014s3.126 2.462 5.263-1.448c0 0 3.876.905 5.617-2.145 0 0 3.688 1.644 5.986-2.224 0 0 2.964 2.418 6.264-.231 0 0 4.214 2.651 7.559-.512 0 0 2.117 2.989 6.154.877 0 0 2.15 4.221 5.797 2.271 0 0-.621 4.472 5.335 4.075 0 0 .421 3.817 5.464 3.908 0 0-.13 3.923 3.064 5.44 0 0-2.317 3.251.913 5.65 3.229 2.401 5.63-.828 5.77-4.114z"/><g><path fill="#808083" d="M35.055 59.022c-.177 1.248-1.412 2.104-2.758 1.913-1.347-.192-2.295-1.359-2.117-2.606l.229-1.611c.178-1.247 1.412-2.104 2.759-1.913 1.347.192 2.295 1.359 2.118 2.606l-.231 1.611z"/></g><g><path fill="#5F3B18" d="M34.229 53.473s-.379.143-.699.703c-.202.357-.898.628-.898.628s.984 1.409 2.598.423c0 0-.159-.432-.167-.861-.009-.432-.105-1.123-.834-.893z"/><path fill="#FFF" d="M38.191 59.287l.592.591s-.37.318-.879.665c-.658-.081-.621-.621-.621-.621.273-.162.576-.376.908-.635z"/><path fill="#1D75B8" d="M37.904 60.543a8.447 8.447 0 0 1-.688.407c-.694-.186-.458-.754-.458-.754.155-.074.333-.163.525-.274 0 0-.037.54.621.621z"/><path fill="#FFF" d="M36.758 60.196s-.236.568.458.754c-.761.391-1.618.613-2.085-.008l-.738-1.655-1.825 6.858s.827 1.944.782 2.27c-.043.317-1.381.458-1.381.458l-1.39 4.206c-.636.502-1.249-.097-1.249-.097l1.479-4.064-2.957.51s-.563-.369-.392-1.05l3.119-.658.141-2.912s-1.087-.14-.806-1.618c.258-1.39 1.168-2.838 1.278-3.016l.015-.016-.015.016c-.141.118-1.116.931-2.483.931.044-.066.259-.391.147-.96a3.66 3.66 0 0 0 .451-.082c1.176-.303 2.04-2.35 2.313-3.074 0 0 1.516 1.708 4.08.798-.037.82-.207 1.959-.03 2.313.149.288.512.339 1.088.096z"/><path fill="#1D75B8" d="M35.701 57.144c.022.154.022.385 0 .643-2.564.91-4.08-.798-4.08-.798.059-.155.089-.252.089-.252s.103-.199.442-.458c0-.001.998 1.677 3.549.865z"/><path fill="#FFF" d="M35.671 57.018a.543.543 0 0 1 .03.126c-2.551.813-3.549-.865-3.549-.865.127-.088.281-.191.474-.288 0 0 1.108 1.212 2.854.599.081.154.147.303.191.428z"/><path fill="#1D75B8" d="M35.228 56.138c.081.148.171.304.252.451-1.745.613-2.854-.599-2.854-.599.192-.104.421-.207.702-.295.06.088.518.783 1.9.443z"/><path fill="#FFF" d="M34.807 55.48s.207.295.421.657c-1.382.34-1.84-.354-1.899-.442a6.65 6.65 0 0 1 .739-.215s-.126-1.848.495-1.974c.613-.125.244 1.974.244 1.974z"/><path fill="#726658" d="M30.579 73.079l.88 1.848-.88.635-1.249-2.579c0-.001.613.598 1.249.096z"/><path fill="#1D75B8" d="M28.856 60.145c.111.569-.104.894-.147.96h-.008c-.185 0-.377-.014-.576-.051.303-.407.199-.909.199-.909.163.013.34.021.532 0z"/><path fill="#FFF" d="M28.324 60.145s.104.502-.199.909a3.974 3.974 0 0 1-1.449-.569l.37-.88c0-.001.458.458 1.278.54z"/><path fill="#726658" d="M27.852 69.428v1.02h-.783V68.46l.392-.081c-.172.68.391 1.049.391 1.049z"/><g><path fill="#726658" d="M30.609 68.107s-.733 2.313-.662 3.193c.072.878 1.051.518 1.051.518s1.973-3.304 1.906-3.711c-.067-.408-2.037-.892-2.295 0z"/></g><g><path fill="#988279" d="M30.609 61.053s-1.992 2.361-.968 3.639c1.024 1.279 1.855 2.158-1.192 3.068 0 0-.879.927 0 1.681 0 0 4.976-.123 5.146-1.036.414-2.217-1.091-2.053 0-6.114l-2.986-1.238z"/></g><g><path fill="#5F3B18" d="M33.931 54.367s.9.015 1.298-.123c0 0-.094-.801-.649-.816s-.649.939-.649.939z"/></g></g><g><path fill="#A5A7AA" d="M31.209 60.651a.496.496 0 0 1-.368-.828c1.3-1.443 1.292-3.721 1.292-3.742a.497.497 0 0 1 .49-.502c.289.015.498.217.502.489.001.109.016 2.683-1.547 4.42a.491.491 0 0 1-.369.163z"/></g><g><path fill="#A5A7AA" d="M34.395 61.036a.496.496 0 0 1-.494-.469c-.115-2.075 1.288-4.294 1.348-4.387a.496.496 0 0 1 .836.535c-.013.021-1.291 2.046-1.193 3.798a.495.495 0 0 1-.468.522l-.029.001z"/></g></g><g opacity=".7"><path fill="#D0D1D2" d="M222.312 24.476l.495.02-.168 4.274-.496-.02zM219.229 25.717l1.95 2.98-.414.271-1.951-2.98z"/><path fill="#D0D1D2" d="M222.716 25.43l-3.927-19.146.486-.099 3.666 17.873 8.315-14.27.43.25zM218.928 26.317l-17.474-8.076.208-.449 16.422 7.589-6.255-18.326.47-.161z"/><path fill="#D0D1D2" d="M210.795 17.831l-9.391-2.529.129-.479 8.562 2.307-2.473-9.305.48-.128z"/><path fill="#D0D1D2" d="M204.868 11.339l13.818 14.343-.358.345-13.818-14.343zM224.178 16.092l-1.391-11.251.492-.061 1.231 9.958 4.789-6.926.407.282z"/><path fill="#D0D1D2" d="M225.61 6.044l.49.079-3.016 18.66-.49-.078z"/><path fill="#E9642A" d="M223.441 25.075c-.16.312-.547.45-2.143.46-1.598.01-1.68.209-1.976.618-.295.406-2.765.682-2.272-.197.721-1.282 1.598-2.724 4.439-2.385 2.841.338 2.214.993 1.952 1.504z"/><path fill="#F08354" d="M229.033 1.785s2.117-.586 3.088 1.475c0 0 2.697.644 2.138 3.142-.561 2.497-2.378 4.073-2.378 4.073s-1.59 1.252-2.678-.735c0 0-1.97.459-2.855-1.091 0 0-1.873.835-3.044-1.132 0 0-1.506 1.23-3.184-.117 0 0-2.144 1.348-3.844-.26 0 0-1.076 1.521-3.128.445 0 0-1.096 2.146-2.948 1.154 0 0 .315 2.274-2.712 2.072 0 0-.215 1.94-2.779 1.988 0 0 .066 1.995-1.557 2.765 0 0 1.178 1.654-.465 2.875-1.643 1.218-2.863-.423-2.936-2.093 0 0-1.673-.639-1.16-2.279 0 0-1.726-2.226.367-3.249 0 0-.646-1.656 1.535-1.992 0 0-.244-2.337 2.031-2.297 0 0 .428-1.976 2.936-1.552 0 0 .457-2.205 2.757-1.729 0 0 1.013-1.769 3.022-.685 0 0 .814-1.853 2.729-1.143 0 0 1.024-1.551 2.941-.485 0 0 1.515-1.545 3.39-.47 0 0 1.601-1.209 2.601.267 0 0 1.832-1 2.695.466.001.001 2.415-1.328 3.438.587z"/><path fill="#E9642A" d="M199.752 16.347c1.742 1.134 2.395-1.445 2.395-1.445 1.81-.154 2.043-3.076 2.043-3.076 1.859.155 2.897-1.963 2.897-1.963 2.253.283 2.737-2.301 2.737-2.301 1.705.697 2.894-1.06 2.894-1.06 1.681.878 3.411-.182 3.411-.182 1.628 1.009 4.602-.086 4.602-.086.957 1.153 3.05.5 3.05.5 1.034 1.163 3.258.24 3.258.24 1.214 1.738 3.179 1.44 3.179 1.44 2.895-.259 1.904-5.155 1.904-5.155s2.697.644 2.138 3.142c-.561 2.497-2.378 4.073-2.378 4.073s-1.59 1.252-2.678-.735c0 0-1.97.459-2.855-1.091 0 0-1.873.835-3.044-1.132 0 0-1.506 1.23-3.184-.117 0 0-2.144 1.348-3.844-.26 0 0-1.076 1.521-3.128.445 0 0-1.096 2.146-2.948 1.154 0 0 .315 2.274-2.712 2.072 0 0-.215 1.94-2.779 1.988 0 0 .066 1.995-1.557 2.765 0 0 1.178 1.654-.465 2.875-1.643 1.219-2.864-.421-2.936-2.091z"/><g><path fill="#808083" d="M220.647 28.694c.09.636.718 1.07 1.403.973.685-.097 1.166-.689 1.076-1.324l-.117-.819c-.089-.635-.717-1.07-1.402-.974-.685.098-1.166.691-1.076 1.326l.116.818z"/></g><g><path fill="#FFF" d="M219.054 28.828l-.3.301s.188.161.446.338c.335-.041.315-.315.315-.315a5.11 5.11 0 0 1-.461-.324z"/><path fill="#998379" d="M219.2 29.467c.105.067.226.144.35.207.354-.094.233-.384.233-.384a3.53 3.53 0 0 1-.268-.139c.001 0 .02.275-.315.316z"/><path fill="#726658" d="M219.783 29.29s.12.29-.233.384c.388.199.823.313 1.06-.004l.375-.842.93 3.487s-.422.988-.399 1.153c.023.162.703.233.703.233l.706 2.139c.324.255.636-.049.636-.049l-.751-2.067 1.503.26s.286-.188.198-.533l-1.586-.336-.07-1.479s.553-.072.409-.823c-.132-.702-.594-1.443-.65-1.533l-.007-.008.007.008c.057.049.56.474 1.263.474-.022-.034-.131-.2-.075-.488a1.927 1.927 0 0 1-.229-.042c-.597-.154-1.037-1.195-1.176-1.563 0 0-.771.868-2.074.406.019.417.105.995.015 1.176-.078.146-.262.172-.555.047z"/><path fill="#726658" d="M220.32 27.739a1.458 1.458 0 0 0 0 .326c1.304.462 2.074-.406 2.074-.406-.03-.078-.045-.128-.045-.128s-.053-.105-.226-.229c-.045.068-.562.831-1.803.437z"/><path fill="#726658" d="M220.335 27.675a.302.302 0 0 0-.015.064c1.24.394 1.758-.369 1.804-.438v-.003a1.783 1.783 0 0 0-.241-.147s-.563.617-1.45.306a1.519 1.519 0 0 0-.098.218z"/><path fill="#998379" d="M220.561 27.228c-.045.071-.09.15-.128.229.888.312 1.45-.306 1.45-.306a2.381 2.381 0 0 0-.356-.153c-.001 0-.214.413-.966.23z"/><path fill="#FFF" d="M220.775 26.894s-.105.149-.215.334c.752.184.966-.229.966-.229a3.603 3.603 0 0 0-.376-.104s.064-.939-.252-1.004c-.311-.065-.123 1.003-.123 1.003z"/><path fill="#5B4A42" d="M222.924 35.841l-.447.939.447.323.636-1.312c0 .001-.312.305-.636.05z"/><path fill="#998379" d="M223.8 29.265c-.056.288.053.454.075.488h.004c.094 0 .191-.008.293-.026-.154-.206-.102-.462-.102-.462a1.52 1.52 0 0 1-.27 0z"/><path fill="#FFF" d="M224.07 29.265s-.053.256.102.462c.229-.038.478-.128.737-.29l-.188-.447c0-.001-.234.233-.651.275z"/><path fill="#5B4A42" d="M224.312 33.984v.519h.397v-1.012l-.199-.04c.088.346-.198.533-.198.533z"/><g><path fill="#209076" d="M222.908 33.313s.373 1.177.336 1.625c-.036.446-.533.263-.533.263s-1.002-1.68-.97-1.888c.034-.207 1.036-.452 1.167 0z"/></g><g><path fill="#2CAD8E" d="M222.908 29.728s1.013 1.2.492 1.851c-.521.648-.943 1.097.606 1.559 0 0 .446.472 0 .854 0 0-2.53-.062-2.616-.525-.211-1.127.555-1.045 0-3.108l1.518-.631z"/></g><g><path fill="#5F3B18" d="M221.109 26.208s-.689-.019-.772-.474c-.082-.453.532.104.705 0 .172-.103.459.377.067.474z"/></g></g><g><path fill="#A5A7AA" d="M222.603 29.521a.249.249 0 0 1-.185-.083c-.793-.883-.785-2.188-.784-2.244a.247.247 0 0 1 .248-.245h.003a.249.249 0 0 1 .245.251c0 .012-.004 1.17.657 1.907a.248.248 0 0 1-.184.414z"/></g><g><path fill="#A5A7AA" d="M220.984 29.715h-.015a.248.248 0 0 1-.233-.262c.049-.893-.602-1.925-.608-1.935a.25.25 0 0 1 .075-.343.25.25 0 0 1 .343.076c.03.047.743 1.175.685 2.229a.248.248 0 0 1-.247.235z"/></g></g></svg>