<svg xmlns="http://www.w3.org/2000/svg" width="320" height="177.974" viewBox="0 0 320 177.974"><path fill="#FFF" d="M1.354 161.611h2.36v16.049h-2.36zM11.266 161.611h2.357v16.049h-2.357z"/><path fill="#458A77" d="M0 155.949h14.863v5.662H0zM0 166.095h14.863v2.519H0z"/><path fill="#FFF" d="M35.336 161.611h2.36v16.049h-2.36zM45.248 161.611h2.361v16.049h-2.361z"/><path fill="#458A77" d="M33.98 155.949h14.867v5.662H33.98zM33.98 166.095h14.867v2.519H33.98z"/><path fill="#FFF" d="M11.266 157.677H37.62v2.205H11.266z"/><path fill="#F1F1F1" d="M32.071 159.882h-2.909l-12.409 17.704h2.908"/><path fill="#FFF" d="M32.071 177.66h-2.909l-12.349-17.778h2.908z"/><path fill="#FFF" d="M19.525 167.508h9.834v2.205h-9.834zM59.497 161.611h2.358v16.049h-2.358zM69.407 161.611h2.362v16.049h-2.362z"/><path fill="#458A77" d="M58.141 155.949h14.863v5.662H58.141zM58.141 166.095h14.863v2.519H58.141z"/><path fill="#FFF" d="M93.482 161.611h2.356v16.049h-2.356zM103.389 161.611h2.361v16.049h-2.361z"/><path fill="#458A77" d="M92.122 155.949h14.866v5.662H92.122zM92.122 166.095h14.866v2.519H92.122z"/><path fill="#FFF" d="M69.407 157.677H95.76v2.205H69.407z"/><path fill="#F1F1F1" d="M90.212 159.882h-2.907L74.953 177.66h2.909"/><path fill="#FFF" d="M90.212 177.66h-2.907l-12.352-17.778h2.909z"/><path fill="#FFF" d="M77.665 167.508H87.5v2.205h-9.835z"/><g><path fill="#2CB393" d="M91.201 148.763s-4.618 1.368-8.21-2.396c-3.593-3.764 2.223-1.881 2.223-1.881s-7.474-2.909-3.394-4.789c0 0-3.437-3.25-1.218-3.594 0 0-5.309-4.618-1.888-5.815 0 0-3.592-7.012.342-5.303 0 0-4.447-3.763-.684-4.446 0 0-6.842-3.85-2.651-4.877 0 0-6.244-4.703-3.25-5.301 0 0-1.539-4.448.94-3.678 0 0-1.111-2.994 1.283-2.652 0 0 .94-1.936 2.907-.026 0 0 1.026-2.625 3.079-1.428 0 0-2.779-4.618.75-3.934 0 0-2.033-3.764.533-3.506 0 0-1.025-2.907.085-4.448 1.112-1.539 2.311 3.25 2.311 3.25s-.343-3.175 1.454-3.555c1.795-.38 2.65 3.896 2.65 3.896s-1.026-4.617 1.539-4.961c0 0-1.967-5.815-.17-5.729 1.795.086 2.052 2.479 2.052 2.479s-2.138-7.525.514-7.44c0 0 .085-3.677 1.539-3.592s1.368 1.796 1.368 1.796.428-2.397 1.968-1.798c1.538.6.77 4.45.77 4.45s.513-1.455 1.625-1.112c1.112.342.427 5.303.427 5.303s.856-1.883 2.054-1.198c1.196.685 0 7.271 0 7.271s1.112-2.994 3.249-2.651c0 0 .086-3.079 1.626-2.994 1.54.086.428 4.191.428 4.191s1.026-3.164 2.394-2.396c1.369.771 0 5.475 0 5.475s.941-1.369 2.14-.513c1.196.855-1.198 8.637-1.198 8.637s1.626-2.822 2.652-2.309c1.025.514 0 4.19 0 4.19s.855-1.453 2.138-1.026c1.283.428.513 2.054.513 2.054s1.369-1.968 2.736-1.54c1.369.428-1.711 5.73-1.711 5.73s1.113-1.625 2.652-.598c1.54 1.025-2.309 5.045-2.309 5.045s2.266-1.54 2.672-.684c.406.854-2.074 3.848-2.074 3.848s1.883-2.224 3.08-1.624c1.197.599-.514 4.104-.514 4.104s1.797-2.223 3.164-1.197c1.369 1.026-1.71 5.047-1.71 5.047s2.138-.856 2.822.427c.685 1.282-3.335 5.646-3.335 5.646s3.848 2.223-1.027 5.645c0 0 2.395-.855 3.079.256.685 1.113-1.71 3.165-1.71 3.165s1.283-.257 1.625.685-1.54 2.479-1.54 2.479 1.454 0 1.368 1.283c-.086 1.282-3.762 3.421-3.762 3.421s1.453-.086 1.111 2.053c-.343 2.138-7.868 2.737-7.868 2.737s-1.968 3.249-5.731 1.882c0 0-2.736 2.126-5.131.336 0 0-3.422 2.059-5.218.005.001 0-4.276 1.026-5.559-1.795z"/><path fill="#209076" d="M121.991 138.841s1.454 0 1.368 1.283c-.086 1.282-3.762 3.421-3.762 3.421s1.453-.086 1.111 2.053c-.343 2.138-7.868 2.737-7.868 2.737s-1.968 3.249-5.731 1.882c0 0-2.736 2.126-5.131.336 0 0-3.422 2.059-5.218.005 0 0-4.276 1.026-5.56-1.795 0 0-4.618 1.368-8.21-2.396-3.593-3.764 2.223-1.881 2.223-1.881s-7.474-2.909-3.394-4.789c0 0-3.437-3.25-1.218-3.594 0 0-5.309-4.618-1.888-5.815 0 0-3.592-7.012.342-5.303 0 0-4.447-3.763-.684-4.446 0 0-6.842-3.85-2.651-4.877 0 0-6.244-4.703-3.25-5.301 0 0-1.539-4.448.94-3.678 0 0-1.111-2.994 1.283-2.652 0 0 .94-1.936 2.907-.026 0 0 1.026-2.625 3.079-1.428 0 0-2.779-4.618.75-3.934 0 0-2.033-3.764.533-3.506 0 0-1.025-2.907.085-4.448 1.112-1.539 2.311 3.25 2.311 3.25s-.343-3.175 1.454-3.555c1.795-.38 2.65 3.896 2.65 3.896s-1.026-4.617 1.539-4.961c0 0-1.967-5.815-.17-5.729 1.795.086 2.052 2.479 2.052 2.479s-2.138-7.525.514-7.44c0 0 .085-3.677 1.539-3.592s1.368 1.796 1.368 1.796-1.104 10.974-.573 14.274c0 0-.88-2.943-1.992-2.024-1.112.921.36 6.008.36 6.008s1.301 3.86 0 4.049c0 0-.274-2.635-1.643-2.024-1.368.611-.856 4.652-.856 4.652s-.422-2.817-1.879-2.373c-1.456.446-1.028 5.243-1.028 5.243s-.129-5.225-2.309-3.687c-2.182 1.54 0 5.004 0 5.004s1.196 2.792 0 4.025c0 0-1.541-3.769-3.207-2.471-1.668 1.298 1.153 4.941 1.153 4.941l2.888 3.895s-1.519-1.966-2.802-1.111c-1.283.855.998 6.501.998 6.501s-1.084-3.849-2.766-3.232c-1.683.618.912 3.87.912 3.87l2.737 3.988s-1.938-1.762-2.851-1.227c-.913.534 3.771 10.071 3.771 10.071s-2.375-4.619-3.471-3.209 1.161 4.49 1.161 4.49 4.401 5.201 8.744 6.544c6.41 1.981 17.32 3.337 29.34-4.189z"/><path fill="#209076" d="M88 131.5s-.129-.162-.313-.465c-.172-.308-.45-.738-.692-1.298a10.248 10.248 0 0 1-.673-1.992c-.078-.385-.164-.791-.165-1.233 0-.441.011-.919.252-1.459.13-.26.333-.539.629-.726l.026-.019.128-.063.008-.003.034-.013.069-.026.137-.053c.019-.016.152-.04.265-.051.114-.012.232-.013.346-.004.392.059.653.223.848.393.227.166.335.348.491.521.254.346.424.704.561 1.038.141.332.247.649.34.942.191.582.242 1.099.305 1.444.047.353.047.561.047.561l-.076.021s-.22-.758-.703-1.837c-.246-.532-.553-1.157-1.01-1.728-.236-.265-.525-.546-.876-.598-.085.01-.164-.029-.255.012-.083.036-.198.076-.256.109-.153.1-.263.254-.343.421-.163.339-.2.735-.204 1.116-.002.383.037.762.092 1.125.111.728.281 1.397.443 1.965.327 1.137.621 1.87.621 1.87l-.076.03zM92.876 130.477s-.512-.571-.976-1.605a6.906 6.906 0 0 1-.329-.86 5.692 5.692 0 0 1-.229-1.036c-.031-.379-.075-.787.032-1.235.069-.44.331-.938.737-1.316a5.66 5.66 0 0 1 .352-.212l.09-.049.045-.023.022-.013.011-.005.006-.004c.045-.014-.094.031.104-.035l.131-.03c.096-.022.158-.045.279-.063.181-.015.373-.007.553.019.68.163.988.664 1.189 1.029.34.773.369 1.448.373 2.021a6.984 6.984 0 0 1-.137 1.358 4.51 4.51 0 0 1-.125.506l-.079-.002s.021-.726-.132-1.795c-.084-.53-.201-1.162-.509-1.751-.168-.278-.404-.547-.726-.619l-.238-.017c-.083.011-.172.043-.259.064l-.13.035c-.016.016-.067.043-.099.063l-.219.134c-.242.236-.439.533-.499.879-.086.335-.087.685-.078 1.019.037.671.183 1.288.323 1.81.291 1.041.588 1.701.588 1.701l-.071.032zM97.664 130.473s-.44-.563-.84-1.529a7.078 7.078 0 0 1-.286-.797 5.99 5.99 0 0 1-.226-.938c-.049-.335-.109-.69-.082-1.08.011-.193.022-.39.078-.607.029-.205.128-.441.24-.666.049-.11.17-.224.261-.327a.973.973 0 0 1 .344-.267l.201-.1.102-.045.025-.01.013-.006a1.89 1.89 0 0 1 .112-.025h.004l.031-.004.247-.033c.106-.01.363.017.53.066.194.049.281.148.416.232.135.087.192.19.274.289.086.104.144.202.184.297.205.391.229.738.275 1.06.031.319.023.615.002.882-.081 1.063-.375 1.716-.375 1.716l-.079-.007s.063-.67-.021-1.672a8.017 8.017 0 0 0-.112-.8c-.069-.274-.137-.573-.296-.833-.143-.263-.396-.485-.693-.477-.354.012-.584.195-.762.462-.153.277-.222.605-.242.929-.026.324-.012.646.017.959.058.623.172 1.199.282 1.689.23.979.45 1.615.45 1.615l-.074.027zM112.33 109.615s-.127-.704-.03-1.746c.025-.26.053-.543.118-.839.055-.298.124-.612.236-.934.113-.319.225-.662.432-.993.101-.167.202-.336.353-.501.121-.169.317-.331.522-.479.096-.073.254-.117.383-.167a.959.959 0 0 1 .428-.075l.225.004.111.008.027.003.014.002a3.64 3.64 0 0 1 .111.029l.004.002.029.011.233.087c.099.04.313.184.438.305.149.135.181.263.261.399.078.14.081.259.108.386.028.131.032.244.023.348 0 .439-.141.76-.25 1.066a5.046 5.046 0 0 1-.408.779c-.568.903-1.132 1.343-1.132 1.343l-.067-.041s.368-.565.761-1.489c.098-.23.189-.486.273-.76.066-.274.146-.571.128-.875-.004-.301-.126-.615-.392-.745-.32-.155-.608-.101-.891.054-.264.173-.479.432-.646.709a5.486 5.486 0 0 0-.432.855c-.24.578-.408 1.142-.539 1.627-.252.975-.354 1.638-.354 1.638l-.077-.011zM102.665 99.143s-.263-.482-.399-1.256a5.232 5.232 0 0 1-.075-1.357c.027-.255.045-.528.146-.815.093-.281.217-.601.517-.917.167-.138.375-.305.627-.346l.188-.036.093-.014.024-.003h.011l.117.005.023.005.182.025c.084.016.307.096.434.18.154.091.201.188.293.29.09.106.113.199.158.299a.976.976 0 0 1 .076.274c.072.352.008.611-.029.859-.051.239-.127.45-.205.637-.311.743-.702 1.129-.702 1.129l-.074-.027s.173-.466.31-1.191c.061-.359.129-.801.027-1.234-.051-.212-.187-.411-.387-.459-.258-.061-.436.024-.615.174a1.644 1.644 0 0 0-.35.605 4.193 4.193 0 0 0-.178.681 9.832 9.832 0 0 0-.134 1.254c-.03.741.001 1.235.001 1.235l-.079.003zM95.967 93.136s-.263-.483-.399-1.257a5.277 5.277 0 0 1-.075-1.357c.027-.254.045-.529.146-.815.093-.281.219-.6.517-.917.168-.137.376-.305.627-.346l.188-.036.094-.013.023-.002.012-.002.117.006.022.004.182.027c.084.014.307.094.435.178.153.092.201.188.293.291.09.105.113.199.157.299a.969.969 0 0 1 .077.275c.072.351.008.61-.03.857-.05.238-.126.45-.204.637-.311.743-.703 1.129-.703 1.129l-.074-.027s.174-.464.31-1.191c.061-.359.13-.8.027-1.233-.05-.214-.186-.411-.386-.46-.259-.061-.437.025-.615.176-.16.161-.272.378-.351.604a4.125 4.125 0 0 0-.178.682 9.808 9.808 0 0 0-.133 1.252c-.03.742 0 1.235 0 1.235l-.079.004zM92.723 107.523s-.44-.563-.84-1.529a6.886 6.886 0 0 1-.287-.798c-.09-.288-.176-.6-.225-.937-.049-.334-.109-.691-.082-1.08.011-.192.022-.391.078-.607.028-.205.127-.441.24-.666.049-.11.17-.223.261-.327a.95.95 0 0 1 .344-.266l.201-.101.102-.044.025-.012.013-.005.112-.025.004-.001.031-.004.247-.03a1.75 1.75 0 0 1 .53.065c.193.05.28.147.415.233s.191.188.275.288c.087.103.144.201.182.297.207.39.231.738.278 1.061.029.318.021.613.001.88-.082 1.064-.375 1.717-.375 1.717l-.079-.007s.062-.67-.021-1.673a7.96 7.96 0 0 0-.112-.799c-.069-.275-.138-.574-.295-.834-.144-.264-.397-.486-.694-.477-.354.012-.584.194-.763.462-.152.276-.221.606-.241.93-.026.323-.012.647.016.958.058.623.173 1.199.283 1.689.23.98.45 1.615.45 1.615l-.074.027zM114.752 126.35s.01-.707.086-1.702l.05-.796c.02-.278.021-.569.032-.861.012-.291-.015-.59-.035-.861a1.62 1.62 0 0 0-.172-.651c-.01-.05-.039-.038-.048-.067-.009-.027-.022-.046-.044-.042a.042.042 0 0 1-.021-.017l-.009-.013-.003-.004-.001-.002.105.023-.003-.001-.031-.006-.246-.043c-.057.001.039.037.045.012.026-.036-.003.007-.012-.008-.018-.017-.041.03-.066.046a.215.215 0 0 0-.084.096c-.117.154-.223.414-.314.649-.074.251-.153.496-.213.734l-.393 1.642-.078.006s-.072-.673-.004-1.686a7.55 7.55 0 0 1 .103-.814c.067-.284.13-.591.296-.876.146-.28.434-.564.826-.554l.246.035c.105.021.168.075.255.113a.48.48 0 0 1 .21.165c.055.07.135.128.167.211.17.315.231.662.249.998.022.336.002.665-.03.98a13.025 13.025 0 0 1-.312 1.703c-.244.98-.476 1.615-.476 1.615l-.075-.024zM96.525 107.523s-.439-.563-.841-1.529a6.89 6.89 0 0 1-.286-.798c-.09-.288-.176-.6-.225-.937-.049-.334-.109-.691-.082-1.08a2.87 2.87 0 0 1 .078-.607c.029-.205.127-.441.24-.666.049-.11.17-.223.26-.327a.968.968 0 0 1 .344-.266l.201-.101.102-.044.025-.012.013-.005.112-.025.006-.001.029-.004.247-.03a1.75 1.75 0 0 1 .53.065c.194.05.281.147.416.233s.192.188.276.288c.085.103.142.201.181.297.207.39.231.738.278 1.061.029.318.021.613.001.88-.082 1.064-.375 1.717-.375 1.717l-.079-.007s.062-.67-.021-1.673a8.276 8.276 0 0 0-.113-.799c-.069-.275-.137-.574-.295-.834-.143-.264-.397-.486-.694-.477-.354.012-.584.194-.762.462-.153.276-.222.606-.241.93-.027.323-.013.647.016.958.058.623.172 1.199.283 1.689.23.98.449 1.615.449 1.615l-.073.027zM103.652 113.22s-.439-.464-.846-1.3c-.099-.211-.207-.44-.289-.698-.087-.255-.182-.528-.225-.837a3.445 3.445 0 0 1-.063-.476 2.036 2.036 0 0 1 .002-.523c.029-.354.133-.806.479-1.204.096-.092.198-.182.304-.259.115-.057.235-.108.355-.153l.091-.032.045-.016.012-.004.006-.002.1-.017.014-.002.109-.008c.088-.003.113-.02.251-.011.702.024 1.036.456 1.249.783.215.347.247.667.297.958.038.289.029.555.012.793-.078.951-.373 1.52-.373 1.52l-.079-.007s.063-.59-.021-1.467a5.815 5.815 0 0 0-.119-.697c-.071-.237-.141-.499-.297-.714-.145-.215-.373-.4-.633-.409-.125.009-.313.004-.408.063l-.188.081-.146.139c-.182.196-.276.479-.304.758a3.44 3.44 0 0 0-.002.836c.053.546.169 1.05.282 1.477.234.853.457 1.399.457 1.399l-.072.029zM106.813 134.228s-.297-.626-.407-1.638a6.097 6.097 0 0 1 .037-1.766c.066-.327.136-.68.301-1.023.166-.342.362-.706.7-1.004.153-.157.36-.266.561-.374l.074-.04.02-.01.009-.005.005-.002.092-.032.029-.008.116-.033c.094-.02.113-.042.27-.061.738-.133 1.258.374 1.451.739.23.388.262.733.303 1.046.033.311.021.597-.003.854-.095 1.026-.397 1.645-.397 1.645l-.08-.008s.072-.642.002-1.603a6.522 6.522 0 0 0-.106-.766c-.063-.264-.138-.549-.3-.788-.146-.24-.419-.426-.703-.377a1.538 1.538 0 0 0-.81.409c-.24.196-.403.475-.546.748a4.727 4.727 0 0 0-.311.861 8.747 8.747 0 0 0-.235 1.622c-.056.962.009 1.604.009 1.604l-.081.01z"/><path fill="#71BAA1" d="M79.242 117.177s-.521-.455-1.026-1.337a6.12 6.12 0 0 1-.67-1.635c-.069-.327-.146-.679-.132-1.059.017-.38.051-.792.242-1.201.077-.203.224-.385.364-.564l.054-.067.013-.016.007-.009.003-.004.071-.067.023-.019.094-.075c.079-.057.089-.085.224-.163.624-.418 1.304-.159 1.626.099.365.265.533.568.694.839.153.272.257.538.337.784.322.979.29 1.668.29 1.668l-.075.024s-.189-.619-.637-1.473a6.12 6.12 0 0 0-.402-.66c-.164-.215-.346-.448-.589-.602-.231-.163-.555-.227-.796-.065-.26.177-.462.405-.579.697-.143.274-.181.596-.203.903-.015.312.015.619.059.914.096.592.267 1.129.431 1.581.333.905.648 1.468.648 1.468l-.071.039z"/><path fill="#209076" d="M104.451 121.172s-.297-.625-.408-1.636a6.204 6.204 0 0 1 .037-1.766c.068-.327.138-.681.301-1.023.167-.342.362-.706.701-1.004.152-.157.359-.267.56-.373l.075-.04.02-.011.009-.005.005-.002.092-.033.029-.008.115-.031c.095-.02.115-.043.271-.062.738-.134 1.259.374 1.452.739.23.388.262.732.303 1.046.031.311.02.597-.004.853-.094 1.027-.398 1.646-.398 1.646l-.078-.009s.072-.642.002-1.603a6.522 6.522 0 0 0-.106-.766c-.063-.265-.138-.549-.301-.788-.146-.241-.418-.427-.704-.377a1.539 1.539 0 0 0-.809.409c-.24.194-.403.475-.545.748a4.732 4.732 0 0 0-.312.861 8.827 8.827 0 0 0-.236 1.622c-.054.962.011 1.603.011 1.603l-.082.01zM89.885 115.256s-.531-.414-1.104-1.211a7.4 7.4 0 0 1-.839-1.474c-.117-.294-.245-.608-.31-.96-.058-.358-.123-.733-.035-1.189.029-.218.141-.458.277-.682.056-.114.175-.203.268-.297l.152-.134.039-.032.005-.004.087-.049.007-.004.013-.007.053-.023.211-.096c.159-.046.33-.075.494-.085.299.012.564.096.758.227.4.252.593.574.736.85.154.279.232.549.301.794.133.492.162.906.17 1.195.006.29-.014.458-.014.458l-.077.018s-.131-.618-.513-1.475c-.203-.406-.453-.941-.938-1.23-.25-.131-.525-.159-.799.029a.96.96 0 0 0-.454.701c-.068.292-.032.606.009.905.053.3.13.591.221.87.182.555.404 1.058.607 1.482.41.848.742 1.381.742 1.381l-.067.042z"/><path fill="#71BAA1" d="M90.564 101.771s-.292-.47-.475-1.236a5.836 5.836 0 0 1-.176-1.345 4.23 4.23 0 0 1 .287-1.659c.068-.146.166-.3.256-.444.139-.146.233-.3.424-.415.09-.06.182-.117.275-.164l.018-.009.083-.032.007-.002.021-.004.045-.009.089-.021.088-.02c.063-.009.13-.016.194-.019.126-.004.269-.013.368.022.46.088.73.418.871.656.16.251.214.489.258.701a3.043 3.043 0 0 1-.057 1.363l-.079.008s-.014-.123-.056-.336a4.793 4.793 0 0 0-.249-.858 2.106 2.106 0 0 0-.289-.512c-.124-.16-.296-.313-.512-.337a.867.867 0 0 0-.623.182c-.185.134-.31.345-.406.566-.372.904-.36 1.936-.36 2.673.017.747.076 1.241.076 1.241l-.078.01z"/><path fill="#209076" d="M93.064 121.183s-.489-.599-.911-1.664a5.812 5.812 0 0 1-.292-.885 4.781 4.781 0 0 1-.178-1.069c-.019-.384-.022-.82.158-1.291.125-.474.646-.988 1.169-1.152.108-.035.415-.084.556-.052.178.012.347.07.49.136.295.139.488.329.646.508.318.362.473.739.619 1.086.271.703.394 1.359.459 1.925.137 1.128.022 1.89.022 1.89l-.079.013s-.112-.723-.402-1.779a10.955 10.955 0 0 0-.631-1.751c-.145-.306-.317-.615-.553-.873-.221-.264-.564-.445-.881-.35-.32.112-.604.346-.71.686a2.75 2.75 0 0 0-.168 1.01c-.001.678.118 1.309.238 1.841.249 1.065.521 1.745.521 1.745l-.073.026zM101.254 126.995s-.237-.609-.313-1.56a6.435 6.435 0 0 1 .052-1.652c.059-.307.115-.639.274-.979.157-.327.384-.753.93-1.021.073-.025.148-.046.224-.066l.113-.025.057-.013.028-.005.137.002h.008l.226.026c.128.026.334.103.481.186.166.088.204.158.308.242.33.328.461.675.578.979.12.309.174.607.217.886.052.275.064.539.07.778.031.959-.151 1.588-.151 1.588l-.078.006s-.048-.607-.237-1.498c-.098-.443-.226-.961-.455-1.476-.113-.257-.259-.515-.465-.707a.929.929 0 0 0-.34-.21l-.228-.02-.181.055c-.247.114-.429.362-.555.623a4.574 4.574 0 0 0-.285.816 10.508 10.508 0 0 0-.251 1.531c-.089.906-.084 1.515-.084 1.515h-.08zM98.006 135.99s-.41-.393-.728-1.16a3.6 3.6 0 0 1-.206-.65 2.772 2.772 0 0 1-.071-.816c.028-.299.072-.652.302-.99.226-.329.582-.628.983-.72.056-.034.435-.067.671-.036.188.05.402.096.547.185.334.152.541.382.74.582.377.417.602.849.757 1.228.316.758.328 1.321.328 1.321l-.071.034s-.219-.461-.651-1.088a5.853 5.853 0 0 0-.833-.984c-.176-.153-.365-.31-.588-.401-.225-.104-.447-.15-.685-.079-.238.041-.43.208-.571.389-.136.195-.201.428-.238.657-.069.462-.007.909.057 1.28a7.12 7.12 0 0 0 .332 1.222l-.075.026zM106.774 112.457s-.328-.572-.438-1.544c-.054-.485-.065-1.077.156-1.74.135-.323.289-.699.635-.981.154-.156.354-.264.558-.362.101-.059.207-.077.313-.105l.162-.038.08-.018.041-.01.02-.004.01-.002h.006l.104-.004.229.011.113.006c.039.003.144.028.213.049.153.044.317.101.44.179a2.9 2.9 0 0 1 .314.27c.336.4.421.848.438 1.18.033.353-.02.66-.068.942s-.127.536-.209.764c-.318.91-.732 1.417-.732 1.417l-.076-.024s.193-.577.34-1.472c.066-.444.133-.978.057-1.529a1.427 1.427 0 0 0-.307-.763c-.188-.218-.467-.242-.781-.238-.259.051-.563.128-.767.329-.227.176-.368.435-.49.681-.218.513-.287 1.044-.32 1.492-.056.905.04 1.507.04 1.507l-.081.007zM104.413 105.961s-.304-.535-.425-1.429a4.393 4.393 0 0 1 .045-1.586c.083-.299.164-.632.387-.941.193-.315.529-.616.928-.792.197-.085.41-.103.614-.142.337.011.267-.01.563.04.582.083.938.529 1.092.909.167.396.118.717.103 1.007a3.297 3.297 0 0 1-.186.745 4.25 4.25 0 0 1-.495.973c-.149.215-.253.328-.253.328l-.074-.03s.215-.522.353-1.349a4.75 4.75 0 0 0 .058-.669c-.016-.232-.021-.491-.137-.715-.104-.218-.303-.411-.555-.443-.115-.035-.282-.016-.399-.022-.127.036-.265.043-.384.101a1.35 1.35 0 0 0-.604.498 2.657 2.657 0 0 0-.343.707 5.758 5.758 0 0 0-.232 1.404 8.833 8.833 0 0 0 .023 1.396l-.079.01zM98.281 99.408s-.427-.529-.707-1.503a4.294 4.294 0 0 1-.162-.814 3.4 3.4 0 0 1 .029-.994c.093-.356.198-.781.554-1.122.152-.171.374-.305.575-.414l.328-.117.082-.026.041-.015.01-.002.006-.002c.049-.006-.102.012.111-.016h.015l.117-.01.241-.007c.163.02.332.057.49.11.174.046.259.135.378.215.113.083.218.17.28.268.072.096.146.192.205.291l.117.287c.087.195.097.363.144.541.063.342.058.66.047.953a5.553 5.553 0 0 1-.101.807c-.186.979-.519 1.564-.519 1.564l-.077-.012s.104-.621.119-1.562c.003-.469-.007-1.024-.146-1.587-.083-.273-.165-.574-.366-.787-.205-.209-.441-.359-.775-.291-.287.017-.58.149-.787.352-.221.197-.327.486-.415.757-.144.56-.112 1.116-.067 1.579.105.935.308 1.533.308 1.533l-.075.024z"/><path fill="#71BAA1" d="M83.302 112.477s-.578-.362-1.205-1.146a5.674 5.674 0 0 1-.472-.666 5.018 5.018 0 0 1-.422-.846c-.106-.32-.229-.667-.234-1.076a2.272 2.272 0 0 1 .326-1.303c.055-.111.156-.186.237-.277l.13-.127.066-.061.018-.016.088-.06.026-.015c.159-.077.2-.15.556-.252.595-.18 1.072.027 1.407.241.355.213.558.49.751.737a4.2 4.2 0 0 1 .416.738c.417.934.432 1.616.432 1.616l-.073.03s-.231-.595-.755-1.384c-.266-.386-.607-.845-1.11-1.131-.242-.147-.553-.219-.823-.128-.139.013-.271.124-.406.201-.099.088-.22.199-.297.32a1.521 1.521 0 0 0-.227.858c-.002.303.065.601.141.884.167.566.415 1.063.643 1.479.46.83.852 1.331.852 1.331l-.065.053zM85.352 105.977s-.574-.453-1.076-1.43a4.635 4.635 0 0 1-.33-.837c-.084-.317-.159-.668-.146-1.055.012-.194.01-.392.065-.598l.07-.31.135-.299c.186-.404.497-.747.836-1.021l.065-.051.09-.057.014-.006.028-.017.113-.059.225-.117c.308-.097.643-.193.951-.103.323.034.567.238.758.408.168.186.308.375.385.555.195.36.257.703.32 1.018.059.313.076.607.08.879.021 1.072-.201 1.76-.201 1.76l-.079.002s-.011-.682-.188-1.68c-.096-.494-.222-1.086-.531-1.627-.143-.271-.383-.52-.682-.567-.15-.054-.297.024-.447.04-.139.085-.314.162-.426.255-.257.202-.492.442-.632.734-.165.278-.221.606-.254.912-.027.311.001.614.04.9.053.282.119.548.195.789.318.964.689 1.538.689 1.538l-.067.044z"/><path fill="#209076" d="M88.221 121.188s-.14-.118-.348-.355a5.362 5.362 0 0 1-.736-1.09 3.999 3.999 0 0 1-.331-.858 2.697 2.697 0 0 1-.086-1.133c.024-.216.102-.439.205-.664.058-.109.135-.213.208-.318l.06-.075.007-.01.073-.067.012-.01.024-.02c.055-.039.008-.027.172-.122.544-.29.966-.085 1.21.051.25.153.4.312.55.47.524.645.832 1.277 1.089 1.9.254.618.434 1.207.555 1.723.254 1.026.27 1.751.27 1.751l-.075.027s-.23-.647-.633-1.595a26.808 26.808 0 0 0-.738-1.594c-.295-.568-.623-1.181-1.062-1.691-.206-.238-.512-.512-.769-.393-.255.162-.423.476-.474.775-.12.617.042 1.22.187 1.701.329.973.699 1.557.699 1.557l-.069.04z"/><path fill="#71BAA1" d="M82.532 122.398s-.544-.303-1.14-.994a4.21 4.21 0 0 1-.449-.596c-.143-.23-.295-.479-.393-.797-.102-.296-.203-.695-.078-1.172.042-.123.088-.248.148-.363a2.87 2.87 0 0 1 .268-.316c.096-.107.203-.146.311-.214l.165-.088.042-.021.126-.034.053-.012.211-.04c.102-.011.281-.007.419.009.159.011.273.047.37.09.103.044.215.082.302.137.351.214.595.494.769.751.192.257.31.525.413.772.109.246.179.487.232.71.225.886.154 1.506.154 1.506l-.076.021s-.152-.553-.512-1.33c-.182-.384-.414-.831-.75-1.239a2.163 2.163 0 0 0-.599-.526c-.249-.107-.48-.188-.772-.085-.233.072-.494.228-.546.493-.065.249-.048.526.026.777.133.51.369.957.578 1.326.43.741.79 1.188.79 1.188l-.062.047z"/><path fill="#209076" d="M98.281 114.296s-.468-.579-.895-1.587a7.184 7.184 0 0 1-.536-1.831c-.045-.359-.094-.751-.007-1.202.008-.104.064-.238.101-.355.032-.118.09-.244.186-.375.146-.258.435-.486.767-.611l.063-.019c.043-.01.116-.024.175-.03.129-.016.247-.012.331.004.192.025.357.098.49.173.271.156.439.339.58.512.283.347.428.7.572 1.028.27.664.41 1.287.491 1.826.175 1.078.101 1.817.101 1.817l-.077.017s-.151-.687-.477-1.688a12.703 12.703 0 0 0-.661-1.665 4.193 4.193 0 0 0-.531-.846c-.205-.255-.518-.48-.818-.374-.302.108-.477.42-.546.743a3.729 3.729 0 0 0-.043.993c.047.652.179 1.255.304 1.765.257 1.021.506 1.678.506 1.678l-.076.027zM94.927 86.337s-.366-.446-.595-1.26c-.115-.408-.212-.907-.117-1.518.07-.301.146-.664.449-.979.127-.166.328-.282.518-.396.098-.04.199-.072.303-.104l.154-.042.01-.003.006-.001c.049-.004-.107.007.113-.01H95.804l.049-.002.195.004c.127.017.298.061.438.115.159.054.236.128.334.204.093.075.19.155.241.238.061.083.121.167.174.253.039.084.067.165.099.247.071.167.088.311.123.461a3.988 3.988 0 0 1-.047 1.483c-.163.817-.468 1.306-.468 1.306l-.078-.012s.074-.516.069-1.294c-.006-.388-.026-.845-.149-1.308-.068-.227-.146-.47-.306-.649-.172-.171-.346-.3-.629-.258-.109-.012-.23.053-.346.077-.098.067-.213.111-.285.212-.175.166-.26.405-.328.629-.114.463-.107.921-.084 1.308.06.775.197 1.278.197 1.278l-.076.021zM102.835 141.759s-.077-.063-.18-.227a1.593 1.593 0 0 1-.221-.745c.014-.166-.005-.371.079-.559.078-.188.144-.424.311-.577.153-.168.308-.374.515-.46l.301-.166.075-.041.039-.021.02-.011.01-.004.065-.021.126-.041c.104-.032.528-.104.779-.055.277.022.541.168.742.315.211.147.337.343.439.516.1.174.151.348.186.503.128.625-.052 1.021-.052 1.021l-.078.014s-.055-.352-.294-.817c-.121-.226-.3-.483-.57-.646a.952.952 0 0 0-.451-.146 1.195 1.195 0 0 0-.492.061c-.18.03-.301.133-.465.199-.162.059-.273.183-.394.288-.135.094-.192.241-.276.362-.084.119-.097.267-.146.384-.052.253-.05.471-.034.621.021.148.042.234.042.234l-.076.019zM107.991 138.711s-.077-.063-.181-.228a1.582 1.582 0 0 1-.22-.745c.014-.166-.005-.371.079-.56.076-.188.144-.424.312-.577.151-.168.306-.373.513-.459l.301-.167.077-.04.038-.021.02-.01.01-.005.064-.021.127-.041c.103-.033.529-.104.778-.053.277.02.542.166.742.312.21.149.338.345.44.517.098.174.15.348.185.503.129.625-.051 1.021-.051 1.021l-.078.014s-.055-.352-.294-.816c-.121-.228-.301-.485-.571-.646a.944.944 0 0 0-.451-.146 1.158 1.158 0 0 0-.491.061c-.182.03-.301.133-.465.2-.163.059-.275.182-.395.286-.135.094-.191.244-.275.363-.086.119-.098.265-.146.384-.052.253-.049.47-.033.621.02.147.042.233.042.233l-.077.02zM92.274 136.505s-.422-.389-.759-1.157a3.195 3.195 0 0 1-.223-.65 2.717 2.717 0 0 1-.102-.814 2.19 2.19 0 0 1 .227-.991c.194-.336.516-.677.892-.813l.14-.059.035-.013.096-.022.012-.002.048-.009.19-.031c.137-.02.486-.014.672.042.416.106.709.376.92.616.209.247.328.51.422.747.095.237.145.468.18.677.14.837-.02 1.389-.02 1.389l-.078.013s-.072-.515-.347-1.231c-.144-.354-.331-.773-.658-1.111a1.273 1.273 0 0 0-.599-.359 1.156 1.156 0 0 0-.349-.018c-.132.032-.251.034-.354.1-.237.074-.403.264-.537.459a1.823 1.823 0 0 0-.197.684 3.07 3.07 0 0 0 .004.685c.018.218.055.423.095.611.16.754.364 1.229.364 1.229l-.074.028z"/><path fill="#71BAA1" d="M88.225 143.059s-.451-.172-.947-.633a3.692 3.692 0 0 1-.738-.926c-.104-.2-.222-.419-.279-.682-.053-.265-.105-.564-.025-.917.064-.345.318-.691.591-.894l.051-.043.026-.021.069-.043.068-.034.14-.061c.133-.052.347-.125.506-.137.336-.051.682.08.908.237.233.161.359.359.453.531.181.349.205.647.215.854.006.206-.018.324-.018.324l-.076.023s-.03-.098-.104-.263a2.69 2.69 0 0 0-.385-.634c-.189-.23-.508-.462-.877-.388a1.186 1.186 0 0 0-.506.248c-.142.123-.268.281-.292.477-.09.38.033.796.177 1.148.148.355.331.671.496.936.337.525.607.842.607.842l-.06.056z"/><path fill="#209076" d="M93.346 142.461s-.071-.074-.158-.253a1.852 1.852 0 0 1-.165-.768c.013-.163.001-.359.069-.542.065-.182.104-.406.238-.574.125-.169.222-.401.405-.528.188-.15.297-.289.563-.447.102-.045.126-.071.288-.13.148-.047.311-.11.451-.115.285-.04.589.016.827.124.251.094.427.261.571.411.144.15.236.313.309.462.279.599.196 1.038.196 1.038l-.073.029s-.136-.344-.486-.761c-.177-.202-.42-.421-.732-.52a.991.991 0 0 0-.494-.033c-.164.029-.32.092-.482.191-.149.081-.284.213-.426.315-.154.097-.238.255-.354.375-.122.119-.171.281-.254.411-.081.132-.102.281-.151.407-.14.529-.063.894-.063.894l-.079.014zM112.225 135.195s-.092-.555.099-1.346c.091-.396.248-.855.545-1.316.154-.222.319-.473.573-.671.24-.205.545-.397.906-.496.174-.061.369-.052.554-.063l.069-.002.009-.001.092.009.012.002.022.005.093.017c.072.015.099.011.208.042.582.139.893.673.938 1.061.067.403-.044.672-.119.924-.088.24-.201.443-.314.617-.45.693-.921.994-.921.994l-.066-.042s.272-.425.543-1.124c.066-.175.127-.369.176-.576.034-.205.076-.433.022-.647a.591.591 0 0 0-.407-.46 1.355 1.355 0 0 0-.707.011 1.623 1.623 0 0 0-.634.325 2.877 2.877 0 0 0-.499.506 5.754 5.754 0 0 0-.661 1.089c-.325.681-.456 1.165-.456 1.165l-.077-.023zM104.963 93.123s-.09-.556.1-1.346c.09-.397.248-.855.544-1.316.154-.224.32-.473.574-.672.24-.206.544-.397.906-.496.174-.061.37-.051.554-.064l.069-.002h.009l.092.01.012.002.022.004.093.018c.072.016.099.012.208.043.581.137.893.671.938 1.059.067.404-.044.672-.118.924a3.124 3.124 0 0 1-.314.618c-.45.693-.921.994-.921.994l-.067-.042s.273-.424.544-1.125c.067-.175.126-.368.175-.574.035-.208.077-.435.023-.649a.594.594 0 0 0-.407-.458 1.356 1.356 0 0 0-.707.009 1.632 1.632 0 0 0-.635.327 2.906 2.906 0 0 0-.499.505 5.837 5.837 0 0 0-.662 1.089c-.322.679-.455 1.165-.455 1.165l-.078-.023zM113.701 140.612s.012-.621.366-1.459c.175-.42.434-.896.85-1.35.22-.217.454-.457.781-.622a2.462 2.462 0 0 1 1.123-.31l.077-.002h.005l.117.013.007.002.013.002.026.006.104.021c.086.024.09 0 .291.092.154.07.324.171.43.275.09.104.175.217.248.332.219.452.195.849.164 1.158-.082.64-.3 1.122-.512 1.523-.422.797-.874 1.215-.874 1.215l-.071-.034s.242-.513.491-1.323c.12-.403.251-.887.271-1.406a1.55 1.55 0 0 0-.133-.763c-.115-.236-.387-.312-.651-.319a1.69 1.69 0 0 0-.778.195 3.103 3.103 0 0 0-.655.456 6.12 6.12 0 0 0-.923 1.101c-.469.706-.693 1.229-.693 1.229l-.074-.032zM116.321 128.071s.011-.62.365-1.458a4.58 4.58 0 0 1 .851-1.35c.219-.217.454-.457.781-.621a2.446 2.446 0 0 1 1.122-.311l.076-.003h.005l.117.015h.007l.013.002.027.007.104.022c.085.025.09 0 .29.09.155.072.326.172.43.276.091.104.175.218.248.332.221.451.197.849.165 1.159-.081.64-.301 1.122-.512 1.521-.422.798-.873 1.215-.873 1.215l-.073-.033s.242-.513.491-1.322c.12-.404.252-.887.271-1.408.016-.26-.021-.53-.134-.761-.115-.235-.386-.313-.651-.321-.269.005-.539.07-.778.196a3.143 3.143 0 0 0-.655.456 6.146 6.146 0 0 0-.922 1.101c-.469.707-.692 1.229-.692 1.229l-.073-.033z"/><path fill="#71BAA1" d="M107.572 145.906s-.12-.385.054-.906c.075-.266.239-.554.481-.818.131-.121.257-.27.43-.358.162-.108.346-.184.527-.261.189-.056.387-.082.573-.113.188-.01.376.008.548.025a2.3 2.3 0 0 1 .866.324c.235.121.384.306.493.413.104.117.155.194.155.194l-.029.074s-.073-.025-.199-.065c-.129-.034-.303-.12-.529-.151a3.473 3.473 0 0 0-.766-.094c-.141.002-.285.023-.431.033-.143.034-.291.06-.43.111-.572.176-1.041.592-1.301.962a2.668 2.668 0 0 0-.369.656l-.073-.026zM96.864 145.915l-.028-.073c-.01-.048-.043-.135-.043-.235.002-.097-.017-.236.026-.37.031-.14.068-.312.166-.46.081-.167.188-.339.341-.473.141-.156.301-.311.494-.406.188-.104.379-.256.593-.3l.316-.098.161-.05.08-.024.04-.012.021-.006.01-.004.084-.012.58-.03c.156-.033.484.056.714.103.256.033.456.181.643.299.196.098.32.295.437.438.121.143.16.324.214.454.041.139.042.27.051.365a1.21 1.21 0 0 1-.045.314l-.078.013s-.02-.091-.077-.246c-.04-.074-.078-.168-.141-.264-.078-.086-.137-.207-.252-.291-.115-.08-.217-.203-.377-.249-.15-.061-.303-.144-.481-.146-.176-.013-.347-.072-.542-.031-.19.021-.384.04-.578.062a53.5 53.5 0 0 0-.545.142c-.189.033-.35.128-.515.198-.17.063-.313.157-.441.259a1.393 1.393 0 0 0-.341.306c-.105.099-.167.215-.227.313-.069.095-.088.196-.123.271-.051.154-.057.252-.057.252l-.08-.009zM83.879 136.513s-.57-.378-1.169-1.191a5.398 5.398 0 0 1-.44-.697 4.253 4.253 0 0 1-.365-.89c-.078-.338-.18-.706-.111-1.143.059-.423.223-.901.615-1.257a1.254 1.254 0 0 1 1.017-.292c.312.052.526.173.711.288.354.237.575.518.784.773.399.521.662 1.042.857 1.499.391.911.478 1.585.478 1.585l-.07.036s-.29-.565-.809-1.363a10.969 10.969 0 0 0-.974-1.294 3.547 3.547 0 0 0-.673-.595c-.246-.16-.579-.247-.789-.052-.228.19-.347.489-.394.782-.055.298-.01.602.04.889.115.577.343 1.088.55 1.514.428.848.806 1.361.806 1.361l-.064.047z"/><path fill="#209076" d="M107.14 124.764s-.237-.645-.227-1.661c.002-.255.012-.533.069-.83.046-.296.117-.616.264-.943.142-.322.334-.691.701-.98l.291-.205c.111-.052.231-.098.35-.14.119-.051.239-.067.361-.075l.186-.015.092-.002.045-.002H109.301l.112.017.007.002.232.057c.049.017.059.009.136.041.076.034.153.072.229.113.335.174.464.396.621.614.223.443.251.865.238 1.212-.002.357-.077.671-.149.96-.072.29-.17.549-.27.781-.39.932-.845 1.443-.845 1.443l-.074-.029s.238-.593.455-1.523c.104-.465.21-1.017.189-1.605a2.011 2.011 0 0 0-.204-.858c-.165-.257-.402-.391-.739-.435-.271.004-.604.043-.826.25a2.004 2.004 0 0 0-.547.695c-.266.526-.395 1.073-.483 1.541-.169.939-.165 1.578-.165 1.578h-.078zM111.733 117.729s-.238-.645-.228-1.661c.002-.255.012-.533.069-.83.046-.296.117-.616.264-.943.142-.321.334-.69.701-.981l.292-.204c.111-.054.23-.097.348-.14.119-.05.24-.068.364-.074l.183-.014.094-.004.045-.003.023-.001h.006l.111.019.008.002.232.059c.047.013.059.007.136.039.076.034.153.072.229.115.335.172.465.394.621.612.223.443.251.865.238 1.212-.002.358-.078.671-.15.961-.071.288-.17.548-.269.78-.391.932-.845 1.443-.845 1.443l-.074-.029s.238-.593.455-1.523c.104-.464.21-1.018.188-1.605a1.988 1.988 0 0 0-.202-.859c-.165-.255-.402-.391-.739-.434-.273.004-.604.042-.827.25a2.036 2.036 0 0 0-.548.695c-.264.526-.394 1.074-.481 1.541-.169.939-.165 1.58-.165 1.58l-.079-.003z"/><path fill="#5F3B18" d="M98.523 176.104s.056-.654.15-1.801c.09-1.156.188-2.822.271-4.827.027-1.001.084-2.089.092-3.239.023-1.15.039-2.365.025-3.622.008-1.259-.033-2.555-.065-3.876-.026-1.322-.121-2.657-.179-4.001l-.313-3.995c-.154-1.311-.272-2.612-.449-3.859-.197-1.24-.347-2.457-.564-3.592-.229-1.131-.426-2.21-.643-3.198l-.682-2.678c-.185-.807-.457-1.469-.625-2.038l-.578-1.775.8 1.688c.239.543.601 1.18.887 1.959l1.029 2.598c.345.963.681 2.021 1.06 3.137.367 1.119.674 2.318 1.035 3.555.341 1.238.628 2.531.956 3.844l.836 4.008c.232 1.35.505 2.701.702 4.036.205 1.336.417 2.652.573 3.929.177 1.277.32 2.513.447 3.689.142 1.174.229 2.288.332 3.316.175 2.059.296 3.779.357 4.993l.065 1.428.02.497-5.539-.176z"/><path fill="#5F3B18" d="M99.64 163.101s.21-.338.517-.888c.322-.547.76-1.373 1.281-2.374.271-.493.52-1.053.806-1.633.274-.587.595-1.193.871-1.845.282-.648.573-1.321.868-2.004.311-.68.582-1.385.846-2.095.27-.71.538-1.418.805-2.116.283-.694.467-1.404.696-2.081l.627-1.958c.214-.621.367-1.221.501-1.775l.936-3.705-.451 3.805a19.623 19.623 0 0 1-.27 1.839l-.373 2.046c-.141.706-.234 1.454-.429 2.186l-.533 2.239a32.158 32.158 0 0 1-.579 2.233c-.21.731-.418 1.452-.617 2.15-.197.7-.44 1.359-.643 1.994-.217.633-.396 1.239-.608 1.783-.402 1.096-.742 2.012-1.021 2.661-.263.657-.415.991-.415.991l-2.815-1.453z"/><g><path fill="#C7B8A8" d="M114.292 177.66H88.105a1.581 1.581 0 0 1 0-3.162h26.187a1.58 1.58 0 1 1 0 3.162z"/><g fill="#A79888"><path d="M92.534 174.498s-.527.948-.005 3.162h2.351s-.396-1.917 0-3.162h-2.346zM89.036 174.498s-.527.948-.005 3.162h2.35s-.396-1.917 0-3.162h-2.345zM96.35 174.498s-.527.948-.005 3.162h2.351s-.396-1.917 0-3.162H96.35zM100.164 174.498s-.525.948-.004 3.162h2.35s.406-1.581 0-3.162h-2.346zM109.905 174.498s.526.948.005 3.162h-2.351s.396-1.917 0-3.162h2.346zM113.596 174.498s.527.948.004 3.162h-2.35s.395-1.917 0-3.162h2.346zM106.09 174.498s.527.948.005 3.162h-2.351s.395-1.917 0-3.162h2.346z"/></g></g></g><g><path fill="#D0D1D1" d="M270.637 100.112l-1.295-20.784-16.382-12.484 19.921-8.337 19.607 10.466-2.907 20.384z"/><path fill="#F0EFEF" d="M272.153 100.92l-2.811-21.592-15.879-13.824 19.92-8.336 19.607 10.465-2.905 20.384z"/><path fill="#FFF" d="M273.541 101.441l-3.15-22.589-16.289-14.724 20.329-7.437 19.608 10.465-2.599 21.682z"/><path fill="#2CB393" d="M274.727 101.664l-3.886-23.592-16.286-14.723 20.327-7.437 19.608 10.465-2.359 22.697z"/><path fill="#209076" d="M269.025 76.43l24.09-10.941s3.721.936 1.295 4.822l-23.118 10.5s-.451-2.739-2.267-4.381z"/></g><g opacity=".5"><path fill="#D0D1D1" d="M72.828 47.633l10.092-.14 3.117-9.275 4.959 15.692-3.605 5.029-10.471 1.948z"/><path fill="#F0EFEF" d="M72.403 48.349l10.517-.856 3.754-9.001 4.96 15.694-3.607 5.028-10.47 1.947z"/><path fill="#FFF" d="M72.119 49.008l11.008-.996 4.197-9.177 4.516 15.869-3.607 5.027-11.106 2.067z"/><path fill="#F19F7B" d="M71.982 49.577l11.511-1.329 4.198-9.177 4.516 15.869-3.605 5.03-11.606 2.156z"/><path fill="#ED6D35" d="M84.12 46.877l4.943 12.446s.231 1.567-2.187.966l-4.72-11.887c.001 0 1.487-.48 1.964-1.525z"/></g><g><path fill="#F0E0CA" d="M117.018 92.551h195.596v60.273H117.018z"/><path fill="#8BAAB5" d="M147.781 121.225h18.068v23.172h-18.068z"/><path fill="#C8DBE3" d="M147.781 121.225h17.49v22.565h-17.49z"/><path fill="#608691" d="M155.509 142.888l.731-13.991.86 13.976z"/><path fill="#A3BBC4" d="M156.148 122.272s.896 1.6 1.954 2.229l-.673.078s.86 1.057 1.919 1.563c0 0-.495.196-1.024.196 0 0 .818.902 1.625 1.258 0 0-.532.202-.816.187 0 0 1.111.882 2.289 1.207 0 0-.699.635-1.311.713 0 0 .914 1.021 1.707 1.424 0 0-.703.197-1.203.283 0 0 1.178 1.311 2.035 1.48 0 0-.613.424-1.063.475 0 0 .641.857 1.435 1.074 0 0-.513.588-1.152.773 0 0 .679.797 1.473 1.32 0 0-1.506 1.116-2.714 1.58-2.253 1.031-4.131.907-4.131.907l-.35-1.279-.436 1.298-.102-1.092-.273 1.197c-2.457.33-4.027-.949-4.027-.949l.238-.991-.58.537c-.957-.33-1.375-1.724-1.375-1.724.846-.34 2.074-1.795 2.074-1.795-.563-.094-1.076-.774-1.076-.774.795-.402 1.793-1.764 1.793-1.764-.333.062-1.05-.341-1.05-.341.563-.372 1.536-1.548 1.536-1.548l-.691-.187c.359-.278.922-.805.922-.805l-.281-.278.512-.62c-.23 0-.742-.216-.742-.216.666-.279 1.716-1.61 1.716-1.61l-.794-.155c.819-.34 1.561-1.33 1.561-1.33h-.563c.896-.525 1.638-2.321 1.638-2.321z"/><path fill="#8BAAB5" d="M189.23 121.225h32.609v23.172H189.23z"/><path fill="#C8DBE3" d="M189.23 121.225h32.031v22.565H189.23z"/><path fill="#A3BBC4" d="M198.664 122.426s3.16-.337 4.425.416h3.175s4.835.116 6.1.721c0 0-.591.234-1.224.234 0 0 .979 1.08 1.943 1.506 0 0-.639.24-.978.223 0 0 1.33 1.054 2.737 1.443 0 0-.838.758-1.566.852 0 0 1.092 1.221 2.041 1.703 0 0-.842.234-1.438.339 0 0 1.408 1.566 2.434 1.771 0 0-.734.506-1.271.567 0 0 .765 1.023 1.714 1.282 0 0 .65 6.927-.115 7.149 0 0 .811.952 1.76 1.577 0 0-12.935-1.397-14.379-.843-2.693 1.233-4.939 1.085-4.939 1.085l-.418-1.53-.521 1.551-.121-1.304-.326 1.432c-2.938.395-4.816-1.135-4.816-1.135l.286-1.185-.694.641c-1.143-.395-1.643-2.06-1.643-2.06 1.011-.407 2.48-2.146 2.48-2.146-.674-.111-1.286-.926-1.286-.926.949-.481 2.144-2.109 2.144-2.109-.398.073-1.256-.407-1.256-.407.674-.444-.489-1.844-.489-1.844l-.827-.223a20.731 20.731 0 0 0 1.102-.964l-.336-.332.612-.74c-.276 0-.888-.259-.888-.259.795-.334 1.484-2.735 1.484-2.735l-.949-.186c.98-.407 1.867-1.592 1.867-1.592h-.674c1.07-.628 4.85-1.972 4.85-1.972z"/><path fill="#C8DBE3" d="M200.437 125.429s2.219-.237 3.106.292h2.229s3.396.082 4.284.506c0 0-.416.165-.86.165 0 0 .688.757 1.365 1.056 0 0-.448.17-.687.156 0 0 .934.741 1.923 1.014 0 0-.589.533-1.101.599 0 0 .768.857 1.434 1.195 0 0-.592.166-1.012.239 0 0 .99 1.101 1.711 1.243 0 0-.518.354-.893.397 0 0 .536.719 1.203.901 0 0 .456 4.865-.082 5.021 0 0 .57.668 1.236 1.108 0 0-9.083-.982-10.098-.594-1.891.867-3.467.763-3.467.763l-.294-1.073-.366 1.088-.086-.915-.229 1.005c-2.064.277-3.382-.796-3.382-.796l.2-.832-.487.45c-.803-.278-1.153-1.448-1.153-1.448.709-.285 1.741-1.507 1.741-1.507-.473-.078-.903-.649-.903-.649.667-.338 1.504-1.481 1.504-1.481-.278.052-.88-.287-.88-.287.473-.311-.344-1.294-.344-1.294l-.581-.156c.301-.233.774-.676.774-.676l-.236-.234.43-.52c-.193 0-.624-.183-.624-.183.56-.233 1.043-1.92 1.043-1.92l-.666-.131c.688-.285 1.311-1.117 1.311-1.117h-.473c.754-.443 3.41-1.385 3.41-1.385z"/><path opacity=".6" fill="#ADADAD" d="M118.275 118.502h192.254v11.021H118.275z"/><path fill="#FFF" d="M185.547 145.557l.14.989-2.441 3.235-1.519 1.241-.866-1.45 2.203-2.147 1.228-1.924z"/><path fill="#209076" d="M185.547 145.557l-1.255-.056-1.228-3.835v5.759l-2.203 2.147.865 1.45 1.52-1.241-.14 4.602.056.794-2.761.419-4.489.181-2.733.084c.308-2.161.781-5.577.781-6.414l1.646 1.45.544-1.673-1.785-1.799.781-5.313-1.841 3.569-1.366-.125 2.941-8.589 3.305-1.27 1.492 3.012 1.59-3.012 2.941.837 1.339 9.023z"/><path fill="#5F3B18" d="M181.336 164.324l2.691 2.439s-1.214 1.144-1.479 1.144-2.788-3.151-2.788-3.151 1.143.167 1.576-.432z"/><path fill="#5A595C" d="M183.162 155.177l.293 4.002-2.119 5.146c-.433.599-1.575.432-1.575.432l1.52-4.447-.879-4.713 2.76-.42z"/><path fill="#FFF" d="M181.267 135.698l-1.59 3.012-1.492-3.012.795-.307s.46-3.765 1.283-3.652c2.104.278-.07 3.652-.07 3.652l1.074.307zM174.364 147.425l1.785 1.799-.544 1.673-1.646-1.45c0-.125-.014-.195-.042-.195-.251 0-2.342-2.621-2.342-2.621l.362-1.073 1.366.125 1.061 1.742z"/><path fill="#5A595C" d="M174.922 158.05l1.13 6.539s-1.157.976-2.385.167l-.753-7.069.265-1.826 2.733-.084-.99 2.273z"/><path fill="#5F3B18" d="M176.052 164.589l-1.952 4.35-1.576-.947 1.144-3.235c1.227.807 2.384-.168 2.384-.168z"/><path fill="#B9BBBD" d="M177.673 135.9l.383 3.289 3.571.099.338-3.388.57.163.149 20.367-7.215.258 1.66-10.811-2.5-.225.137-.925 2.116.201.058-8.746z"/><path fill="#D0D1D1" d="M176.929 144.782l3.666 2.308 3.291-2.611-1.883 6.809-2.473.968-4.225-1.746z"/><path fill="#F0EFEF" d="M176.608 144.939l3.987 2.151 3.456-2.363-1.883 6.809-2.473.968-4.226-1.746z"/><path fill="#FFF" d="M176.352 145.111l4.196 2.213 3.657-2.322-2.084 6.769-2.473.967-4.482-1.852z"/><path fill="#F69668" d="M176.17 145.284l4.455 2.211 3.656-2.323-2.083 6.769-2.472.968-4.684-1.934z"/><path fill="#E96C49" d="M181.171 147.148l-1.128 5.638s-.283.617-1.014-.164l1.078-5.384s.648.175 1.064-.09z"/><path fill="#FFF" d="M182.728 150.728s-.768-.407-.616-1.436c.152-1.028 1.029-.629 1.029-.629s.494 1.114-.413 2.065zM175.467 148.588s.753.43.568 1.454c-.187 1.022-1.049.595-1.049.595s-.457-1.129.481-2.049z"/><path fill="#5B4A42" d="M179.584 132.747s1.141.943 2.697-.321c.767-.622-.387-1.166-1.014-1.291-.626-.126-2.614.422-1.683 1.612z"/><path fill="#5B4A42" d="M179.48 132.102s-.436 1.328-.258 1.86c.176.532.613-1.538.613-1.538l-.355-.322z"/><path fill="#FFF" d="M226.741 136.579l.711 1.283 2.426-1.283 2.134 1.883 1.046-1.548-3.417-2.538z"/><path fill="#209076" d="M233.058 136.914l-1.046 1.548 2.161 1.896 3.723-1.562v11.531l6.888.488.307-10.053 3.723 3.137 2.301-.628-.711-1.659-1.353.433-4.071-6.623h-.906s-.446 1.408-2.496 1.492-1.646-1.255-1.646-1.255l-.767.111-4.531 2.328-1.576-1.184z"/><path fill="#A77D50" d="M237.896 150.327v5.229h6.734l.153-4.741z"/><path fill="#FFF" d="M239.931 135.659s-.404 1.339 1.646 1.255 2.496-1.492 2.496-1.492h-1.186s0-4.42-1.394-4.294c-1.395.111 0 4.294 0 4.294l-1.562.237zM250.402 141.612l.711 1.659 4.434-1.226-1.045-1.743z"/><path fill="#B9BBBD" d="M243.541 135.427l-.479 3.363h-3.573l.247-3.101-.568.086-.594 17.916h4.792l.437-8.192 1.14.133.078-.872-.945-.201.191-9.132z"/><path fill="#A77D50" d="M242.654 132.887s.79-1.707-.664-2.173c-1.455-.464-2.27.412-2.27.412s-.328 1.043 1.158 1.129c.001 0 1.369-.564 1.776.632z"/><path fill="#E3E4E5" d="M228.733 138.571s-.133.411.514.464l5.204-2.393-.423-.506-5.295 2.435z"/><path fill="#FFF" d="M233.954 136.171s.083.277.497.472l-2.354-5.749s-.232.028-.693-.878l2.55 6.155z"/><path fill="#B9BBBD" d="M233.981 136.325l-5.047 2.32s-.145.093-.108.124c.036.035.239-.035.239-.035l4.972-2.286-.056-.123zM234.194 136.482l-5.138 2.427s-.146.092-.108.125c.036.034.238-.035.238-.035l5.131-2.435-.123-.082z"/><path fill="#ED6D35" d="M228.733 138.571l5.221-2.4-2.55-6.155-4.375 1.99s-.754.266-.22 1.427l1.924 5.138z"/><path fill="#E9642A" d="M228.733 138.571s-.124.409.439.499l.074-.035s-.496-.174-.428-.502l-.085.038z"/><ellipse fill="#FFF" cx="228.073" cy="136.593" rx=".614" ry="1.125"/><path fill="#86673E" d="M113.634 160.345h6.328v15.929h-6.328z"/><path fill="#75532F" d="M119.962 160.345h1.53v15.929h-1.53z"/><path fill="#86673E" d="M121.506 160.345h6.328v15.929h-6.328z"/><path fill="#75532F" d="M127.834 160.345h1.528v15.929h-1.528z"/><path fill="#86673E" d="M129.376 160.345h6.327v15.929h-6.327z"/><path fill="#75532F" d="M135.703 160.345h1.531v15.929h-1.531z"/><path fill="#86673E" d="M137.248 160.345h6.327v15.929h-6.327z"/><path fill="#75532F" d="M143.575 160.345h1.528v15.929h-1.528z"/><path fill="#86673E" d="M145.118 160.345h6.329v15.929h-6.329z"/><path fill="#75532F" d="M151.447 160.345h1.528v15.929h-1.528z"/><path fill="#86673E" d="M152.989 160.345h6.328v15.929h-6.328z"/><path fill="#75532F" d="M159.317 160.345h1.53v15.929h-1.53z"/><path fill="#86673E" d="M160.861 160.345h6.327v15.929h-6.327z"/><path fill="#75532F" d="M167.188 160.345h1.529v15.929h-1.529z"/><path fill="#86673E" d="M168.731 160.345h6.326v15.929h-6.326z"/><path fill="#75532F" d="M175.058 160.345h1.531v15.929h-1.531z"/><path fill="#86673E" d="M176.603 160.345h6.328v15.929h-6.328z"/><path fill="#75532F" d="M182.931 160.345h1.53v15.929h-1.53z"/><path fill="#86673E" d="M184.473 160.345h6.327v15.929h-6.327z"/><path fill="#75532F" d="M190.8 160.345h1.531v15.929H190.8z"/><path fill="#86673E" d="M192.345 160.345h6.327v15.929h-6.327z"/><path fill="#75532F" d="M198.672 160.345h1.531v15.929h-1.531z"/><path fill="#86673E" d="M200.215 160.345h6.328v15.929h-6.328z"/><path fill="#75532F" d="M206.543 160.345h1.529v15.929h-1.529z"/><path fill="#86673E" d="M208.086 160.345h6.327v15.929h-6.327z"/><path fill="#75532F" d="M214.413 160.345h1.531v15.929h-1.531z"/><path fill="#86673E" d="M215.957 160.345h6.328v15.929h-6.328z"/><path fill="#75532F" d="M222.285 160.345h1.529v15.929h-1.529z"/><path fill="#86673E" d="M223.828 160.345h6.328v15.929h-6.328z"/><path fill="#75532F" d="M230.156 160.345h1.529v15.929h-1.529z"/><path fill="#86673E" d="M231.699 160.345h6.328v15.929h-6.328z"/><path fill="#75532F" d="M238.027 160.345h1.529v15.929h-1.529z"/><path fill="#86673E" d="M239.57 160.345h6.328v15.929h-6.328z"/><path fill="#75532F" d="M245.898 160.345h1.529v15.929h-1.529z"/><path fill="#86673E" d="M247.441 160.345h6.327v15.929h-6.327z"/><path fill="#75532F" d="M253.769 160.345h1.53v15.929h-1.53z"/><path fill="#86673E" d="M255.311 160.345h6.33v15.929h-6.33z"/><path fill="#75532F" d="M261.641 160.345h1.529v15.929h-1.529z"/><path fill="#86673E" d="M263.184 160.345h6.326v15.929h-6.326z"/><path fill="#75532F" d="M269.51 160.345h1.531v15.929h-1.531z"/><path fill="#86673E" d="M271.055 160.345h6.328v15.929h-6.328z"/><path fill="#75532F" d="M277.383 160.345h1.529v15.929h-1.529z"/><path fill="#86673E" d="M278.925 160.345h6.329v15.929h-6.329z"/><path fill="#75532F" d="M285.254 160.345h1.529v15.929h-1.529z"/><path fill="#86673E" d="M286.797 160.345h6.326v15.929h-6.326z"/><path fill="#75532F" d="M293.123 160.345h1.531v15.929h-1.531z"/><path fill="#86673E" d="M294.668 160.345h6.326v15.929h-6.326z"/><path fill="#75532F" d="M300.994 160.345h1.53v15.929h-1.53z"/><path fill="#86673E" d="M302.538 160.345h6.328v15.929h-6.328z"/><path fill="#75532F" d="M308.866 160.345h1.53v15.929h-1.53z"/><path fill="#86673E" d="M310.41 160.345h6.328v15.929h-6.328z"/><path fill="#584132" d="M112.805 176.273h204.762v1.387H112.805z"/><path fill="#86673E" d="M312.613 152.824H117.018l-3.384 7.521h202.864z"/><path fill="#A4A6A9" d="M253.207 131.297c-.119 0-.217-.158-.217-.349v-16.726c0-.191.436-.191.436 0v16.726c0 .191-.098.349-.219.349zM294.896 134.85c-.119 0-.218-.157-.218-.35v-16.726c0-.19.437-.19.437 0V134.5c0 .192-.098.35-.219.35zM147.643 128.122c-.119 0-.218-.157-.218-.35v-16.725c0-.191.436-.191.436 0v16.725c-.001.193-.097.35-.218.35z"/><path fill="#D0D1D1" d="M257.676 135.317l-5.031-2.279-3.706 3.868 1.198-8.927 2.958-1.653 5.641 1.475z"/><path fill="#F0EFEF" d="M258.054 135.063l-5.409-2.025-3.956 3.585 1.198-8.93 2.956-1.652 5.641 1.475z"/><path fill="#FFF" d="M258.349 134.802l-5.686-2.069-4.217 3.569 1.459-8.914 2.956-1.652 5.985 1.564z"/><path fill="#63A3D1" d="M258.549 134.553l-6.013-2.024-4.217 3.57 1.458-8.913 2.958-1.652 6.252 1.634z"/><path fill="#1D75B8" d="M251.906 133.063l.449-7.317s.25-.829 1.308.03l-.429 6.988s-.848-.108-1.328.299z"/><path fill="#D0D1D1" d="M142.969 135.317l5.033-2.279 3.703 3.868-1.197-8.927-2.957-1.653-5.641 1.475z"/><path fill="#F0EFEF" d="M142.591 135.063l5.411-2.025 3.955 3.585-1.197-8.93-2.958-1.652-5.641 1.475z"/><path fill="#FFF" d="M142.297 134.802l5.685-2.069 4.217 3.569-1.459-8.914-2.957-1.652-5.982 1.564z"/><path fill="#63A3D1" d="M142.098 134.553l6.011-2.024 4.217 3.57-1.459-8.913-2.957-1.652-6.252 1.634z"/><path fill="#1D75B8" d="M148.739 133.063l-.449-7.317s-.251-.829-1.308.03l.429 6.988s.848-.108 1.328.299z"/><path fill="#D0D1D1" d="M299.788 142.085l-5.032-2.279-3.703 3.869 1.197-8.929 2.957-1.651 5.642 1.472z"/><path fill="#F0EFEF" d="M300.166 141.831l-5.41-2.025-3.954 3.585 1.196-8.93 2.957-1.652 5.642 1.474z"/><path fill="#FFF" d="M300.461 141.57l-5.686-2.069-4.216 3.568 1.459-8.913 2.956-1.652 5.984 1.564z"/><path fill="#F19F7B" d="M300.661 141.32l-6.013-2.022-4.216 3.568 1.459-8.913 2.957-1.652 6.252 1.635z"/><path fill="#ED6D35" d="M294.019 139.831l.449-7.317s.25-.83 1.308.031l-.429 6.987s-.849-.107-1.328.299z"/><path fill="#A4A6A9" d="M131.327 133.994c-.12 0-.218-.156-.218-.349V116.92c0-.191.436-.191.436 0v16.726c0 .192-.098.348-.218.348zM191.794 133.994c-.12 0-.218-.156-.218-.349V116.92c0-.191.436-.191.436 0v16.726c0 .192-.098.348-.218.348zM278.57 131.297c-.121 0-.219-.158-.219-.349v-16.726c0-.191.436-.191.436 0v16.726c0 .191-.098.349-.217.349z"/><path fill="#D0D1D1" d="M196.828 136.713l-5.134-2.327-5.063 2.335.533-5.823 4.989-3.36 4.506 3.28z"/><path fill="#F0EFEF" d="M197.214 136.452l-5.52-2.066-5.319 2.044.533-5.821 4.988-3.361 4.506 3.28z"/><path fill="#FFF" d="M197.514 136.186l-5.801-2.112-5.586 2.029.8-5.804 4.989-3.362 4.854 3.371z"/><path fill="#2CB393" d="M197.718 135.932l-6.134-2.064-5.587 2.027.801-5.803 4.989-3.362 5.128 3.443z"/><path fill="#209076" d="M190.961 134.094l.438-7.146s.696-.771 1.318.301l-.423 6.86c.001-.001-.71-.241-1.333-.015z"/><path fill="#D0D1D1" d="M136.298 141.112l-5.134-2.326-5.063 2.334.532-5.821 4.99-3.361 4.506 3.28z"/><path fill="#F0EFEF" d="M136.684 140.853l-5.52-2.067-5.32 2.043.534-5.819 4.987-3.362 4.506 3.28z"/><path fill="#FFF" d="M136.983 140.587l-5.8-2.111-5.586 2.026.799-5.805 4.99-3.361 4.854 3.372z"/><path fill="#2CB393" d="M137.188 140.33l-6.134-2.062-5.587 2.029.801-5.805 4.989-3.362 5.128 3.442z"/><path fill="#209076" d="M130.431 138.494l.438-7.148s.695-.771 1.318.303l-.422 6.859c.001 0-.711-.24-1.334-.014z"/><path fill="#D0D1D1" d="M283.668 135.191l-5.134-2.326-5.063 2.334.533-5.819 4.99-3.362 4.504 3.28z"/><path fill="#F0EFEF" d="M284.053 134.932l-5.519-2.067-5.319 2.045.532-5.821 4.989-3.361 4.506 3.279z"/><path fill="#FFF" d="M284.354 134.666l-5.801-2.111-5.586 2.027.801-5.804 4.988-3.362 4.855 3.371z"/><path fill="#2CB393" d="M284.558 134.41l-6.134-2.062-5.586 2.027.799-5.805 4.989-3.361 5.128 3.443z"/><path fill="#209076" d="M277.801 132.574l.439-7.148s.695-.771 1.316.302l-.42 6.858c.001 0-.712-.238-1.335-.012z"/><path fill="#948B80" d="M114.125 118.863l4.761 4.726 5.509-4.726z"/><path fill="#948B80" d="M117.018 118.863h3.061v41.442h-3.061z"/><path fill="#B9AB99" d="M117.018 118.863h2.518v41.442h-2.518z"/><path fill="#B9AB99" d="M113.516 118.863l4.759 4.726 5.51-4.726z"/><path fill="#948B80" d="M159.778 118.863l4.761 4.726 5.508-4.726z"/><path fill="#948B80" d="M162.67 118.863h3.061v41.442h-3.061z"/><path fill="#B9AB99" d="M162.67 118.863h2.518v41.442h-2.518z"/><path fill="#B9AB99" d="M159.169 118.863l4.76 4.726 5.509-4.726z"/><path fill="#948B80" d="M261.062 118.863l4.759 4.726 5.51-4.726z"/><path fill="#948B80" d="M263.953 118.863h3.062v41.442h-3.062z"/><path fill="#B9AB99" d="M263.953 118.863h2.517v41.442h-2.517z"/><path fill="#B9AB99" d="M260.451 118.863l4.761 4.726 5.509-4.726z"/><path fill="#948B80" d="M306.715 118.863l4.761 4.726 5.507-4.726z"/><path fill="#948B80" d="M309.606 118.863h3.061v41.442h-3.061z"/><path fill="#B9AB99" d="M309.606 118.863h2.517v41.442h-2.517z"/><path fill="#B9AB99" d="M306.104 118.863l4.761 4.726 5.508-4.726z"/><path fill="#F0EFEF" d="M132.197 155.21h-8.91s-1.34.704 0 1.66h8.91s-1.086-.931 0-1.66z"/><path fill="#D0D1D1" d="M122.691 155.34h9.344l-.182.203h-9.162zM131.768 155.706l-.047.211h-9.03v-.211zM131.719 156.039h-9.201l.252.215h8.998zM122.691 156.427h9.158l.186.219h-9.137z"/><path fill="#209076" d="M132.197 155.21s.23-.023 0-.131l-9.127.01s-1.661.768.035 1.891h9.195s.256-.119-.195-.139l-8.818-.019s-1.34-.885 0-1.612h8.91z"/><g><path fill="#F0EFEF" d="M122.402 151.09h8.91s1.34-.705 0-1.66h-8.91s1.086.93 0 1.66z"/><path fill="#D0D1D1" d="M131.908 150.96h-9.344l.184-.202h9.16zM122.834 150.594l.045-.211h9.029v.211zM122.882 150.26h9.202l-.254-.214h-8.996zM131.908 149.873h-9.156l-.188-.218 9.139-.001z"/><path fill="#209076" d="M122.402 151.09s-.23.023 0 .131l9.127-.01s1.662-.768-.034-1.89h-9.194s-.257.117.193.136l8.818.021s1.34.884 0 1.611h-8.91z"/></g><g><path fill="#F0EFEF" d="M131.674 153.31h-8.909s-1.341.706 0 1.661h8.909s-1.086-.93 0-1.661z"/><path fill="#D0D1D1" d="M122.169 153.439h9.343l-.183.204h-9.16zM131.242 153.807l-.045.211h-9.028v-.211zM131.196 154.141h-9.202l.252.213h8.996zM122.169 154.528h9.156l.187.218h-9.137z"/><path fill="#209076" d="M131.674 153.31s.23-.022 0-.131l-9.127.011s-1.661.768.035 1.89h9.195s.256-.119-.194-.138l-8.818-.02s-1.341-.885 0-1.612h8.909z"/></g><g><path fill="#F0EFEF" d="M132.766 151.412h-8.911s-1.341.705 0 1.66h8.911s-1.086-.93 0-1.66z"/><path fill="#D0D1D1" d="M123.26 151.541h9.342l-.182.203h-9.16zM132.334 151.908l-.047.211h-9.027v-.211zM132.285 152.242h-9.201l.252.215h8.998zM123.26 152.631h9.156l.186.216-9.137.002z"/><path fill="#209076" d="M132.766 151.412s.229-.023 0-.131l-9.129.011s-1.661.767.035 1.889h9.194s.257-.118-.192-.138l-8.819-.019s-1.341-.885 0-1.612h8.911z"/></g><path fill="#F9D1BF" d="M122.869 149.21h8.908s1.341-.624 0-1.471h-8.908s1.084.825 0 1.471z"/><path fill="#F4B092" d="M132.375 149.096h-9.344l.183-.18h9.161zM123.299 148.77l.047-.187h9.029v.187zM123.347 148.476h9.202l-.252-.191h-8.998zM132.375 148.131h-9.158l-.186-.193h9.137z"/><path fill="#EC7846" d="M122.869 149.21s-.23.02 0 .115l9.127-.009s1.661-.68-.035-1.673h-9.195s-.255.104.193.121l8.818.019s1.341.782 0 1.427h-8.908z"/><path fill="#F9D1BF" d="M132.299 146.078h-8.91s-1.34.623 0 1.469h8.91s-1.086-.823 0-1.469z"/><path fill="#F4B092" d="M122.793 146.193h9.344l-.184.178h-9.16zM131.867 146.517l-.045.186h-9.029v-.186zM131.82 146.812h-9.203l.254.19h8.996zM122.793 147.156h9.156l.188.192h-9.139z"/><path fill="#EC7846" d="M132.299 146.078s.23-.021 0-.116l-9.127.008s-1.662.681.035 1.674h9.194s.255-.104-.193-.123l-8.819-.017s-1.34-.782 0-1.426h8.91z"/><path fill="#F9D1BF" d="M133.238 154.971h8.91s1.341-1.363 0-3.209h-8.91s1.086 1.797 0 3.209z"/><path fill="#F4B092" d="M142.744 154.718H133.4l.184-.391h9.16zM133.669 154.012l.046-.408h9.029v.408zM133.717 153.366h9.202l-.253-.414h-8.997zM142.744 152.616h-9.156l-.188-.42 9.139-.001z"/><path fill="#EC7846" d="M133.238 154.971s-.23.044 0 .252l9.127-.02s1.662-1.483-.033-3.65h-9.196s-.256.227.194.265l8.818.039s1.341 1.707 0 3.114h-8.91z"/><path fill="#F9D1BF" d="M133.977 156.858h8.91s1.341-.624 0-1.47h-8.91c0 .001 1.086.824 0 1.47z"/><path fill="#F4B092" d="M143.482 156.743h-9.343l.183-.18h9.16zM134.407 156.419l.046-.187h9.029v.187zM134.455 156.123h9.202l-.253-.188h-8.997zM143.482 155.78h-9.156l-.187-.193h9.137z"/><path fill="#EC7846" d="M133.977 156.858s-.23.021 0 .116l9.127-.01s1.662-.679-.034-1.672h-9.194s-.256.104.193.121l8.818.017s1.341.783 0 1.428h-8.91z"/><path fill="#F9D1BF" d="M143.657 149.959h-8.91s-1.341.624 0 1.469h8.91s-1.085-.823 0-1.469z"/><path fill="#F4B092" d="M134.151 150.074h9.345l-.184.18h-9.161zM143.227 150.398l-.045.187h-9.031v-.187zM143.179 150.694h-9.202l.252.19h8.998zM134.151 151.037h9.157l.188.192-9.14.001z"/><path fill="#EC7846" d="M143.657 149.959s.23-.021 0-.115l-9.127.009s-1.661.679.034 1.673h9.195s.256-.104-.194-.123l-8.818-.018s-1.341-.78 0-1.426h8.91z"/><path fill="#F9D1BF" d="M134.063 149.756h8.911s1.34-.625 0-1.471h-8.911s1.086.823 0 1.471z"/><path fill="#F4B092" d="M143.57 149.639h-9.343l.183-.178h9.16zM134.495 149.315l.045-.186h9.03v.186zM134.543 149.021h9.202l-.253-.191h-8.997zM143.57 148.678h-9.157l-.186-.194h9.137z"/><path fill="#EC7846" d="M134.063 149.756s-.229.021 0 .114l9.128-.008s1.662-.681-.035-1.674h-9.193s-.258.105.193.123l8.818.018s1.34.781 0 1.427h-8.911z"/><g><path fill="#F9D1BF" d="M253.483 155.564h-8.949s-1.347.57 0 1.344h8.949s-1.09-.754 0-1.344z"/><path fill="#F4B092" d="M243.936 155.669h9.384l-.184.165h-9.2zM253.05 155.966l-.045.171h-9.069v-.171zM253.003 156.236h-9.243l.254.174h9.036zM243.936 156.549h9.197l.187.177h-9.177z"/><path fill="#EF936A" d="M253.483 155.564s.231-.019 0-.106l-9.167.008s-1.67.621.034 1.529h9.235s.258-.096-.194-.11l-8.857-.017s-1.347-.716 0-1.304h8.949z"/><path fill="#F6BA40" d="M253.231 151.333s.834.899 0 2.086h-9.262s-.739-1.022 0-2.086h9.262z"/><path fill="#E9642A" d="M252.014 151.333s.602 1.146-.019 2.086h-.379c.659-1.043 0-2.086 0-2.086h.398z"/><path fill="#F7DB9A" d="M251.379 151.333s.6 1.146-.02 2.086h-.38c.659-1.043 0-2.086 0-2.086h.4z"/><path fill="#F9CF7B" d="M244.012 155.497s-.834-.898 0-2.085h9.262s.738 1.023 0 2.085h-9.262z"/><path fill="#E9642A" d="M245.229 155.497s-.602-1.144.021-2.085h.378c-.659 1.043 0 2.085 0 2.085h-.399z"/><path fill="#FAAC21" d="M245.865 155.497s-.601-1.144.02-2.085h.378c-.659 1.043 0 2.085 0 2.085h-.398z"/></g><g><path fill="#F9D1BF" d="M153.886 155.564h-8.949s-1.347.57 0 1.344h8.949s-1.091-.754 0-1.344z"/><path fill="#F4B092" d="M144.338 155.669h9.385l-.184.165h-9.201zM153.453 155.966l-.046.171h-9.069v-.171zM153.405 156.236h-9.243l.254.174h9.037zM144.338 156.549h9.197l.188.177h-9.178z"/><path fill="#EF936A" d="M153.886 155.564s.231-.019 0-.106l-9.167.008s-1.67.621.035 1.529h9.234s.258-.096-.194-.11l-8.857-.017s-1.347-.716 0-1.304h8.949z"/><path fill="#F6BA40" d="M153.634 151.333s.835.899 0 2.086h-9.262s-.739-1.022 0-2.086h9.262z"/><path fill="#E9642A" d="M152.416 151.333s.602 1.146-.019 2.086h-.379c.659-1.043 0-2.086 0-2.086h.398z"/><path fill="#F7DB9A" d="M151.781 151.333s.6 1.146-.02 2.086h-.379c.658-1.043 0-2.086 0-2.086h.399z"/><path fill="#F9CF7B" d="M144.414 155.497s-.834-.898 0-2.085h9.262s.74 1.023 0 2.085h-9.262z"/><path fill="#E9642A" d="M145.632 155.497s-.601-1.144.02-2.085h.378c-.659 1.043 0 2.085 0 2.085h-.398z"/><path fill="#FAAC21" d="M146.268 155.497s-.6-1.144.02-2.085h.378c-.658 1.043 0 2.085 0 2.085h-.398z"/></g><g><path fill="#F0EFEF" d="M278.352 155.143h-8.91s-1.34.765 0 1.802h8.91c0-.001-1.085-1.009 0-1.802z"/><path fill="#D0D1D1" d="M268.846 155.283h9.343l-.183.221h-9.16zM277.921 155.682l-.045.227h-9.03v-.227zM277.873 156.043h-9.202l.253.231h8.997zM268.846 156.463h9.156l.187.236h-9.138z"/><path fill="#209076" d="M278.352 155.143s.229-.025 0-.142l-9.127.011s-1.661.833.035 2.051h9.195s.256-.13-.195-.15l-8.818-.021s-1.34-.958 0-1.748h8.91z"/><g><path fill="#F0EFEF" d="M268.432 148.791h8.91s1.34-.705 0-1.66h-8.91s1.086.93 0 1.66z"/><path fill="#D0D1D1" d="M277.938 148.661h-9.344l.183-.203h9.161zM268.863 148.294l.045-.21h9.03v.21zM268.91 147.961h9.201l-.252-.215h-8.996zM277.938 147.574h-9.157l-.187-.219 9.137-.001z"/><path fill="#209076" d="M268.432 148.791s-.23.023 0 .131l9.127-.011s1.661-.767-.035-1.89h-9.194s-.256.118.194.139l8.818.02s1.34.883 0 1.611h-8.91z"/></g><g><path fill="#F0EFEF" d="M277.828 153.232h-8.91s-1.34.705 0 1.66h8.91c0 .001-1.085-.93 0-1.66z"/><path fill="#D0D1D1" d="M268.322 153.361h9.345l-.185.203h-9.16zM277.397 153.729l-.044.21h-9.031v-.21zM277.35 154.062h-9.203l.253.213h8.997zM268.322 154.449h9.157l.188.217-9.138.002z"/><path fill="#209076" d="M277.828 153.232s.23-.023 0-.132l-9.126.011s-1.662.768.034 1.89h9.195s.256-.118-.195-.138l-8.818-.02s-1.34-.884 0-1.611h8.91z"/></g><g><path fill="#F0EFEF" d="M278.793 149.112h-8.909s-1.341.706 0 1.661h8.909s-1.084-.931 0-1.661z"/><path fill="#D0D1D1" d="M269.287 149.242h9.344l-.184.203h-9.16zM278.363 149.609l-.047.211h-9.029v-.211zM278.314 149.943h-9.201l.252.214h8.998zM269.287 150.331h9.158l.186.218h-9.138z"/><path fill="#209076" d="M278.793 149.112s.23-.022 0-.13l-9.127.01s-1.661.768.035 1.89h9.194s.257-.117-.192-.138l-8.819-.019s-1.341-.886 0-1.613h8.909z"/></g><g><path fill="#2CB393" d="M278.451 150.781s.831.985 0 2.281h-9.221s-.735-1.119 0-2.281h9.221z"/><path fill="#209076" d="M277.24 150.781s.598 1.252-.02 2.281h-.376c.656-1.141 0-2.281 0-2.281h.396z"/><path fill="#93CAB8" d="M276.607 150.781s.598 1.252-.02 2.281h-.377c.656-1.141 0-2.281 0-2.281h.397z"/></g><g><path fill="#2CB393" d="M278.451 144.74s.831.984 0 2.281h-9.221s-.735-1.117 0-2.281h9.221z"/><path fill="#209076" d="M277.24 144.74s.598 1.253-.02 2.281h-.376c.656-1.141 0-2.281 0-2.281h.396z"/><path fill="#93CAB8" d="M276.607 144.74s.598 1.253-.02 2.281h-.377c.656-1.141 0-2.281 0-2.281h.397z"/></g></g><g><path fill="#F0EFEF" d="M289.737 155.21h-8.91s-1.341.704 0 1.66h8.91s-1.086-.931 0-1.66z"/><path fill="#D0D1D1" d="M280.231 155.34h9.344l-.183.203h-9.161zM289.306 155.706l-.045.211h-9.03v-.211zM289.259 156.039h-9.203l.253.215h8.997zM280.231 156.427h9.158l.186.219h-9.138z"/><path fill="#209076" d="M289.737 155.21s.229-.023 0-.131l-9.127.01s-1.661.768.034 1.891h9.194s.257-.119-.193-.139l-8.818-.019s-1.341-.885 0-1.612h8.91z"/></g><path fill="#F9D1BF" d="M280.063 148.237h8.91s1.341-.624 0-1.47h-8.91c0 .001 1.085.823 0 1.47z"/><path fill="#F4B092" d="M289.568 148.121h-9.343l.183-.18h9.16zM280.493 147.797l.046-.186h9.029v.186zM280.541 147.501h9.202l-.252-.188h-8.998zM289.568 147.159h-9.156l-.187-.193h9.137z"/><path fill="#EE8B5F" d="M280.063 148.237s-.23.021 0 .114l9.127-.009s1.662-.679-.034-1.673h-9.194s-.256.105.193.123l8.818.017s1.341.782 0 1.428h-8.91z"/><path fill="#FAD790" d="M280.313 152.864s-.831-.983 0-2.281h9.221s.736 1.118 0 2.281h-9.221z"/><path fill="#E9642A" d="M281.525 152.864s-.599-1.253.02-2.281h.377c-.656 1.14 0 2.281 0 2.281h-.397z"/><path fill="#FAAC21" d="M282.159 152.864s-.599-1.253.019-2.281h.377c-.656 1.14 0 2.281 0 2.281h-.396z"/><path fill="#F7C359" d="M289.492 148.309s.831.984 0 2.28h-9.221s-.736-1.117 0-2.28h9.221z"/><path fill="#E9642A" d="M288.281 148.309s.598 1.253-.021 2.28h-.376c.656-1.14 0-2.28 0-2.28h.397z"/><path fill="#FAAC21" d="M287.646 148.309s.6 1.253-.02 2.28h-.375c.656-1.14 0-2.28 0-2.28h.395z"/><g><path fill="#2CB393" d="M280.313 155.079s-.831-.983 0-2.28h9.221s.736 1.117 0 2.28h-9.221z"/><path fill="#209076" d="M281.525 155.079s-.599-1.251.02-2.28h.377c-.656 1.141 0 2.28 0 2.28h-.397z"/><path fill="#93CAB8" d="M282.159 155.079s-.599-1.251.019-2.28h.377c-.656 1.141 0 2.28 0 2.28h-.396z"/></g><g><path fill="#F6BA40" d="M262.096 147.953s.831.984 0 2.281h-9.222s-.736-1.118 0-2.281h9.222z"/><path fill="#E9642A" d="M260.883 147.953s.599 1.253-.018 2.281h-.377c.655-1.139 0-2.281 0-2.281h.395z"/><path fill="#F7DB9A" d="M260.25 147.953s.6 1.253-.02 2.281h-.377c.656-1.139 0-2.281 0-2.281h.397z"/><path fill="#ED6D35" d="M253.24 156.979s-.831-.983 0-2.282h9.221s.736 1.119 0 2.282h-9.221z"/><path fill="#F5AC1C" d="M254.451 156.979s-.597-1.252.021-2.282h.376c-.656 1.143 0 2.282 0 2.282h-.397z"/><path fill="#FAAC21" d="M255.086 156.979s-.6-1.252.02-2.282h.377c-.658 1.143 0 2.282 0 2.282h-.397z"/><g><path fill="#2CB393" d="M253.24 154.705s-.831-.984 0-2.28h9.221s.736 1.117 0 2.28h-9.221z"/><path fill="#209076" d="M254.451 154.705s-.597-1.252.021-2.28h.376c-.656 1.14 0 2.28 0 2.28h-.397z"/><path fill="#93CAB8" d="M255.086 154.705s-.6-1.252.02-2.28h.377c-.658 1.14 0 2.28 0 2.28h-.397z"/></g><g><path fill="#2CB393" d="M252.78 152.474s-.831-.983 0-2.281h9.221s.736 1.118 0 2.281h-9.221z"/><path fill="#209076" d="M253.992 152.474s-.599-1.253.02-2.281h.375c-.656 1.141 0 2.281 0 2.281h-.395z"/><path fill="#93CAB8" d="M254.625 152.474s-.598-1.253.02-2.281h.377c-.656 1.141 0 2.281 0 2.281h-.397z"/></g></g><g><path fill="#F0EFEF" d="M205.441 153.815h-8.906s-1.34 1.239 0 2.92h8.906s-1.085-1.635 0-2.92z"/><path fill="#D0D1D1" d="M195.939 154.045h9.34l-.182.356h-9.158zM205.011 154.688l-.046.373h-9.026v-.373zM204.963 155.275h-9.198l.252.377h8.994zM195.939 155.957h9.154l.186.383h-9.133z"/><path fill="#209076" d="M205.441 153.815s.23-.04 0-.229l-9.123.018s-1.661 1.349.034 3.322h9.191s.256-.208-.193-.241l-8.815-.036s-1.34-1.553 0-2.833h8.906z"/></g><g><path fill="#F0EFEF" d="M205.226 150.482h-8.906s-1.339.641 0 1.51h8.906s-1.085-.846 0-1.51z"/><path fill="#D0D1D1" d="M195.724 150.601h9.339l-.183.184h-9.156zM204.795 150.935l-.046.191h-9.025v-.191zM204.747 151.237h-9.198l.253.195h8.993zM195.724 151.591h9.153l.186.198h-9.133z"/><path fill="#209076" d="M205.226 150.482s.23-.021 0-.119l-9.123.01s-1.661.697.034 1.719h9.191s.256-.107-.193-.125l-8.815-.018s-1.339-.804 0-1.467h8.906z"/></g><path fill="#F9D1BF" d="M205.535 147.288h-8.906s-1.34 1.239 0 2.919h8.906s-1.085-1.634 0-2.919z"/><path fill="#F4B092" d="M196.033 147.517h9.34l-.184.356h-9.156zM205.104 148.161l-.045.37h-9.026v-.37zM205.057 148.748h-9.199l.252.377h8.994zM196.033 149.43h9.154l.186.382-9.134.002z"/><path fill="#EC7846" d="M205.535 147.288s.23-.039 0-.229l-9.123.018s-1.661 1.351.034 3.323h9.191s.256-.208-.193-.242l-8.815-.035s-1.34-1.553 0-2.834h8.906z"/><path fill="#F9D1BF" d="M196.704 153.479h8.906s1.341-.567 0-1.337h-8.906c0 .001 1.085.75 0 1.337z"/><path fill="#F4B092" d="M206.206 153.375h-9.34l.184-.163h9.156zM197.135 153.08l.046-.17h9.025v.17zM197.183 152.811h9.198l-.252-.172h-8.994zM206.206 152.498h-9.153l-.187-.175h9.135z"/><path fill="#EC7846" d="M196.704 153.479s-.23.019 0 .106l9.123-.01s1.662-.617-.034-1.521h-9.191s-.256.096.194.111l8.814.016s1.341.711 0 1.298h-8.906z"/><g><path fill="#F9CC72" d="M184.829 154.854s-.829-.896 0-2.076h9.218s.735 1.018 0 2.076h-9.218z"/><path fill="#E9642A" d="M186.041 154.854s-.599-1.14.02-2.076h.376c-.656 1.038 0 2.076 0 2.076h-.396z"/><path fill="#FAAC21" d="M186.674 154.854s-.598-1.14.02-2.076h.377c-.656 1.038 0 2.076 0 2.076h-.397z"/></g><g><path fill="#63A3D1" d="M185.629 156.971s-.832-.895 0-2.075h9.217s.735 1.018 0 2.075h-9.217z"/><path fill="#1D75B8" d="M186.839 156.971s-.598-1.139.02-2.075h.377c-.656 1.038 0 2.075 0 2.075h-.397z"/><path fill="#E3E4E5" d="M187.473 156.971s-.599-1.139.018-2.075h.378c-.656 1.038 0 2.075 0 2.075h-.396z"/></g><g><path fill="#2CB393" d="M195.408 144.793s1.22.046 1.467 1.468l-6.518 6.519s-1.238-.199-1.467-1.469l6.518-6.518z"/><path fill="#209076" d="M194.551 145.648s1.229.384 1.454 1.482l-.266.267c-.271-1.198-1.469-1.468-1.469-1.468l.281-.281z"/><path fill="#93CAB8" d="M194.104 146.097s1.229.384 1.454 1.482l-.267.267c-.27-1.198-1.467-1.468-1.467-1.468l.28-.281z"/></g><g><path fill="#F7C359" d="M295.023 154.854s-.83-.896 0-2.076h9.217s.736 1.018 0 2.076h-9.217z"/><path fill="#E9642A" d="M296.234 154.854s-.598-1.14.02-2.076h.377c-.656 1.038 0 2.076 0 2.076h-.397z"/><path fill="#FAAC21" d="M296.868 154.854s-.598-1.14.019-2.076h.377c-.656 1.038 0 2.076 0 2.076h-.396z"/><g><path fill="#63A3D1" d="M295.821 156.971s-.83-.895 0-2.075h9.218s.735 1.018 0 2.075h-9.218z"/><path fill="#1D75B8" d="M297.033 156.971s-.598-1.139.02-2.075h.377c-.656 1.038 0 2.075 0 2.075h-.397z"/><path fill="#E3E4E5" d="M297.666 156.971s-.598-1.139.02-2.075h.376c-.655 1.038 0 2.075 0 2.075h-.396z"/></g><g><path fill="#63A3D1" d="M295.48 152.762s-.83-.896 0-2.076h9.218s.735 1.018 0 2.076h-9.218z"/><path fill="#1D75B8" d="M296.692 152.762s-.599-1.141.019-2.076h.377c-.656 1.037 0 2.076 0 2.076h-.396z"/><path fill="#E3E4E5" d="M297.324 152.762s-.598-1.141.02-2.076h.377c-.656 1.037 0 2.076 0 2.076h-.397z"/></g></g><g><path fill="#F2D596" d="M313.318 92.551h-196.3l-6.766 22.07H320z"/><g fill="#E5BC65"><path d="M117.018 92.551h3.523v22.07h-3.523zM124.063 92.551h3.523v22.07h-3.523zM113.775 114.621h-3.523l3.523-11.492zM131.107 92.551h3.523v22.07h-3.523zM138.154 92.551h3.521v22.07h-3.521zM145.198 92.551h3.523v22.07h-3.523zM152.244 92.551h3.522v22.07h-3.522zM159.29 92.551h3.521v22.07h-3.521zM166.334 92.551h3.521v22.07h-3.521zM173.381 92.551h3.521v22.07h-3.521zM180.424 92.551h3.524v22.07h-3.524zM187.472 92.551h3.52v22.07h-3.52zM194.516 92.551h3.523v22.07h-3.523zM201.559 92.551h3.523v22.07h-3.523zM208.605 92.551h3.523v22.07h-3.523zM215.65 92.551h3.521v22.07h-3.521z"/></g><g fill="#E5BC65"><path d="M222.865 92.551h3.523v22.07h-3.523zM229.911 92.551h3.522v22.07h-3.522zM236.956 92.551h3.524v22.07h-3.524zM244.002 92.551h3.522v22.07h-3.522zM251.047 92.551h3.523v22.07h-3.523zM258.093 92.551h3.521v22.07h-3.521zM265.138 92.551h3.522v22.07h-3.522zM272.184 92.551h3.521v22.07h-3.521zM279.227 92.551h3.523v22.07h-3.523zM286.274 92.551h3.52v22.07h-3.52zM293.318 92.551h3.523v22.07h-3.523zM300.362 92.551h3.522v22.07h-3.522zM307.408 92.551h3.523v22.07h-3.523zM317.976 114.621h-3.523v-18.32l3.523 11.619z"/></g><path fill="#FDCB84" d="M313.235 114.621H110.252v4.242H320v-4.242z"/><path fill="#F9B056" d="M313.235 114.621H110.252v4.242H320v-4.242z"/><path fill="#DBAF62" d="M313.235 114.621H110.252v4.242H320v-4.242z"/></g><path fill="#948B80" d="M112.428 161.651h205.518v1.718H112.428z"/><path opacity=".6" fill="#ADADAD" d="M113.654 163.434h203.084v2.961H113.654z"/><path fill="#B9AB99" d="M112.428 160.345h205.518v1.721H112.428z"/><g><path fill="#E3E4E5" d="M201.998 157.589s-.326.354.303.709h6.384l-.192-.709h-6.495z"/><path fill="#FFF" d="M208.4 157.589s-.044.319.284.709l.295-6.917s-.25-.079-.295-1.212l-.284 7.42z"/><path fill="#B9BBBD" d="M208.356 157.758h-6.189s-.19.025-.167.075c.02.051.258.075.258.075h6.099v-.15zM208.5 158.018l-6.333.064s-.19.023-.167.075c.02.051.258.075.258.075l6.328-.075-.086-.139z"/><path fill="#209076" d="M201.998 157.589h6.402l.284-7.42-5.355-.021s-.888-.083-.888 1.342l-.443 6.099z"/><path fill="#12705A" d="M201.998 157.589s-.316.355.213.709h.09s-.42-.408-.198-.709h-.105z"/></g><g><path fill="#E3E4E5" d="M292.47 157.589s.325.354-.304.709h-6.385l.193-.709h6.496z"/><path fill="#FFF" d="M286.065 157.589s.045.319-.284.709l-.294-6.917s.249-.079.294-1.212l.284 7.42z"/><path fill="#B9BBBD" d="M286.11 157.758h6.188s.189.025.169.075c-.022.051-.259.075-.259.075h-6.099v-.15zM285.967 158.018l6.332.064s.189.023.169.075c-.022.051-.259.075-.259.075l-6.328-.075.086-.139z"/><path fill="#209076" d="M292.47 157.589h-6.404l-.284-7.42 5.356-.021s.888-.083.888 1.342l.444 6.099z"/><path fill="#12705A" d="M292.47 157.589s.315.355-.214.709h-.09s.42-.408.198-.709h.106z"/></g></g><g><path fill="#D0D1D1" d="M145.52 7.643l-12.264 12.303-15.199-7.258 13.455 24.932 10.535 1.568L157 28.575z"/><path fill="#F0EFEF" d="M146.914 7.973l-13.658 11.973-15.622-6.143 13.455 24.931 10.534 1.569 14.953-10.612z"/><path fill="#FFF" d="M148.069 8.412L133.65 20.824l-16.374-5.806 14.206 24.593 10.536 1.569 15.861-11.256z"/><path fill="#63A3D1" d="M148.936 8.924l-15.434 12.637-16.373-5.806 14.207 24.593 10.535 1.569 16.571-11.761z"/><path fill="#1D75B8" d="M131.058 20.693l9.462 21.022s1.66 2.163 3.813-1.546l-9.037-20.076c-.001.001-2.376 1.261-4.238.6z"/></g><g opacity=".5"><path fill="#D0D1D1" d="M268.208 20.222l-11.806-.923-2.955-11.096-6.986 18.004 3.844 6.16 12.118 3.066z"/><path fill="#F0EFEF" d="M268.652 21.091l-12.25-1.792-3.719-10.821-6.988 18.003 3.844 6.16 12.117 3.066z"/><path fill="#FFF" d="M268.936 21.885l-12.815-1.993-4.227-11.064-6.479 18.245 3.845 6.159 12.851 3.254z"/><path fill="#63A3D1" d="M269.053 22.561l-13.379-2.421-4.228-11.061-6.478 18.242 3.845 6.16 13.426 3.4z"/><path fill="#1D75B8" d="M255.041 18.488l-6.723 14.203s-.389 1.817 2.486 1.295l6.422-13.565c.001 0-1.703-.675-2.185-1.933z"/></g><g opacity=".5"><path fill="#D0D1D1" d="M32.022 88.866l-11.805-.923-2.953-11.095-6.988 18.003 3.844 6.16 12.118 3.065z"/><path fill="#F0EFEF" d="M32.468 89.734l-12.251-1.791-3.719-10.822-6.987 18.004 3.843 6.159 12.118 3.068z"/><path fill="#FFF" d="M32.751 90.528l-12.815-1.993-4.227-11.061-6.48 18.243 3.845 6.159 12.852 3.253z"/><path fill="#63A3D1" d="M32.868 91.205l-13.38-2.422-4.226-11.06-6.479 18.244 3.844 6.159 13.428 3.399z"/><path fill="#1D75B8" d="M18.856 87.132l-6.724 14.203s-.388 1.817 2.487 1.296l6.421-13.565c.001-.001-1.702-.675-2.184-1.934z"/></g><g><path fill="#D0D1D1" d="M209.721 101.044l-19.655-25.278-29.443 9.847 30.244-42.568 19.626-.49 24.956 22.789z"/><path fill="#F0EFEF" d="M212.346 100.754l-22.28-24.988-29.964 7.712 30.243-42.57 19.626-.49 24.956 22.788z"/><path fill="#FFF" d="M214.559 100.213l-23.575-25.962-31.261 6.922 31.541-41.778 19.626-.491 26.471 24.172z"/><path fill="#F19F7B" d="M216.26 99.471L190.881 72.87l-31.262 6.923 31.542-41.781 19.627-.489 27.655 25.254z"/><path fill="#ED6D35" d="M186.212 73.904l22.057-36.318s3.526-3.582 6.626 3.687L193.829 75.96c-.001-.001-4.059-2.845-7.617-2.056z"/></g><g opacity=".8"><path fill="#D0D1D1" d="M58.188 12.357l-15.086 7.918-3.842 16.408-12.887-12.086 1.256-18.14L43.82 1.811z"/><path fill="#F0EFEF" d="M58.282 10.955l-15.18 9.32-5.01 16.481L25.205 24.67l1.256-18.141 16.191-4.646z"/><path fill="#FFF" d="M58.207 9.746l-15.811 9.905-5.546 17.086-12.35-12.69 1.256-18.14L42.813.596z"/><path fill="#2CB393" d="M57.977 8.786l-16.315 10.79-5.545 17.085L23.766 23.97l1.255-18.139L42.757 0z"/><path fill="#209076" d="M41.045 21.481L24.818 7.154s-.547-3.091 3.166-2.58l15.572 13.75c.001 0-1.894 1.252-2.511 3.157z"/></g><g><path fill="#764E2A" d="M7.873 144.668s-1.516-.34-2.061 1.561c-.449 1.566.262 1.861.74 1.647.477-.216 1.655-3.028 1.321-3.208z"/><path fill="#FAAC21" d="M17.67 175.038l.474 1.039h2.674l-.061 1.574h-4.585l-4.646-11.247-2.675-.642 2.048 1.787-4.478 7.259s-1.391.031-1.589-1.023l2.995-5.227s-4.218-.657-5.654-2.949c.841-2.598 7.442-2.781 7.442-2.781l2.797.764 5.258 11.446z"/><path fill="#FFF" d="M19.549 158.244l-.504 1.527-7.641-1.895s.168-1.406 1.161-2.17l6.984 2.538z"/><path fill="#1D75B8" d="M10.38 149.595l2.186 6.112c-.993.764-1.161 2.17-1.161 2.17l-1.406-3.576-.382 8.527s-6.602.184-7.442 2.781c-.443-.718-.626-1.589-.321-2.644 1.284-4.462.887-12.989.887-12.989l3.331-1.116.275 2.721h1.788l.168-2.721 2.077.735z"/><path fill="#FFF" d="M8.302 148.86l-.168 2.721H6.346l-.276-2.721.505-.168s-.765-3.561 1.253-3.82c2.048-.244 0 3.82 0 3.82l.474.168zM6.422 174.809l1.131 2.843H5.628l-1.223-3.103.428-.764c.198 1.055 1.589 1.024 1.589 1.024z"/><path fill="#E3E4E5" d="M10.297 152.389a1.179 1.179 0 0 1-2.356 0v-.319a1.177 1.177 0 1 1 2.356 0v.319z"/><path fill="#E3E4E5" d="M8.411 151.815s-.382-.685-1.099-.254c-.715.429-.525 2.578 1.432 1.479l-.237-.383s-.907.55-1.051-.274c-.144-.822.621-.299.621-.299l.334-.269z"/><path fill="#B9BBBD" d="M8.507 151.419s.478.479 1.433 0c-.001 0-.86-.381-1.433 0z"/><path fill="#FFF" d="M7.025 152.073l-2.101 3.948 1.051 1.019 1.814-4.33z"/><path fill="#726658" d="M19.229 176.081l-.311 1.055h-3.01l.061.524 4.797-.004.059-1.575zM7.157 176.471l-1.522.008-1.001-2.336-.354.414 1.355 3.105h1.911z"/><path fill="#764E2A" d="M6.584 145.933s1.6.144 2.411-.167c0 0-.071-1.17-1.122-1.098-1.051.07-1.289 1.265-1.289 1.265zM5.832 147.24s-1.408 1.049-.668 4.179l.227-.357.254.522v-.691l.283.526s.597-2.865-.096-4.179z"/></g><g><path fill="#71BAA1" d="M48.691 149.304l-2.919 12.501c-2.919.198-5.73-1.422-5.73-1.422v-2.414l-3.071 1.91-2.308-2.109c1.223-.825 1.283-2.353 1.283-2.353l1.666.26 2.154-6.373 2.995-.81s1.024 1.314 3.347.106l2.583.704z"/><path fill="#FFF" d="M44.993 148.295l1.115.306c-2.322 1.208-3.347-.106-3.347-.106l.703-.199s-1.665-2.949 0-3.713c1.667-.75 1.529 3.712 1.529 3.712z"/><path fill="#764E2A" d="M45.772 161.805l-.321 1.375c-2.842-.138-5.409-1.88-5.409-1.88v-.917s2.812 1.62 5.73 1.422z"/><path fill="#A77D50" d="M45.451 163.18l-.718 3.071-6.372.627 1.345 4.905-1.926.749-.81-1.574-.627 2.262-2.124-.474.458-2.935-.138-6.999 5.502-1.513c.001.001 2.568 1.743 5.41 1.881z"/><path fill="#FFF" d="M40.409 174.396l.244.887-.611 2.384h-1.681l.642-2.767-1.223-2.368 1.926-.749z"/><path fill="#A77D50" d="M36.344 173.22l-1.023 3.668c-1.3.122-1.65-.581-1.65-.581l.55-3.561 2.123.474z"/><path fill="#FFF" d="M34.036 149.06l1.91 6.357s-.061 1.527-1.283 2.353l-3.806-3.499 1.269-1.269 2.414 2.935-2.276-6.251 1.772-.626z"/><path fill="#764E2A" d="M35.32 176.888l-.215.794h-3.789l.046-1.497 2.308.122s.351.703 1.65.581z"/><path fill="#3C2418" d="M40.622 145.773h.792l-.577.655 1.01-.429s2.356-.828 2.523-.51c.169.318.039 1.762.604 1.733.566-.03.495-3.11-.819-3.183-1.312-.069-3.533 1.734-3.533 1.734z"/></g><g><path fill="#A77D50" d="M65.572 144.901l.264 2.556-1.336.143.549-2.866z"/><path fill="#FFF" d="M83.476 174.457l-3.455 3.194-2.017-2.659 1.376-1.284 1.039 1.62 1.421-2.108zM75.728 167.963l3.652 5.745-1.376 1.284-3.805-5.013.152 3.729-1.818-.26-.81-7.014s.993-4.172 3.117-4.264h.016c1.085 1.621.872 5.793.872 5.793z"/><path fill="#5B4A42" d="M76.263 176.199l-.49 1.529-2.873-1.147-.367-3.133 1.819.26.077 1.728z"/><path fill="#FAAC21" d="M74.199 161.605c.26.106.458.29.642.565-2.124.092-3.117 4.264-3.117 4.264s-7.045.29-8.573 0c-1.543-.275-2.536-1.437-2.536-1.437l-.811-11.645-1.207-2.277.428-1.926 3.286-.916 1.986 3.285 1.069-3.347 2.445.412s.474.765 1.069 1.88l-.886 2.98.672 5.257-2.506 1.604.855 1.681 1.742-.993c.613-.013 3.807-.028 5.442.613z"/><path fill="#FFF" d="M71.266 156.99c.168 3.148-2.599 4.004-2.599 4.004h.092l-1.742.993-.855-1.681 2.506-1.604s1.712-2.002-.672-5.257l.886-2.98c.962 1.818 2.246 4.569 2.384 6.525zM65.366 148.173l-1.069 3.347-1.986-3.285.84-.229s-.703-4.401.749-4.401c2.445-.016.917 4.478.917 4.478l.549.09zM58.597 151.076l1.207 2.278-1.451 6.967 1.451 6.694h-1.543l-1.728-6.694z"/><g><path fill="#D0D1D1" d="M63.176 154.352l4.017 2.529 3.607-2.862-2.063 7.462-2.71 1.063-4.632-1.915z"/><path fill="#F0EFEF" d="M62.824 154.524l4.369 2.357 3.788-2.591-2.063 7.463-2.711 1.061-4.631-1.914z"/><path fill="#FFF" d="M62.543 154.712l4.6 2.426 4.007-2.546-2.283 7.418-2.711 1.061-4.912-2.03z"/><path fill="#63A3D1" d="M62.344 154.9l4.883 2.426 4.007-2.548-2.283 7.419-2.711 1.061-5.133-2.12z"/><path fill="#1D75B8" d="M67.826 156.945l-1.238 6.178s-.31.678-1.109-.18l1.182-5.9c-.001 0 .708.191 1.165-.098z"/></g><path fill="#FFF" d="M69.531 160.867s-.842-.444-.675-1.573c.167-1.128 1.128-.689 1.128-.689s.541 1.22-.453 2.262z"/><path fill="#A77D50" d="M63.258 145.331s1.768-.048 2.578-.263c0 0-.148-2.054-1.864-1.911-1.717.144-2.171 4.729-2.171 4.729h1.324l.133-2.555z"/></g></svg>