<svg xmlns="http://www.w3.org/2000/svg" width="152.925" height="37.048" viewBox="0 0 152.925 37.048"><path fill="none" d="M0 0h152.925v37.048H0z"/><g fill="#803F6B"><path d="M37.873 12.397c.552 0 1.054.076 1.507.227.453.151.859.363 1.217.637.359.272.67.597.934.973.262.375.479.789.646 1.238a6.9 6.9 0 0 1 .362 1.438c.073.508.1 1.027.08 1.558h-7.817c.024.556.115 1.054.271 1.491.155.439.372.813.644 1.119.273.308.6.541.98.702.379.161.807.241 1.279.241.303 0 .597-.039.881-.117.285-.078.549-.191.79-.344.242-.15.457-.334.647-.551.189-.217.344-.463.461-.736h1.74c-.404 1.024-.984 1.807-1.74 2.345s-1.717.808-2.882.808c-.774 0-1.472-.133-2.091-.398s-1.147-.64-1.583-1.123a4.923 4.923 0 0 1-1.003-1.74c-.23-.678-.347-1.431-.347-2.26 0-.803.122-1.543.365-2.219a5.144 5.144 0 0 1 1.028-1.74 4.69 4.69 0 0 1 1.586-1.138 4.99 4.99 0 0 1 2.045-.411zm2.845 4.9a5.435 5.435 0 0 0-.252-1.375 3.587 3.587 0 0 0-.574-1.104 2.609 2.609 0 0 0-.893-.734 2.632 2.632 0 0 0-1.207-.268c-.491 0-.92.1-1.286.297s-.672.459-.917.783a3.492 3.492 0 0 0-.564 1.114 5.207 5.207 0 0 0-.223 1.287h5.916zM56.156 12.419c.492 0 .948.068 1.37.205s.787.348 1.094.633c.308.285.549.649.725 1.094.175.443.263.969.263 1.578v7.262h-1.923v-7.004c0-.396-.044-.736-.132-1.021s-.215-.518-.38-.698a1.501 1.501 0 0 0-.607-.399 2.42 2.42 0 0 0-.805-.127c-.42 0-.805.095-1.155.285a2.792 2.792 0 0 0-.907.789 3.85 3.85 0 0 0-.592 1.197 5.093 5.093 0 0 0-.213 1.51v5.469h-1.93v-7.004c0-.396-.047-.736-.139-1.021a1.846 1.846 0 0 0-.392-.698 1.526 1.526 0 0 0-.614-.399 2.452 2.452 0 0 0-.809-.127c-.424 0-.811.094-1.158.281-.35.188-.647.449-.896.782-.248.335-.44.733-.577 1.196s-.206.97-.206 1.521v5.469h-1.922V12.668h1.799v1.792c.19-.356.41-.664.661-.922a3.532 3.532 0 0 1 1.784-1.002 4.666 4.666 0 0 1 1.049-.117c.343 0 .682.042 1.018.125.337.082.646.213.929.391a2.638 2.638 0 0 1 1.177 1.694c.181-.391.397-.725.653-1.002s.537-.508.842-.688.626-.313.965-.395a4.31 4.31 0 0 1 1.028-.125zM61.319 17.933c0-.838.121-1.599.365-2.281s.59-1.266 1.039-1.748a4.582 4.582 0 0 1 1.623-1.118c.633-.264 1.341-.396 2.121-.396.789 0 1.502.132 2.139.396.636.263 1.18.636 1.631 1.118.45.482.797 1.065 1.042 1.748.244.683.366 1.443.366 2.281 0 .834-.122 1.59-.366 2.268a4.962 4.962 0 0 1-1.042 1.736c-.451.48-.995.852-1.631 1.115-.637.264-1.35.395-2.139.395-.78 0-1.488-.131-2.121-.395a4.614 4.614 0 0 1-1.623-1.115c-.449-.479-.795-1.059-1.039-1.736s-.365-1.434-.365-2.268zm1.946 0c0 .313.021.631.064.955.045.324.117.637.217.939s.232.588.395.855a2.697 2.697 0 0 0 1.434 1.174c.32.115.684.172 1.094.172a3.24 3.24 0 0 0 1.1-.172c.319-.114.599-.271.837-.472.239-.2.442-.435.608-.702.164-.268.299-.553.401-.855s.175-.615.22-.939c.043-.324.066-.643.066-.955 0-.316-.023-.639-.066-.965-.045-.326-.117-.643-.22-.947s-.237-.591-.401-.859a2.879 2.879 0 0 0-.608-.701 2.724 2.724 0 0 0-.837-.472 3.26 3.26 0 0 0-1.1-.173c-.41 0-.773.059-1.094.173a2.646 2.646 0 0 0-.834.472 2.888 2.888 0 0 0-.6.701c-.162.269-.295.555-.395.859s-.172.621-.217.947a7.376 7.376 0 0 0-.064.965zM76.003 12.668h2.18v1.258h-2.18v5.828c0 .366.02.681.055.943.037.263.113.479.228.647a.988.988 0 0 0 .501.372c.219.081.512.121.877.121a8.41 8.41 0 0 0 .628-.028v1.447l-.52.029c-.141.01-.285.018-.432.021a8.93 8.93 0 0 1-.365.008c-.395 0-.768-.049-1.118-.146a2.553 2.553 0 0 1-.922-.464 2.22 2.22 0 0 1-.626-.831c-.152-.341-.229-.758-.229-1.25v-6.698h-1.806v-1.258h1.806V9.501h1.923v3.167zM81.386 10.577h-1.93V8.646h1.93v1.931zm-1.93 2.091h1.93V23.19h-1.93V12.668zM83.164 17.933c0-.838.121-1.599.366-2.281a4.961 4.961 0 0 1 1.039-1.748 4.57 4.57 0 0 1 1.622-1.118c.632-.264 1.341-.396 2.121-.396.79 0 1.502.132 2.138.396a4.605 4.605 0 0 1 1.631 1.118c.451.482.799 1.065 1.043 1.748s.365 1.443.365 2.281c0 .834-.121 1.59-.365 2.268s-.592 1.257-1.043 1.736c-.45.48-.994.852-1.631 1.115-.636.264-1.348.395-2.138.395-.78 0-1.489-.131-2.121-.395a4.6 4.6 0 0 1-1.622-1.115 4.935 4.935 0 0 1-1.039-1.736c-.245-.679-.366-1.434-.366-2.268zm1.945 0c0 .313.021.631.065.955s.115.637.215.939c.101.303.232.588.396.855s.363.502.6.702.515.357.834.472a3.22 3.22 0 0 0 1.094.172c.413 0 .78-.057 1.099-.172.32-.114.6-.271.839-.472s.441-.435.606-.702c.166-.268.301-.553.402-.855s.176-.615.219-.939a6.94 6.94 0 0 0 0-1.92c-.043-.326-.117-.643-.219-.947s-.236-.591-.402-.859a2.734 2.734 0 0 0-1.445-1.173 3.254 3.254 0 0 0-1.099-.173c-.409 0-.774.059-1.094.173s-.598.271-.834.472a2.866 2.866 0 0 0-.6.701 4.216 4.216 0 0 0-.396.859c-.1.305-.171.621-.215.947s-.065.648-.065.965zM95.157 12.668h1.813v1.813a3.56 3.56 0 0 1 .647-.867c.261-.255.552-.471.873-.65a4.313 4.313 0 0 1 1.035-.406 4.665 4.665 0 0 1 1.137-.139c.551 0 1.05.08 1.496.238s.827.393 1.145.702c.316.31.561.69.73 1.144.171.454.256.976.256 1.565v7.122h-1.93v-6.727a4.29 4.29 0 0 0-.135-1.152 2.046 2.046 0 0 0-.399-.782 1.567 1.567 0 0 0-.647-.446 2.524 2.524 0 0 0-.881-.143c-.526 0-.99.104-1.393.314a3.01 3.01 0 0 0-1.01.846 3.69 3.69 0 0 0-.61 1.22 5.045 5.045 0 0 0-.205 1.444v5.426h-1.923V12.668z"/></g><path fill="#803F6B" d="M8.513 8.816a8.411 8.411 0 0 0-8.411 8.411 8.409 8.409 0 0 0 7.587 8.368l-.426 1.862c-.068.253.013.531.199.676a.44.44 0 0 0 .271.098.448.448 0 0 0 .323-.145l6.354-4.865.002-.004a8.381 8.381 0 0 0 2.512-5.99 8.413 8.413 0 0 0-8.411-8.411zm4.285 8.375a2.286 2.286 0 0 1-.4.609l-.127.13-3.758 3.942-3.76-3.942-.125-.13a2.23 2.23 0 0 1-.402-.609 2.232 2.232 0 0 1 2.053-3.116c1.126 0 2.048.838 2.2 1.922.012 0 .021-.004.033-.004.01 0 .021.004.031.004a2.226 2.226 0 0 1 2.201-1.922 2.232 2.232 0 0 1 2.054 3.116z"/></svg>