<svg xmlns="http://www.w3.org/2000/svg" width="152.925" height="37.048" viewBox="0 0 152.925 37.048"><path fill="none" d="M0 0h152.925v37.048H0z"/><g fill="#EA851B"><path d="M35.394 10.576h-1.93v-1.93h1.93v1.93zm-1.93 2.092h1.93V23.19h-1.93V12.668zM45.304 21.634c-.38.6-.864 1.047-1.452 1.345a4.22 4.22 0 0 1-1.94.446c-.741 0-1.408-.129-2.001-.384a4.177 4.177 0 0 1-1.51-1.101c-.414-.479-.732-1.059-.954-1.744-.223-.685-.332-1.457-.332-2.314 0-.854.109-1.619.328-2.297s.537-1.252.951-1.725a4.112 4.112 0 0 1 1.502-1.086c.588-.252 1.252-.377 1.993-.377.327 0 .654.036.983.109s.641.184.933.329c.292.146.56.331.8.553.242.222.436.479.582.771V8.646h1.924V23.19h-1.807v-1.556zm-.022-3.694c0-.316-.026-.639-.077-.965a5.434 5.434 0 0 0-.237-.948 4.532 4.532 0 0 0-.406-.858c-.164-.269-.359-.502-.589-.702s-.489-.358-.782-.476-.621-.176-.987-.176c-.39 0-.738.056-1.046.164a2.745 2.745 0 0 0-.812.454 2.808 2.808 0 0 0-.597.685c-.163.264-.295.547-.397.852s-.177.624-.224.958-.07.667-.07.998c0 .487.061.975.18 1.462.119.488.307.927.561 1.316.253.391.578.707.976.951s.874.365 1.43.365c.561 0 1.037-.123 1.43-.369.392-.246.711-.564.954-.959.244-.391.42-.829.53-1.311.107-.484.163-.963.163-1.441zM53.706 12.397c.551 0 1.053.075 1.507.227.453.15.859.363 1.218.637.358.272.668.597.932.973.264.375.479.788.646 1.238.17.451.29.931.363 1.438.072.507.1 1.026.081 1.558h-7.818c.024.556.114 1.053.271 1.491.156.439.37.813.644 1.119s.6.541.979.702c.381.161.807.241 1.279.241.302 0 .597-.039.882-.117a2.907 2.907 0 0 0 1.437-.895c.189-.217.343-.463.459-.736h1.74c-.404 1.025-.984 1.807-1.74 2.345-.755.538-1.716.808-2.881.808-.775 0-1.473-.133-2.092-.398s-1.146-.641-1.582-1.123a4.92 4.92 0 0 1-1.002-1.74c-.231-.678-.348-1.431-.348-2.26 0-.805.121-1.543.366-2.219a5.137 5.137 0 0 1 1.026-1.74 4.68 4.68 0 0 1 1.588-1.138 4.987 4.987 0 0 1 2.045-.411zm2.846 4.901a5.41 5.41 0 0 0-.253-1.375 3.614 3.614 0 0 0-.574-1.105 2.62 2.62 0 0 0-.893-.734 2.627 2.627 0 0 0-1.206-.268c-.492 0-.921.1-1.286.297-.366.197-.673.459-.919.783s-.434.695-.563 1.114-.204.849-.224 1.288h5.918zM59.864 15.49c.107-.575.309-1.06.607-1.455a3.616 3.616 0 0 1 1.078-.962c.422-.246.885-.422 1.39-.529s1.02-.161 1.546-.161c.347 0 .69.023 1.031.069.342.047.666.122.977.227.311.105.597.24.863.406a2.739 2.739 0 0 1 1.151 1.426c.112.312.168.668.168 1.067v5.39a10.606 10.606 0 0 0 .071 1.216c.021.199.051.384.088.557.036.174.081.322.135.449h-1.931a5.092 5.092 0 0 1-.128-.613 6.677 6.677 0 0 1-.069-1.047 4.68 4.68 0 0 1-1.682 1.383 5.06 5.06 0 0 1-2.209.497 4.79 4.79 0 0 1-1.302-.173 3.18 3.18 0 0 1-1.078-.521 2.48 2.48 0 0 1-.735-.896c-.181-.362-.271-.793-.271-1.291 0-.385.06-.728.179-1.026.12-.301.282-.565.486-.794.205-.229.443-.427.717-.592.273-.166.564-.305.877-.418.313-.111.633-.201.963-.27.329-.068.651-.122.969-.161a8.038 8.038 0 0 0 1.126-.208c.36-.096.679-.217.954-.365.275-.149.496-.327.662-.535.166-.207.248-.447.248-.72 0-.546-.201-.973-.604-1.28-.401-.307-.98-.461-1.736-.461-.297 0-.582.039-.855.114s-.52.188-.742.34-.412.339-.57.563c-.158.224-.27.482-.333.774h-2.041zm6.91 1.946c-.18.186-.387.339-.621.461s-.483.224-.749.308a7.87 7.87 0 0 1-.827.207c-.285.057-.566.109-.845.158a5.46 5.46 0 0 0-.833.219 2.627 2.627 0 0 0-.695.363 1.71 1.71 0 0 0-.479.547c-.12.219-.18.479-.18.787 0 .277.042.515.125.713.082.197.197.361.348.489.148.13.327.226.537.286.209.061.443.091.701.091.352 0 .682-.046.992-.139.309-.093.594-.218.855-.376.26-.158.494-.342.701-.55.208-.206.383-.424.527-.649a3.1 3.1 0 0 0 .328-.688c.076-.232.113-.453.113-.662v-1.565z"/></g><path fill-rule="evenodd" clip-rule="evenodd" fill="#EA851B" d="M5.796 25.354h1.492v.986h2.809v-.996h1.52v-1.135h-5.82l-.001 1.145zM11.6 22.572H5.79v1.024h5.81v-1.024zM15.12 13.625c-.51-3.455-3.838-5.933-7.299-5.431-3.193.458-5.538 3.05-5.617 6.272-.061 2.331.903 4.192 2.812 5.515.469.329.725.627.616 1.191-.041.201.043.629.258.625.779-.002 1.562-.002 2.343-.002v-5.383a1.653 1.653 0 0 1-1.183-1.578 1.655 1.655 0 1 1 3.31 0c0 .746-.5 1.373-1.184 1.578v5.383c.684-.002 1.362-.004 2.043-.004.078 0 .154-.006.256-.012 0-.236.012-.816-.003-1.037-.007-.152.044-.232.185-.309 2.545-1.329 3.882-3.969 3.463-6.808z"/><circle fill-rule="evenodd" clip-rule="evenodd" fill="#EA851B" cx="8.706" cy="14.835" r=".709"/></svg>