<svg xmlns="http://www.w3.org/2000/svg" width="153.085" height="37.047" viewBox="0 0 153.085 37.047"><path fill="none" d="M.16 0h152.925v37.047H.16z"/><g fill="#3DA881"><path d="M35.554 10.576h-1.93v-1.93h1.93v1.93zm-1.93 2.092h1.93V23.19h-1.93V12.668zM37.749 12.668h1.813v1.813c.171-.321.386-.609.647-.867.26-.254.552-.472.874-.649.321-.178.666-.313 1.034-.406s.747-.14 1.138-.14c.551 0 1.048.08 1.495.238.445.159.828.393 1.145.703.316.309.561.689.731 1.144.171.453.256.976.256 1.565v7.122h-1.931v-6.728c0-.449-.045-.832-.136-1.152a1.993 1.993 0 0 0-.399-.781 1.55 1.55 0 0 0-.646-.447 2.543 2.543 0 0 0-.881-.143c-.526 0-.991.105-1.393.314-.402.21-.739.492-1.01.846s-.474.76-.61 1.221a5.068 5.068 0 0 0-.204 1.443v5.427h-1.924V12.668zM50.386 20.141c.039.332.141.622.304.871.163.248.368.455.614.617.246.164.521.285.826.365.305.082.618.121.94.121.365 0 .702-.029 1.009-.092.307-.061.572-.152.797-.277a1.45 1.45 0 0 0 .525-.475c.127-.193.19-.419.19-.678 0-.194-.039-.38-.116-.555-.078-.176-.23-.35-.457-.52-.227-.171-.546-.342-.958-.516a14.626 14.626 0 0 0-1.628-.545 15.7 15.7 0 0 1-1.451-.49c-.455-.18-.855-.396-1.199-.65s-.615-.551-.815-.893c-.2-.341-.299-.743-.299-1.207 0-.365.056-.688.167-.968.112-.28.268-.526.465-.739.197-.211.432-.389.701-.533.271-.145.564-.26.879-.348s.644-.151.991-.19a9.547 9.547 0 0 1 1.045-.058c.512 0 1.005.048 1.481.146.475.097.906.262 1.294.496s.714.543.979.925c.266.384.442.86.529 1.431h-1.907a1.837 1.837 0 0 0-.274-.725 1.864 1.864 0 0 0-.535-.53 2.447 2.447 0 0 0-.74-.325 3.54 3.54 0 0 0-.9-.109c-.289 0-.564.031-.83.095s-.501.153-.706.271c-.204.117-.368.26-.493.428a.93.93 0 0 0-.186.566c0 .249.052.459.156.629.105.171.285.327.541.469.256.141.598.28 1.024.416.427.137.961.293 1.604.469.551.156 1.047.33 1.492.523.443.192.82.422 1.13.688s.547.574.712.928c.166.354.248.77.248 1.247 0 .512-.112.954-.342 1.327a2.83 2.83 0 0 1-.947.93 4.578 4.578 0 0 1-1.422.547 8.311 8.311 0 0 1-1.77.18c-.586 0-1.143-.055-1.672-.164s-1.001-.291-1.414-.545a3.205 3.205 0 0 1-1.028-1.006c-.271-.416-.44-.932-.508-1.547h1.954zM60.727 14.232c.399-.634.889-1.094 1.467-1.379a4.293 4.293 0 0 1 1.926-.428c.741 0 1.408.129 2.001.384a4.164 4.164 0 0 1 1.51 1.104c.414.48.731 1.064.954 1.752.222.688.333 1.459.333 2.318 0 .853-.11 1.617-.329 2.295-.22.678-.536 1.252-.951 1.723a4.11 4.11 0 0 1-1.507 1.082c-.59.251-1.252.377-1.988.377-.327 0-.654-.038-.983-.113a3.985 3.985 0 0 1-.933-.34 3.638 3.638 0 0 1-.801-.563 2.677 2.677 0 0 1-.581-.774v5.258H58.92V12.675h1.807v1.557zm.021 3.694c0 .316.026.639.077.965.052.326.131.643.237.947s.243.591.406.859c.163.268.359.502.589.701.229.2.49.358.782.476s.622.175.987.175c.39 0 .738-.055 1.046-.164a2.677 2.677 0 0 0 1.408-1.137c.164-.264.297-.547.398-.852.103-.305.176-.623.224-.955.046-.332.069-.665.069-1.002 0-.487-.06-.975-.179-1.463a4.275 4.275 0 0 0-.56-1.315 3.047 3.047 0 0 0-.977-.95c-.397-.244-.874-.366-1.43-.366a2.79 2.79 0 0 0-1.01.173 2.66 2.66 0 0 0-.789.463c-.229.195-.424.426-.585.691s-.293.55-.396.852a5.544 5.544 0 0 0-.227.939c-.046.325-.07.645-.07.963zM72.544 10.576h-1.93v-1.93h1.93v1.93zm-1.93 2.092h1.93V23.19h-1.93V12.668zM74.739 12.668h1.777v2.259c.004 0 .007.002.007.002s.003.005.007.005c.181-.443.405-.824.674-1.145.268-.318.564-.582.892-.789s.674-.36 1.042-.461a4.31 4.31 0 0 1 1.408-.138c.087.008.168.016.241.025v1.901a3.234 3.234 0 0 1-.15-.022 1.923 1.923 0 0 0-.172-.023c-.059-.01-.117-.015-.175-.02a1.871 1.871 0 0 0-.154-.008c-.429 0-.814.057-1.152.168-.338.113-.636.266-.892.458s-.474.422-.653.688a3.944 3.944 0 0 0-.443.862c-.115.311-.197.633-.249.969s-.077.676-.077 1.017v4.775h-1.93V12.668zM81.628 15.49c.107-.576.311-1.061.606-1.455a3.663 3.663 0 0 1 1.079-.963c.422-.244.885-.422 1.39-.529s1.02-.16 1.546-.16c.347 0 .69.023 1.031.069.342.046.667.122.977.226.31.105.598.24.863.406s.495.367.69.604.349.511.46.822c.113.313.169.668.169 1.068v5.389a11.324 11.324 0 0 0 .07 1.217c.022.198.052.384.088.556.037.174.082.323.135.45h-1.93c-.039-.127-.082-.331-.128-.614s-.069-.631-.069-1.045a4.63 4.63 0 0 1-1.684 1.381 5.077 5.077 0 0 1-2.207.498c-.459 0-.893-.059-1.302-.172a3.216 3.216 0 0 1-1.079-.523 2.478 2.478 0 0 1-.734-.896c-.182-.361-.271-.793-.271-1.289a2.639 2.639 0 0 1 .665-1.822c.205-.229.443-.426.717-.592s.565-.305.877-.417c.313-.112.634-.202.963-.271s.65-.121.969-.16c.39-.045.765-.113 1.126-.209.36-.096.679-.217.954-.365s.496-.326.662-.535c.165-.206.248-.446.248-.719 0-.547-.2-.973-.603-1.28s-.981-.461-1.737-.461c-.297 0-.582.038-.855.114a2.44 2.44 0 0 0-.742.34c-.222.15-.412.338-.57.563s-.27.482-.333.775h-2.041zm6.91 1.946c-.18.186-.388.338-.621.461-.234.121-.484.224-.75.307s-.541.152-.826.208c-.285.057-.566.108-.845.157-.292.054-.57.127-.834.22-.263.093-.494.214-.694.362s-.359.332-.479.548c-.119.218-.18.479-.18.786 0 .278.041.516.124.713s.199.361.349.49c.148.129.327.225.537.285.209.062.443.092.701.092.352 0 .682-.047.991-.139.31-.094.595-.219.856-.377a3.842 3.842 0 0 0 1.228-1.199c.144-.228.253-.455.328-.688.076-.231.113-.452.113-.662v-1.564zM95.237 12.668h2.18v1.258h-2.18v5.828c0 .365.019.68.055.943.037.263.111.479.228.646a.992.992 0 0 0 .5.373c.22.081.513.121.878.121a6.717 6.717 0 0 0 .628-.029v1.447l-.52.029c-.141.01-.285.018-.432.021a8.93 8.93 0 0 1-.365.008c-.395 0-.768-.049-1.119-.146a2.56 2.56 0 0 1-.922-.463 2.214 2.214 0 0 1-.624-.831c-.154-.341-.23-.759-.23-1.251v-6.697h-1.807v-1.258h1.807V9.501h1.923v3.167zM100.62 10.576h-1.93v-1.93h1.93v1.93zm-1.93 2.092h1.93V23.19h-1.93V12.668zM102.398 17.933c0-.839.121-1.599.365-2.282a4.98 4.98 0 0 1 1.038-1.746c.449-.484.99-.857 1.624-1.12.633-.263 1.341-.395 2.12-.395.79 0 1.503.132 2.139.395.637.263 1.18.636 1.631 1.12a4.975 4.975 0 0 1 1.043 1.746c.243.684.365 1.443.365 2.282 0 .833-.122 1.589-.365 2.267a4.94 4.94 0 0 1-1.043 1.736 4.606 4.606 0 0 1-1.631 1.115c-.636.264-1.349.396-2.139.396-.779 0-1.487-.133-2.12-.396a4.6 4.6 0 0 1-1.624-1.115c-.449-.479-.794-1.059-1.038-1.736s-.365-1.434-.365-2.267zm1.945 0c0 .312.021.63.065.954s.116.638.216.939c.101.303.232.588.396.855.163.269.363.502.6.703.235.199.515.357.833.471.32.115.685.172 1.094.172.414 0 .781-.057 1.101-.172.319-.113.598-.271.837-.471.238-.201.441-.435.607-.703.165-.268.299-.553.401-.855.103-.302.176-.615.22-.939a7.096 7.096 0 0 0 0-1.92c-.044-.326-.117-.642-.22-.946s-.236-.591-.401-.859a2.734 2.734 0 0 0-1.444-1.173 3.242 3.242 0 0 0-1.101-.173c-.409 0-.773.058-1.094.173a2.639 2.639 0 0 0-.833.471c-.236.199-.437.434-.6.702s-.295.555-.396.859c-.1.305-.172.62-.216.946a7.224 7.224 0 0 0-.065.966zM114.391 12.668h1.813v1.813c.171-.321.387-.609.648-.867.261-.254.551-.472.873-.649s.667-.313 1.035-.406.746-.14 1.137-.14c.551 0 1.05.08 1.496.238.445.159.827.393 1.143.703.318.309.562.689.732 1.144.171.453.256.976.256 1.565v7.122h-1.931v-6.728a4.25 4.25 0 0 0-.135-1.152 2.02 2.02 0 0 0-.399-.781 1.556 1.556 0 0 0-.646-.447 2.547 2.547 0 0 0-.881-.143c-.527 0-.991.105-1.393.314-.402.21-.739.492-1.01.846s-.475.76-.611 1.221a5.068 5.068 0 0 0-.204 1.443v5.427h-1.924V12.668z"/></g><path fill="#3DA881" d="M11.997 21.439c-.748-.28-.786-.662-.522-1.283.306-.715.606-1.434.857-2.166.446-1.305.399-2.604-.265-3.825-.338-.631-.783-1.1-1.326-1.401-.45-.25-.972-.373-1.56-.375v-.002c-.036-.002-.069.002-.105.001-.036.001-.069-.003-.106-.001v.002c-.587.002-1.108.125-1.56.375-.542.302-.987.771-1.325 1.401-.664 1.222-.711 2.521-.266 3.825.252.732.553 1.451.859 2.166.264.621.225 1.003-.523 1.283-.926.347-2.745 1.186-3.654 1.577v2.293c0 1.075 2.943 1.948 6.575 1.948 3.631 0 6.575-.873 6.575-1.948v-2.293c-.91-.391-2.728-1.23-3.654-1.577zM8.985 10.714c-1.127-1.19-1.127-3.538.046-3.538s1.173 2.348-.011 3.572a.188.188 0 0 1-.035-.034zM5.116 12.351c-1.639-.046-3.299-1.704-2.468-2.534.829-.83 2.487.83 2.517 2.532a.133.133 0 0 1-.049.002zM3.536 16.244C2.347 17.371 0 17.371 0 16.199c0-1.174 2.347-1.174 3.571.01a.106.106 0 0 1-.035.035zM14.511 16.16c1.193-1.129 3.541-1.129 3.541.045s-2.349 1.174-3.574-.01a.122.122 0 0 1 .033-.035zM12.874 12.293c.047-1.639 1.708-3.299 2.536-2.469.83.828-.831 2.488-2.534 2.518-.002-.016-.004-.03-.002-.049z"/></svg>