<svg xmlns="http://www.w3.org/2000/svg" width="153.107" height="37.048" viewBox="0 0 153.107 37.048"><path fill="none" d="M.183 0h152.925v37.048H.183z"/><g fill="#5E3B1D"><path d="M33.676 23.191V8.646h1.931v8.812l4.606-4.79h2.392c-.658.654-1.315 1.301-1.972 1.941-.654.643-1.312 1.286-1.97 1.935a972.424 972.424 0 0 0 2.175 3.325c.725 1.098 1.452 2.205 2.184 3.322h-2.377l-3.291-5.346c-.292.287-.584.572-.874.853-.289.28-.581.563-.873.852v3.642h-1.931zM43.973 12.668h1.813v1.814c.171-.322.386-.611.647-.867.26-.256.552-.473.873-.65a4.313 4.313 0 0 1 1.035-.406 4.63 4.63 0 0 1 1.138-.139c.551 0 1.049.08 1.495.238a3.12 3.12 0 0 1 1.145.701c.316.311.561.691.731 1.145s.256.975.256 1.564v7.123h-1.931v-6.728c0-.448-.045-.832-.136-1.152a2.032 2.032 0 0 0-.398-.782 1.576 1.576 0 0 0-.647-.446 2.52 2.52 0 0 0-.881-.142c-.526 0-.991.104-1.393.314-.402.209-.739.49-1.01.844a3.733 3.733 0 0 0-.61 1.221 5.087 5.087 0 0 0-.204 1.445v5.426h-1.924V12.668zM54.781 17.934c0-.838.121-1.6.365-2.281a4.982 4.982 0 0 1 1.039-1.748 4.588 4.588 0 0 1 1.623-1.119c.634-.264 1.34-.395 2.12-.395.79 0 1.503.131 2.14.395s1.18.637 1.631 1.119.798 1.064 1.041 1.748c.244.682.366 1.443.366 2.281 0 .834-.122 1.59-.366 2.268-.243.677-.59 1.256-1.041 1.736s-.994.852-1.631 1.115-1.35.395-2.14.395c-.78 0-1.486-.132-2.12-.395a4.605 4.605 0 0 1-1.623-1.115 4.983 4.983 0 0 1-1.039-1.736c-.244-.679-.365-1.434-.365-2.268zm1.946 0c0 .313.022.631.066.955s.115.637.215.939c.1.302.231.587.395.855s.363.502.6.701c.237.2.515.357.834.473a3.24 3.24 0 0 0 1.093.172c.415 0 .782-.058 1.102-.172.319-.115.599-.272.837-.473a2.89 2.89 0 0 0 .606-.701 4.23 4.23 0 0 0 .403-.855c.103-.303.176-.615.219-.939a7.217 7.217 0 0 0 0-1.92c-.043-.327-.116-.643-.219-.947s-.238-.592-.403-.859-.368-.502-.606-.702-.518-.356-.837-.472a3.269 3.269 0 0 0-1.102-.172c-.409 0-.773.058-1.093.172a2.677 2.677 0 0 0-.834.472c-.236.2-.436.435-.6.702-.163.268-.295.555-.395.859s-.171.62-.215.947a7.213 7.213 0 0 0-.066.965zM77.137 21.275l1.221-4.3c.405-1.423.813-2.859 1.222-4.308h2.091L78.345 23.19h-2.238l-2.545-8.373-2.545 8.373H68.78l-3.327-10.523h2.092c.409 1.448.816 2.885 1.221 4.308l1.221 4.3 2.647-8.607h1.857l2.646 8.607zM82.578 8.646h1.931v14.545h-1.931V8.646zM91.215 12.398c.551 0 1.053.074 1.507.227.452.15.858.363 1.217.636s.669.597.933.973.479.789.647 1.239c.168.451.288.93.362 1.438.073.506.1 1.025.08 1.557h-7.818c.025.557.115 1.054.271 1.492.156.439.371.813.644 1.119.273.307.599.541.98.701.38.162.806.242 1.279.242.303 0 .596-.039.881-.117a2.913 2.913 0 0 0 1.437-.896c.19-.217.344-.462.461-.735h1.74c-.405 1.023-.985 1.806-1.74 2.344-.757.539-1.716.809-2.882.809-.775 0-1.473-.134-2.091-.398-.619-.266-1.147-.641-1.584-1.123s-.771-1.063-1.002-1.74-.347-1.432-.347-2.26c0-.805.122-1.544.365-2.219a5.139 5.139 0 0 1 1.027-1.74 4.702 4.702 0 0 1 1.587-1.139c.618-.273 1.3-.41 2.046-.41zm2.844 4.899a5.348 5.348 0 0 0-.252-1.375 3.619 3.619 0 0 0-.573-1.104 2.627 2.627 0 0 0-.892-.735 2.65 2.65 0 0 0-1.207-.267c-.492 0-.922.1-1.287.296-.365.198-.672.459-.918.783s-.434.695-.563 1.114a5.17 5.17 0 0 0-.224 1.287h5.916zM105.263 21.634c-.38.6-.863 1.048-1.451 1.346a4.229 4.229 0 0 1-1.942.446c-.74 0-1.406-.129-1.999-.384a4.167 4.167 0 0 1-1.511-1.101c-.414-.479-.732-1.059-.953-1.745-.223-.685-.334-1.456-.334-2.313 0-.854.11-1.619.329-2.297.22-.678.536-1.253.951-1.726a4.105 4.105 0 0 1 1.503-1.085c.588-.252 1.251-.377 1.992-.377.326 0 .655.036.984.109.328.072.639.183.932.328.293.146.56.332.801.553.242.223.436.479.581.771V8.646h1.924v14.545h-1.807v-1.557zm-.023-3.693c0-.317-.024-.639-.076-.966a5.337 5.337 0 0 0-.238-.947 4.465 4.465 0 0 0-.404-.858 3 3 0 0 0-.59-.703c-.229-.199-.49-.357-.782-.475s-.622-.176-.987-.176c-.39 0-.738.055-1.046.164a2.765 2.765 0 0 0-.812.453 2.788 2.788 0 0 0-.596.686 3.992 3.992 0 0 0-.398.851 5.224 5.224 0 0 0-.223.958c-.047.334-.07.667-.07.998 0 .488.061.976.18 1.463.119.488.306.926.559 1.316.254.391.58.707.977.951.398.243.874.365 1.43.365.561 0 1.038-.123 1.43-.369.393-.246.711-.565.954-.959.244-.391.421-.829.53-1.313.109-.482.162-.962.162-1.439zM118.565 22.57a6.5 6.5 0 0 1-.091 1.078 4.561 4.561 0 0 1-.318 1.057c-.151.342-.354.66-.604.958-.252.298-.566.557-.943.778s-.826.397-1.346.526c-.519.13-1.121.194-1.803.194a5.68 5.68 0 0 1-1.455-.189 4.458 4.458 0 0 1-1.306-.575 3.462 3.462 0 0 1-.986-.966 3.132 3.132 0 0 1-.509-1.37h1.85c.074.308.186.576.341.81.153.229.343.422.566.572.225.151.481.264.771.34s.604.113.94.113c.561 0 1.035-.082 1.426-.248.39-.166.707-.395.95-.684.243-.291.422-.628.534-1.014a4.44 4.44 0 0 0 .168-1.235v-1.821a4.551 4.551 0 0 1-.611.779 3.375 3.375 0 0 1-.771.589 3.875 3.875 0 0 1-.962.373 4.91 4.91 0 0 1-1.174.132 4.5 4.5 0 0 1-1.847-.369 4.02 4.02 0 0 1-1.419-1.05c-.393-.454-.695-.999-.91-1.638s-.321-1.352-.321-2.136c0-.761.113-1.458.339-2.091a5.04 5.04 0 0 1 .945-1.639c.4-.458.88-.814 1.436-1.068a4.347 4.347 0 0 1 1.821-.379c.468 0 .882.045 1.239.135.359.09.674.217.947.38.273.165.51.356.709.579.2.221.378.463.534.727v-1.551h1.857v9.903zm-1.805-4.9c0-.517-.066-1.008-.198-1.477s-.328-.878-.588-1.229a2.902 2.902 0 0 0-.974-.838c-.387-.207-.84-.311-1.355-.311-.484 0-.908.1-1.277.296a2.789 2.789 0 0 0-.928.804c-.252.34-.441.736-.57 1.189-.13.453-.195.938-.195 1.455 0 .497.061.975.181 1.434.118.459.302.863.548 1.213.246.352.555.631.926.838.37.207.809.311 1.316.311.487 0 .924-.104 1.309-.311s.712-.481.979-.822a3.67 3.67 0 0 0 .614-1.178 4.53 4.53 0 0 0 .212-1.374zM125.229 12.398c.551 0 1.053.074 1.506.227.453.15.859.363 1.217.636.359.272.67.597.934.973.263.376.479.789.646 1.239.168.451.289.93.362 1.438.073.506.101 1.025.081 1.557h-7.818c.025.557.115 1.054.271 1.492.155.439.37.813.643 1.119.273.307.6.541.98.701.38.162.807.242 1.279.242.303 0 .596-.039.881-.117s.549-.192.791-.344a2.853 2.853 0 0 0 1.107-1.287h1.74c-.404 1.023-.984 1.806-1.74 2.344-.756.539-1.716.809-2.881.809-.775 0-1.473-.134-2.092-.398a4.517 4.517 0 0 1-1.584-1.123 4.951 4.951 0 0 1-1.002-1.74c-.231-.678-.347-1.432-.347-2.26 0-.805.122-1.544.366-2.219a5.137 5.137 0 0 1 1.026-1.74 4.702 4.702 0 0 1 1.587-1.139c.619-.273 1.3-.41 2.047-.41zm2.843 4.899a5.435 5.435 0 0 0-.252-1.375 3.599 3.599 0 0 0-.574-1.104 2.608 2.608 0 0 0-.892-.735 2.647 2.647 0 0 0-1.207-.267c-.492 0-.921.1-1.288.296-.364.198-.671.459-.917.783s-.434.695-.563 1.114c-.129.42-.203.849-.223 1.287h5.916z"/></g><path fill="#5E3B1D" d="M16.593 5.729s-1.116 3.998-5.28 6.82a18.197 18.197 0 0 0-2.499 1.848c-2.04 1.818-4.014 4.186-5.146 5.738C1.086 22.658.059 25.346 0 25.5l.018.006C0 25.5.009 25.504.009 25.533c0 .162.121.35.282.35a.287.287 0 0 0 .254-.157l.009.004c.012-.03.759-1.979 2.561-4.089C9.141 17.644 11 18.981 11 18.981c.597-.357 1.351-.973 1.83-1.412a10.926 10.926 0 0 0 1.916-2.512c2.248-4.204 1.847-9.328 1.847-9.328zm-2.185 5.705c-.031.1-.068.254-.138.438l-.3.647c-.141.233-.304.498-.488.781-.202.268-.44.54-.685.838l-.187.225-.214.207a423 423 0 0 0-.447.417c-.085.078-.828.696-.914.774h.001l-.064.047c-.354.254-.711.513-1.068.771-.363.246-.751.434-1.119.651l-.492.271c-.311.171-1.343.727-1.631.878-.314.193-.611.378-.887.545-.266.187-.508.356-.725.506-.22.146-.396.297-.546.416l-.472.371s.152-.16.423-.432c.137-.136.296-.303.505-.477.203-.174.428-.383.69-.578.268-.193.56-.398.865-.617l1.486-.885c.199-.119.396-.232.601-.356.362-.219.754-.415 1.105-.661l.698-.492c.11-.075.753-.524.853-.613l.465-.402.453-.389.221-.188.193-.206c.252-.274.504-.522.717-.772.191-.264.373-.503.537-.716l.354-.597c.083-.178.144-.317.188-.411l.053-.153s-.008.057-.031.162z"/></svg>