<svg xmlns="http://www.w3.org/2000/svg" width="50" height="50" viewBox="0 0 50 50"><path fill="#2DB494" d="M25.166 49.172c-6.455 0-12.524-2.515-17.091-7.081C3.511 37.527.997 31.455.997 24.999a24.018 24.018 0 0 1 7.078-17.09C12.641 3.346 18.711.828 25.166.828c6.46 0 12.528 2.518 17.094 7.081a24.025 24.025 0 0 1 7.078 17.09c0 6.456-2.517 12.527-7.078 17.092-4.566 4.566-10.634 7.081-17.094 7.081zm0-47.285c-12.744 0-23.114 10.369-23.114 23.112 0 12.748 10.37 23.118 23.114 23.118 12.749 0 23.117-10.37 23.117-23.118 0-12.743-10.368-23.112-23.117-23.112z"/><linearGradient id="a" gradientUnits="userSpaceOnUse" x1="25.168" y1="3.053" x2="25.168" y2="53.992"><stop offset="0" stop-color="#2cb393"/><stop offset="1" stop-color="#fffbd4"/></linearGradient><path fill="url(#a)" d="M40.9 9.27a22.177 22.177 0 0 0-15.734-6.518A22.174 22.174 0 0 0 9.435 9.27a22.177 22.177 0 0 0-6.518 15.729 22.19 22.19 0 0 0 6.518 15.736 22.17 22.17 0 0 0 15.731 6.516c6.146 0 11.708-2.487 15.734-6.516s6.518-9.588 6.518-15.736A22.167 22.167 0 0 0 40.9 9.27z"/><path fill="#EEE9C4" d="M25.001 36.804l.001-.109-.001-.108-.002.108.002.109z"/><path fill="#F3E9D2" d="M24.777 36.016l.002-.107V15.452c0-4.434-3.595-4.138-8.029-4.138H6.886v20.668h9.864c4.397 0 7.97-.29 8.027 4.034zM33.585 11.314c-4.435 0-8.029-.296-8.029 4.138v20.456l.002.107c.058-4.323 3.63-4.033 8.027-4.033h9.865V11.314h-9.865z"/><path fill="#A79D8E" d="M9.006 13.791h11.903v.574H9.006zM9.006 16.323h8.947v.573H9.006zM9.006 18.855h11.903v.573H9.006zM9.006 21.388h8.947v.573H9.006zM9.006 24.067h11.903v.573H9.006zM9.006 26.6h8.947v.573H9.006zM28.783 13.791h4.479v.574h-4.479zM28.783 16.323h4.479v.573h-4.479zM28.783 18.855h5.487v.573h-5.487zM28.783 21.388h11.873v.573H28.783zM28.783 24.067h8.977v.573h-8.977zM28.783 26.6h11.873v.573H28.783z"/><path fill="#FFF" d="M37.121 15.521l.805-.582.803.582-.306-.94.805-.579h-.995l-.307-.939-.308.939h-.995l.805.579z"/><path fill="#2DB494" d="M35.974 16.279l1.933.976 1.971-.976v-5.27h-3.903v5.27zm1.644-2.277l.308-.939.308.939h.994l-.805.579.307.939-.804-.581-.805.581.307-.939-.805-.579h.995z"/><g><path fill="#00A69C" d="M50 33.058h-9.454v8.199H50l-3.398-4.101z"/><path fill="#404041" d="M40.546 33.058l3.521 3.221h-3.521z"/><path fill="#00A69C" d="M0 33.058h9.457v8.199H0l3.399-4.101z"/><path fill="#2DB494" d="M25 36.279H5.935v8.202H44.067v-8.202z"/><path fill="#404041" d="M9.457 33.058l-3.522 3.221h3.522z"/></g><g fill="#FFF"><path d="M12.564 41.866l.449-.105V38.9l-.449-.105v-.292l1.006-.026h.583c.746 0 1.191.361 1.191.954 0 .514-.233.863-.688 1.032.084.074.181.213.317.478l.419.842.376.084v.317h-.795l-.45-.979c-.249-.528-.365-.635-.715-.635h-.238v1.191l.45.105v.317h-1.456v-.317zm1.006-1.694h.397c.519 0 .82-.243.82-.662 0-.355-.275-.609-.662-.609h-.555v1.271zM17.118 38.9v1.139h1.218v.424h-1.218v1.298h1.218l.105-.528h.345v.951h-2.674v-.317l.449-.105V38.9l-.449-.105v-.292l1.006-.026h1.615v.9h-.345l-.131-.477h-1.139zM19.13 41.866l.435-.101 1.206-3.263.53-.026 1.176 3.289.439.101v.317H21.38v-.317l.493-.101-.202-.588h-1.376l-.207.588.498.101v.317H19.13v-.317zm1.308-1.112h1.091l-.534-1.594-.557 1.594zM23.259 41.866l.45-.105V38.9l-.45-.105v-.292l1.007-.026h.662c1.032 0 1.668.637 1.668 1.801 0 1.165-.689 1.906-1.748 1.906h-1.589v-.318zm1.615-.105c.662 0 1.112-.45 1.112-1.457 0-.979-.424-1.403-1.086-1.403h-.635v2.86h.609zM27.998 41.761h1.086l.105-.609h.371v1.032h-2.569v-.317l.45-.105V38.9l-.45-.105v-.292l1.457-.026v.318l-.45.105v2.861zM31.28 42.184h-1.456v-.317l.45-.105V38.9l-.45-.105v-.292l1.456-.026v.318l-.45.105v2.86l.45.105v.319zM32.393 41.655s.237.143.582.133c.387-.006.816-.191.811-.567-.017-.816-1.891-.461-1.912-1.742-.011-.741.594-1.043 1.256-1.055.502-.011 1.117.213 1.117.213l-.026.899h-.344l-.181-.566s-.271-.101-.562-.096c-.478.006-.709.249-.705.514.017.806 1.891.499 1.907 1.689.016.795-.641 1.15-1.383 1.165a3.161 3.161 0 0 1-1.091-.216v-.929h.424l.107.558zM36.961 42.184h-1.614v-.317l.529-.105V38.9h-.688l-.133.53h-.344v-.954h2.886v.954h-.344l-.132-.53h-.688v2.86l.528.105v.319z"/></g></svg>