<svg xmlns="http://www.w3.org/2000/svg" width="152.925" height="37.047" viewBox="0 0 152.925 37.047"><path fill="none" d="M0 0h152.925v37.047H0z"/><g fill="#405994"><path d="M34.772 20.142c.039.331.141.622.305.87.162.248.367.455.613.617.246.164.522.286.826.365a3.6 3.6 0 0 0 .939.121c.366 0 .702-.029 1.01-.092.307-.06.572-.152.797-.277.225-.123.4-.281.526-.475.127-.192.19-.418.19-.676 0-.195-.039-.381-.117-.557s-.23-.349-.457-.52c-.227-.17-.545-.342-.958-.515a14.712 14.712 0 0 0-1.627-.546 15.699 15.699 0 0 1-1.451-.488 5.312 5.312 0 0 1-1.199-.652 2.942 2.942 0 0 1-.815-.892c-.2-.341-.301-.743-.301-1.206 0-.366.057-.689.169-.969.112-.281.267-.527.465-.74.196-.211.431-.389.702-.533.27-.143.562-.26.877-.348.313-.088.645-.15.99-.189a9.35 9.35 0 0 1 1.046-.059c.513 0 1.006.049 1.48.146a4.08 4.08 0 0 1 1.296.497c.387.233.713.542.979.925s.443.859.53 1.43H39.68a1.842 1.842 0 0 0-.274-.725 1.882 1.882 0 0 0-.534-.529 2.48 2.48 0 0 0-.741-.326 3.58 3.58 0 0 0-.9-.109c-.287 0-.563.031-.83.096a2.64 2.64 0 0 0-.705.27c-.205.117-.369.26-.494.429a.933.933 0 0 0-.186.567c0 .248.052.457.156.628.105.171.285.327.541.468.257.142.598.281 1.023.417.428.137.963.292 1.605.468.552.156 1.049.331 1.492.523.443.193.82.422 1.13.688s.548.575.713.928c.165.354.249.77.249 1.248 0 .512-.115.954-.344 1.326-.229.374-.545.684-.947.93s-.877.429-1.422.547c-.547.12-1.137.18-1.77.18a8.196 8.196 0 0 1-1.672-.164c-.529-.109-1-.291-1.414-.545a3.218 3.218 0 0 1-1.029-1.006c-.27-.416-.438-.932-.507-1.546h1.952zM43.3 8.646h1.931v4.65l-.015 1.258c.171-.346.386-.652.644-.918a3.86 3.86 0 0 1 .866-.669 4.321 4.321 0 0 1 2.118-.548c.551 0 1.049.079 1.492.237.443.159.82.393 1.129.702.311.31.549.69.717 1.145.168.453.253.975.253 1.564v7.123h-1.931v-6.729c0-.838-.157-1.453-.472-1.843s-.798-.585-1.451-.585c-.492 0-.945.102-1.356.305-.412.201-.766.473-1.061.814s-.525.738-.691 1.188a4.106 4.106 0 0 0-.248 1.422v5.427H43.3V8.646zM54.109 17.934c0-.84.121-1.6.364-2.282a5.002 5.002 0 0 1 1.039-1.747c.449-.483.99-.855 1.624-1.119.633-.264 1.341-.395 2.12-.395.79 0 1.503.131 2.139.395.637.264 1.18.636 1.631 1.119a4.994 4.994 0 0 1 1.043 1.747c.243.683.365 1.442.365 2.282 0 .833-.122 1.589-.365 2.266a4.955 4.955 0 0 1-1.043 1.736 4.611 4.611 0 0 1-1.631 1.117c-.636.262-1.349.395-2.139.395-.779 0-1.487-.133-2.12-.395a4.605 4.605 0 0 1-1.624-1.117 4.98 4.98 0 0 1-1.039-1.736c-.243-.678-.364-1.433-.364-2.266zm1.946 0c0 .312.021.63.064.955a5.2 5.2 0 0 0 .216.938c.101.302.232.587.396.855s.362.502.6.702c.236.199.515.357.833.472.32.114.685.172 1.094.172.414 0 .781-.058 1.101-.172s.599-.272.837-.472c.238-.2.441-.434.607-.702.165-.269.299-.554.401-.855s.176-.615.22-.938a7.122 7.122 0 0 0 0-1.921c-.044-.327-.117-.642-.22-.946s-.236-.592-.401-.859a2.742 2.742 0 0 0-1.444-1.174 3.242 3.242 0 0 0-1.101-.172c-.409 0-.773.057-1.094.172a2.67 2.67 0 0 0-.833.471c-.237.2-.437.435-.6.703a4.192 4.192 0 0 0-.396.859c-.1.305-.172.619-.216.946s-.064.648-.064.966zM66.103 12.668h1.776v2.26l.007.003c0 .003.003.004.003.004.186-.443.409-.825.678-1.145s.565-.582.892-.79a3.82 3.82 0 0 1 1.043-.459 4.27 4.27 0 0 1 1.407-.14c.089.008.168.017.242.026v1.901a5.538 5.538 0 0 1-.149-.022c-.056-.009-.114-.019-.173-.024-.058-.009-.116-.014-.175-.02a3.649 3.649 0 0 0-1.304.161 3.085 3.085 0 0 0-.893.458 2.837 2.837 0 0 0-.655.688c-.18.266-.327.553-.441.862-.115.31-.197.632-.249.968a6.662 6.662 0 0 0-.077 1.018v4.775h-1.93V12.668z"/><path d="M75.858 12.668h2.179v1.258h-2.179v5.828c0 .365.018.68.053.943.038.264.113.479.228.648.115.166.282.291.502.371.219.082.512.121.877.121.103 0 .208-.002.314-.008.107-.004.212-.012.314-.021v1.448l-.519.028a14.542 14.542 0 0 1-.797.029c-.396 0-.769-.048-1.119-.146a2.553 2.553 0 0 1-.922-.464 2.233 2.233 0 0 1-.625-.83c-.154-.342-.23-.759-.23-1.251v-6.698h-1.807v-1.258h1.807V9.502h1.924v3.166zM86.608 20.142c.039.331.141.622.303.87.164.248.369.455.615.617.246.164.521.286.826.365a3.6 3.6 0 0 0 .939.121c.365 0 .702-.029 1.01-.092.307-.06.572-.152.797-.277.224-.123.399-.281.525-.475.128-.192.191-.418.191-.676 0-.195-.039-.381-.117-.557s-.23-.349-.457-.52c-.227-.17-.547-.342-.958-.515a14.712 14.712 0 0 0-1.627-.546 15.8 15.8 0 0 1-1.451-.488 5.341 5.341 0 0 1-1.2-.652c-.344-.253-.615-.551-.815-.892s-.3-.743-.3-1.206c0-.366.057-.689.168-.969.112-.281.268-.527.465-.74.197-.211.432-.389.702-.533.271-.143.563-.26.878-.348s.645-.15.99-.189.695-.059 1.046-.059c.512 0 1.005.049 1.481.146.475.098.906.263 1.294.497.388.233.714.542.979.925s.442.859.53 1.43h-1.909a1.826 1.826 0 0 0-.273-.725 1.878 1.878 0 0 0-.533-.529 2.503 2.503 0 0 0-.743-.326 3.572 3.572 0 0 0-.899-.109c-.287 0-.564.031-.83.096a2.626 2.626 0 0 0-.705.27c-.205.117-.369.26-.494.429a.922.922 0 0 0-.187.567c0 .248.053.457.157.628.105.171.285.327.541.468a5.83 5.83 0 0 0 1.024.417c.427.137.961.292 1.604.468.551.156 1.049.331 1.492.523.443.193.82.422 1.13.688s.547.575.712.928c.166.354.25.77.25 1.248 0 .512-.115.954-.344 1.326-.229.374-.545.684-.947.93s-.877.429-1.423.547c-.546.12-1.136.18-1.769.18a8.196 8.196 0 0 1-1.672-.164c-.529-.109-1-.291-1.415-.545a3.199 3.199 0 0 1-1.026-1.006c-.271-.416-.441-.932-.51-1.546h1.955zM97.827 12.668h2.179v1.258h-2.179v5.828c0 .365.019.68.055.943.037.264.111.479.227.648.114.166.281.291.501.371.22.082.512.121.878.121.102 0 .207-.002.314-.008.105-.004.212-.012.314-.021v1.448l-.52.028a14.457 14.457 0 0 1-.797.029c-.396 0-.769-.048-1.119-.146a2.553 2.553 0 0 1-.922-.464 2.212 2.212 0 0 1-.625-.83c-.154-.342-.23-.759-.23-1.251v-6.698h-1.806v-1.258h1.806V9.502h1.924v3.166zM100.76 17.934c0-.84.122-1.6.366-2.282a4.984 4.984 0 0 1 1.038-1.747 4.58 4.58 0 0 1 1.624-1.119c.633-.264 1.34-.395 2.119-.395.791 0 1.504.131 2.14.395s1.179.636 1.63 1.119c.451.482.799 1.064 1.043 1.747s.365 1.442.365 2.282c0 .833-.121 1.589-.365 2.266a4.925 4.925 0 0 1-1.043 1.736 4.616 4.616 0 0 1-1.63 1.117c-.636.262-1.349.395-2.14.395-.779 0-1.486-.133-2.119-.395a4.588 4.588 0 0 1-1.624-1.117 4.963 4.963 0 0 1-1.038-1.736c-.244-.678-.366-1.433-.366-2.266zm1.945 0c0 .312.022.63.065.955.045.323.116.637.216.938s.231.587.396.855a2.7 2.7 0 0 0 1.433 1.174c.319.115.685.172 1.093.172.415 0 .781-.058 1.102-.172.318-.114.599-.272.837-.472.239-.2.441-.434.607-.702.165-.269.3-.554.402-.855s.175-.615.219-.938a7.122 7.122 0 0 0 0-1.921c-.044-.327-.116-.642-.219-.946s-.237-.592-.402-.859a2.754 2.754 0 0 0-1.444-1.174 3.248 3.248 0 0 0-1.102-.172c-.408 0-.773.057-1.093.172a2.658 2.658 0 0 0-.833.471c-.238.2-.438.435-.6.703-.164.268-.296.555-.396.859s-.171.619-.216.946a7.573 7.573 0 0 0-.065.966zM112.754 12.668h1.776v2.26l.008.003c0 .003.002.004.002.004.185-.443.409-.825.678-1.145.268-.319.564-.582.892-.79a3.841 3.841 0 0 1 1.042-.459 4.28 4.28 0 0 1 1.408-.14c.088.008.168.017.241.026v1.901a5.538 5.538 0 0 1-.149-.022c-.057-.009-.114-.019-.174-.024-.058-.009-.117-.014-.174-.02a3.664 3.664 0 0 0-1.305.161 3.066 3.066 0 0 0-.892.458c-.256.191-.475.422-.655.688s-.327.553-.442.862-.197.632-.248.968a6.79 6.79 0 0 0-.076 1.018v4.775h-1.931V12.668z"/><path d="M122.253 22.512c-.629-1.648-1.253-3.287-1.872-4.919l-1.872-4.925h2.121l3.064 8.738c.5-1.463.996-2.918 1.482-4.369.488-1.449.982-2.906 1.484-4.369h2.063l-4.476 11.868c-.146.396-.32.731-.523 1.009a2.787 2.787 0 0 1-.705.688 2.792 2.792 0 0 1-.914.396 4.867 4.867 0 0 1-1.148.124 13.695 13.695 0 0 1-1.374-.067v-1.623l.312.026.256.019c.08.004.161.007.244.007h.277c.254 0 .49-.031.71-.092a1.62 1.62 0 0 0 .573-.284c.164-.131.292-.291.385-.482a1.58 1.58 0 0 0 .118-.922 5.538 5.538 0 0 0-.128-.582 2.92 2.92 0 0 0-.077-.241z"/></g><path fill="#405994" d="M10.417 23.521c2.66-1.399 5.281-1.401 7.932-.011.014-.066.022-.088.022-.111 0-3.539.003-7.082-.009-10.62-.009-.142-.156-.343-.298-.427-2.41-1.424-4.857-1.387-7.333-.145-.246.123-.327.276-.324.532.01 3.479.01 6.958.01 10.44v.342zM.783 23.521c2.659-1.399 5.286-1.401 7.933-.011.012-.066.018-.088.018-.111.002-3.539.006-7.082-.006-10.62-.007-.142-.153-.343-.3-.427-2.404-1.424-4.854-1.387-7.328-.145-.241.123-.326.27-.326.532.01 3.473.01 6.958.01 10.44l-.001.342z"/></svg>