<svg xmlns="http://www.w3.org/2000/svg" width="77.519" height="36.012" viewBox="0 0 77.519 36.012"><path fill="#DB5525" d="M27.506 0v30.383l11.144 5.628 11.362-5.628V0z"/><path fill="#FFF" d="M46.106 15.7a.24.24 0 0 0-.192-.045l-4.141.92a.236.236 0 0 0-.17.161.229.229 0 0 0 .063.228l1.047 1.021-3.621 3.622-2.199-2.2c-.401-.404-.771-.447-1.252.033l-4.039 4.043a1.121 1.121 0 0 0-.13.145.745.745 0 0 0-.104.688.754.754 0 0 0 .711.499c.204 0 .393-.088.574-.27a2074.45 2074.45 0 0 1 3.634-3.633c.002 0 .003.002.003.002l2.215 2.216c.409.41.811.41 1.22 0l4.096-4.095 1.073 1.104c.06.059.145.084.229.061a.225.225 0 0 0 .159-.17l.206-.934.443-1.983c.063-.277.129-.555.196-.832l.066-.305v-.096a.235.235 0 0 0-.087-.18z"/><path fill="#3DA881" d="M0 0v30.383l11.145 5.628 11.361-5.628V0z"/><path fill="#FFF" d="M11.253 14.249l1.484 4.569h4.806l-3.888 2.826 1.486 4.57-3.888-2.825-3.888 2.825 1.486-4.57-3.888-2.826h4.805z"/><g><path fill="#ED9A00" d="M55.012 0v30.383l11.144 5.628 11.362-5.628V0z"/><g fill="#FFF"><path d="M70.759 21.609c-1.347-1.46-2.081-3.121-1.795-5.146-1.814.002-3.611.006-5.413.01.287 2.035-.443 3.696-1.78 5.154 1.839 1.404 3.226 3.123 4.022 5.271v-5.506a.786.786 0 0 1-.337-.638.809.809 0 0 1 1.617 0c0 .27-.137.49-.336.638v5.555c.794-2.183 2.179-3.917 4.022-5.338zM63.535 14.685h5.458v1.129h-5.458z"/></g></g></svg>